<svg width="138" height="167" viewBox="0 0 138 167" fill="none" xmlns="http://www.w3.org/2000/svg">
<path fill-rule="evenodd" clip-rule="evenodd" d="M40.1886 1.18627C33.5796 3.31527 27.5006 8.91327 24.0656 16.0343C17.5786 29.4823 18.9526 37.6013 30.8666 56.2213L38.7836 68.5953L29.8916 75.2603C17.8656 84.2753 8.82457 94.2463 4.20557 103.589L0.467567 111.15L0.114567 128.041C-0.182433 142.281 0.0365666 145.649 1.50657 149.499C3.66157 155.141 9.01857 161.2 14.3996 164.08C18.2936 166.165 19.8226 166.271 50.1686 166.56C69.9096 166.748 83.3226 166.47 85.7216 165.824C87.8406 165.254 91.4056 163.219 93.6436 161.303L97.7136 157.82L99.5906 159.895C104.099 164.88 108.613 166.13 123.468 166.508L137.468 166.865L134.407 164.833C130.927 162.523 127.28 157.601 113.034 135.988L102.968 120.719V102.206C102.968 88.3033 103.329 82.8303 104.417 80.2263C105.841 76.8183 105.823 76.7583 103.417 76.7583C102.07 76.7583 100.068 77.6583 98.9676 78.7583C97.1426 80.5833 96.9676 82.0913 96.9676 96.0043V111.249L85.4106 93.9313L73.8536 76.6133L81.3706 69.3833C86.9906 63.9773 89.7186 60.3993 92.1776 55.2053C95.3216 48.5653 95.4826 47.6453 95.8156 34.4093C96.2176 18.4253 95.2416 14.5413 89.2836 8.40727C82.1676 1.08027 79.5436 0.305274 60.9676 0.0422735C49.1276 -0.125726 43.2596 0.197274 40.1886 1.18627ZM66.7606 7.75027C72.9056 10.5393 75.3976 16.3143 75.3936 27.7583C75.3906 34.5463 74.9526 37.0913 73.2166 40.3953C70.8626 44.8743 59.9806 55.2333 58.9146 54.0083C58.5556 53.5963 54.0746 46.2833 48.9576 37.7583C41.1456 24.7453 39.5926 21.4563 39.2796 17.2583C39.0296 13.9033 39.3866 11.6523 40.3656 10.4153C44.0766 5.72627 58.9836 4.22127 66.7606 7.75027ZM73.2716 120.809C87.6106 142.557 92.9086 151.37 92.4696 152.751C91.5696 155.588 86.2286 158.445 79.5336 159.671C71.7546 161.096 46.5056 161.067 39.7836 159.625C29.2666 157.37 25.9676 150.747 25.9676 131.89C25.9676 120.321 27.6196 114.099 32.4166 107.599C35.6766 103.181 50.3336 90.9173 52.4676 90.8203C53.0176 90.7963 62.3796 104.291 73.2716 120.809Z" fill="white"/>
</svg>
