<svg width="24" height="24" viewBox="0 0 24 24" fill="none" xmlns="http://www.w3.org/2000/svg">
<path d="M18 7.04949C18 6.7844 17.8947 6.53017 17.7072 6.34273C17.5198 6.15528 17.2656 6.04998 17.0005 6.04998L9.00435 6C8.73926 6 8.48503 6.10531 8.29758 6.29275C8.11014 6.4802 8.00483 6.73443 8.00483 6.99952C8.00483 7.26461 8.11014 7.51884 8.29758 7.70628C8.48503 7.89373 8.73926 7.99903 9.00435 7.99903H14.5617L6.29566 16.285C6.20197 16.3779 6.12761 16.4885 6.07687 16.6103C6.02613 16.7321 6 16.8627 6 16.9947C6 17.1266 6.02613 17.2573 6.07687 17.3791C6.12761 17.5009 6.20197 17.6114 6.29566 17.7043C6.38857 17.798 6.49912 17.8724 6.62092 17.9231C6.74272 17.9739 6.87336 18 7.00531 18C7.13726 18 7.2679 17.9739 7.3897 17.9231C7.5115 17.8724 7.62205 17.798 7.71497 17.7043L16.001 9.41835V14.9957C16.001 15.2607 16.1063 15.515 16.2937 15.7024C16.4812 15.8899 16.7354 15.9952 17.0005 15.9952C17.2656 15.9952 17.5198 15.8899 17.7072 15.7024C17.8947 15.515 18 15.2607 18 14.9957V7.04949Z" fill="white"/>
</svg>
