<svg width="231" height="231" viewBox="0 0 231 231" fill="none" xmlns="http://www.w3.org/2000/svg">
<circle cx="115.5" cy="115.5" r="115.5" fill="#1C1C19"/>
<path d="M102.286 56.3904L106.286 42.3697L109.505 43.2881C110.14 43.4692 110.668 43.6948 111.09 43.965C111.524 44.2384 111.855 44.5638 112.085 44.9412C112.314 45.3185 112.439 45.7537 112.461 46.2465C112.486 46.7278 112.413 47.2685 112.242 47.8685C112.077 48.4455 111.859 48.9261 111.587 49.3103C111.33 49.6862 111.017 49.9525 110.648 50.1093C110.29 50.2693 109.871 50.3181 109.389 50.2557C109.919 50.5439 110.312 50.8932 110.569 51.3035C110.83 51.7023 110.972 52.1671 110.995 52.6978C111.033 53.2203 110.957 53.8162 110.766 54.4855C110.595 55.0856 110.369 55.614 110.089 56.0707C109.809 56.5274 109.47 56.886 109.071 57.1466C108.684 57.4105 108.231 57.5747 107.714 57.6392C107.211 57.6955 106.648 57.6347 106.025 57.4569L102.286 56.3904ZM104.642 55.5463L105.957 55.9216C106.834 56.1717 107.475 56.136 107.879 55.8145C108.297 55.4846 108.636 54.8639 108.896 53.9522C109.064 53.3637 109.123 52.8502 109.074 52.4118C109.039 51.9651 108.877 51.5943 108.586 51.2994C108.311 50.9962 107.885 50.7623 107.308 50.5977L106.148 50.2669L104.642 55.5463ZM106.573 48.7783L107.732 49.1091C108.286 49.2671 108.74 49.3156 109.095 49.2544C109.452 49.1818 109.744 48.9904 109.97 48.6805C110.195 48.3705 110.387 47.9385 110.545 47.3846C110.73 46.7384 110.765 46.2431 110.651 45.8986C110.537 45.5542 110.282 45.2881 109.887 45.1003C109.494 44.901 108.963 44.7059 108.294 44.515L107.827 44.3817L106.573 48.7783ZM114.613 60.0565C113.874 59.8458 113.334 59.5296 112.993 59.1077C112.651 58.6859 112.467 58.1717 112.441 57.5651C112.426 56.9619 112.525 56.2852 112.739 55.5351L113.569 52.6271C113.783 51.877 114.055 51.2497 114.386 50.7452C114.729 50.244 115.157 49.9042 115.669 49.726C116.182 49.5478 116.807 49.564 117.546 49.7747C118.284 49.9854 118.818 50.3 119.148 50.7185C119.49 51.1404 119.668 51.6529 119.683 52.2562C119.71 52.8628 119.616 53.5411 119.402 54.2912L118.572 57.1992C118.358 57.9492 118.08 58.5749 117.737 59.0761C117.406 59.5806 116.985 59.922 116.472 60.1003C115.971 60.2818 115.351 60.2672 114.613 60.0565ZM115.003 58.6891C115.36 58.7911 115.638 58.758 115.836 58.5898C116.045 58.4249 116.209 58.1784 116.328 57.8503C116.461 57.514 116.58 57.1612 116.686 56.792L117.579 53.659C117.688 53.2782 117.773 52.9155 117.834 52.571C117.906 52.2297 117.897 51.9339 117.806 51.6833C117.73 51.4246 117.513 51.2442 117.156 51.1421C116.798 51.0401 116.513 51.0773 116.3 51.2538C116.091 51.4187 115.921 51.6635 115.791 51.9883C115.673 52.3164 115.559 52.6708 115.45 53.0516L114.557 56.1846C114.451 56.5539 114.361 56.9149 114.285 57.2677C114.224 57.6122 114.239 57.9097 114.33 58.1602C114.421 58.4107 114.645 58.587 115.003 58.6891ZM122.658 62.3517C121.92 62.141 121.38 61.8247 121.038 61.4029C120.697 60.9811 120.513 60.4668 120.486 59.8603C120.471 59.257 120.571 58.5803 120.785 57.8302L121.614 54.9222C121.828 54.1722 122.101 53.5449 122.432 53.0403C122.774 52.5391 123.202 52.1994 123.715 52.0212C124.227 51.8429 124.853 51.8591 125.591 52.0698C126.33 52.2805 126.864 52.5951 127.194 53.0137C127.535 53.4355 127.713 53.948 127.728 54.5513C127.755 55.1579 127.661 55.8362 127.447 56.5863L126.618 59.4943C126.404 60.2444 126.126 60.87 125.783 61.3713C125.452 61.8758 125.03 62.2172 124.517 62.3954C124.016 62.5769 123.397 62.5623 122.658 62.3517ZM123.048 60.9842C123.406 61.0863 123.684 61.0532 123.881 60.885C124.091 60.72 124.255 60.4735 124.373 60.1455C124.507 59.8092 124.626 59.4564 124.731 59.0871L125.625 55.9541C125.734 55.5733 125.818 55.2106 125.879 54.8661C125.952 54.5249 125.942 54.229 125.852 53.9785C125.776 53.7197 125.559 53.5393 125.201 53.4373C124.843 53.3352 124.558 53.3724 124.346 53.5489C124.136 53.7138 123.967 53.9587 123.837 54.2834C123.718 54.6115 123.605 54.9659 123.496 55.3467L122.602 58.4798C122.497 58.849 122.406 59.21 122.331 59.5628C122.27 59.9073 122.285 60.2049 122.375 60.4554C122.466 60.7059 122.691 60.8822 123.048 60.9842ZM130.617 64.6221C130.098 64.474 129.705 64.2557 129.437 63.9674C129.182 63.6823 129.03 63.3395 128.982 62.939C128.946 62.5418 128.997 62.1008 129.135 61.6162L130.996 55.0905L129.941 54.7893L130.291 53.5603L131.347 53.8615L132.182 50.9362L134.034 51.4646L133.199 54.3899L134.809 54.8491L134.458 56.0781L132.849 55.6188L131.022 62.0233C130.91 62.4157 130.892 62.7165 130.97 62.9258C131.051 63.1236 131.27 63.2735 131.628 63.3755C131.72 63.4019 131.826 63.4257 131.944 63.4471C132.075 63.4718 132.199 63.4948 132.318 63.5162L131.928 64.8836C131.687 64.8524 131.467 64.8146 131.267 64.7702C131.065 64.7373 130.848 64.6879 130.617 64.6221ZM136.288 66.2398C135.469 66.0061 134.883 65.5646 134.532 64.9153C134.184 64.2545 134.095 63.493 134.266 62.6308L135.94 62.6029C135.852 63.2639 135.871 63.7873 135.998 64.1729C136.128 64.5471 136.407 64.795 136.834 64.9168C137.169 65.0123 137.449 64.9924 137.674 64.8571C137.904 64.7103 138.064 64.4754 138.156 64.1523C138.239 63.8638 138.249 63.586 138.188 63.319C138.127 63.052 137.987 62.7562 137.767 62.4316L136.474 60.4714C136.213 60.0726 136.014 59.654 135.877 59.2156C135.752 58.7805 135.773 58.2687 135.941 57.6802C136.092 57.1494 136.323 56.7347 136.633 56.4363C136.957 56.1295 137.336 55.9382 137.77 55.8622C138.218 55.7779 138.702 55.8099 139.221 55.958C140.017 56.1851 140.549 56.6176 140.816 57.2554C141.098 57.8849 141.165 58.5714 141.015 59.3149L139.635 59.4267C139.688 59.0674 139.704 58.7476 139.684 58.4674C139.668 58.1756 139.599 57.9375 139.476 57.7529C139.358 57.5568 139.166 57.4209 138.9 57.3452C138.6 57.2596 138.328 57.2943 138.084 57.4494C137.855 57.5962 137.701 57.808 137.622 58.085C137.573 58.2581 137.558 58.4411 137.578 58.6339C137.613 58.8185 137.699 59.0179 137.838 59.2321L139.139 61.3629C139.319 61.6513 139.477 61.952 139.612 62.2652C139.759 62.5816 139.855 62.9211 139.902 63.2837C139.948 63.6463 139.91 64.0411 139.788 64.4681C139.627 65.0335 139.377 65.4737 139.037 65.7887C138.698 66.1037 138.292 66.3 137.821 66.3776C137.353 66.4438 136.842 66.3978 136.288 66.2398ZM143.801 68.383C143.281 68.2348 142.888 68.0166 142.621 67.7282C142.365 67.4432 142.214 67.1004 142.166 66.6999C142.129 66.3026 142.18 65.8617 142.318 65.377L144.18 58.8514L143.124 58.5501L143.475 57.3212L144.531 57.6224L145.365 54.6971L147.217 55.2254L146.383 58.1507L147.992 58.61L147.642 59.8389L146.032 59.3797L144.205 65.7842C144.093 66.1766 144.076 66.4774 144.154 66.6867C144.234 66.8845 144.454 67.0344 144.811 67.1364C144.904 67.1627 145.009 67.1866 145.128 67.208C145.258 67.2327 145.383 67.2557 145.501 67.2771L145.111 68.6445C144.871 68.6133 144.65 68.5755 144.451 68.531C144.248 68.4982 144.031 68.4488 143.801 68.383ZM147.244 69.2154L150.098 59.2105L151.95 59.7388L151.545 61.1582C152.089 60.6519 152.575 60.3476 153.003 60.2453C153.432 60.1429 153.831 60.1444 154.2 60.2497C154.246 60.2629 154.286 60.2744 154.321 60.2843C154.367 60.2974 154.423 60.3197 154.489 60.351L153.907 62.3935C153.785 62.2963 153.636 62.204 153.461 62.1167C153.301 62.0212 153.129 61.9471 152.945 61.8944C152.656 61.8121 152.371 61.8057 152.089 61.875C151.822 61.9361 151.519 62.1241 151.179 62.4391L149.096 69.7437L147.244 69.2154ZM155.206 71.6365C154.814 71.5246 154.499 71.3162 154.261 71.0114C154.027 70.695 153.873 70.339 153.798 69.9435C153.727 69.5364 153.748 69.1366 153.86 68.7443C154.038 68.1211 154.291 67.6257 154.621 67.258C154.95 66.8903 155.335 66.6132 155.775 66.4268C156.23 66.2321 156.725 66.0926 157.261 66.0083C157.808 65.9273 158.377 65.8587 158.967 65.8024L159.169 65.0927C159.284 64.6888 159.357 64.3476 159.386 64.069C159.416 63.7904 159.374 63.5663 159.26 63.3965C159.161 63.2186 158.967 63.0884 158.679 63.0061C158.425 62.9337 158.201 62.9321 158.006 63.0014C157.823 63.0741 157.666 63.2101 157.534 63.4096C157.406 63.5976 157.3 63.8358 157.218 64.1243L157.075 64.6263L155.26 64.0336C155.599 62.9324 156.085 62.1913 156.718 61.8102C157.354 61.4177 158.179 61.3662 159.195 61.6559C160.187 61.939 160.814 62.411 161.075 63.0719C161.335 63.7328 161.319 64.5767 161.026 65.6037L159.723 70.1734C159.634 70.485 159.554 70.7867 159.483 71.0785C159.424 71.3735 159.37 71.6513 159.32 71.9118C159.286 72.164 159.249 72.403 159.209 72.6288L157.513 72.1449C157.531 71.9504 157.551 71.7065 157.572 71.413C157.608 71.1114 157.648 70.8419 157.69 70.6045C157.463 70.9639 157.133 71.269 156.699 71.5197C156.281 71.7622 155.783 71.8011 155.206 71.6365ZM156.387 70.2515C156.572 70.3041 156.76 70.3016 156.951 70.2438C157.142 70.186 157.319 70.1118 157.483 70.0211C157.649 69.9188 157.767 69.8339 157.836 69.7663L158.646 66.9275C158.311 67.0068 157.994 67.091 157.694 67.1801C157.394 67.2692 157.12 67.3781 156.871 67.5068C156.637 67.6272 156.429 67.7864 156.248 67.9842C156.082 68.1739 155.957 68.4129 155.875 68.7014C155.76 69.1053 155.744 69.444 155.828 69.7176C155.912 69.9912 156.099 70.1692 156.387 70.2515ZM160.57 76.5733L164.362 63.2796L166.214 63.808L165.987 64.6042C166.278 64.4129 166.606 64.2693 166.971 64.1736C167.335 64.0778 167.731 64.0908 168.158 64.2126C168.677 64.3608 169.047 64.6161 169.268 64.9787C169.504 65.333 169.638 65.7392 169.669 66.1974C169.704 66.6441 169.683 67.0875 169.608 67.5277C169.535 67.9563 169.456 68.3206 169.371 68.6206L168.68 71.0439C168.479 71.7478 168.219 72.3974 167.899 72.9926C167.583 73.5762 167.184 74.0115 166.703 74.2985C166.237 74.5773 165.674 74.6229 165.017 74.4352C164.659 74.3332 164.366 74.1561 164.139 73.904C163.914 73.6404 163.726 73.3619 163.572 73.0685L162.422 77.1016L160.57 76.5733ZM165.068 72.8775C165.391 72.9697 165.655 72.9201 165.859 72.7289C166.067 72.526 166.245 72.2276 166.395 71.8336C166.545 71.4396 166.689 71.0002 166.827 70.5156L167.519 68.0922C167.637 67.6768 167.723 67.2894 167.775 66.9301C167.831 66.5592 167.814 66.2485 167.723 65.998C167.632 65.7475 167.425 65.5761 167.102 65.4839C166.86 65.4148 166.614 65.4009 166.365 65.4422C166.117 65.4835 165.892 65.5504 165.691 65.6428L163.864 72.0473C164 72.2236 164.165 72.3892 164.358 72.544C164.554 72.6874 164.791 72.7985 165.068 72.8775Z" fill="#C5BDB4"/>
<path d="M127.92 148.047C125.141 157.689 115.749 154.74 114.749 154.452L95.4908 148.901L100.844 130.329L120.102 135.88C130.235 138.801 128.468 146.146 127.92 148.047ZM120.773 127.979C120.933 128.025 129.859 130.845 132.304 122.362C133.321 118.834 133.819 113.966 125.503 111.569L107.729 106.446L102.998 122.856L120.773 127.979ZM178.44 112.066L158.867 179.967C157.557 184.461 154.437 188.23 150.189 190.451C145.941 192.672 140.911 193.163 136.197 191.819L65.0934 171.323C60.3867 169.952 56.3899 166.858 53.9759 162.717C51.5619 158.576 50.927 153.725 52.2099 149.222L71.7823 81.322C73.0928 76.8276 76.2126 73.0585 80.4604 70.8378C84.7081 68.6171 89.7385 68.1254 94.4528 69.47L165.556 89.9657C170.263 91.3367 174.26 94.4306 176.674 98.5715C179.088 102.712 179.723 107.564 178.44 112.066ZM138.423 152.535C139.837 147.631 140.66 138.826 131.159 133.857L131.207 133.691C137.302 133.04 141.948 129.831 143.743 123.604C144.202 122.012 148.465 109.013 129.514 103.55L99.2785 94.835L82.1525 154.248C112.681 163.048 115.342 164.229 121.476 164.177C125.148 164.148 135.203 163.707 138.423 152.535Z" fill="#C5BDB4"/>
</svg>
