<svg width="77" height="77" viewBox="0 0 77 77" fill="none" xmlns="http://www.w3.org/2000/svg">
<rect width="77" height="77" rx="5" fill="white"/>
<path d="M38.675 23.357C44.7115 25.2373 49.1153 25.1878 52.0346 24.6435C49.9564 22.5159 45.998 20.1903 38.4276 19.3986C30.1644 18.5575 26.4039 21.6252 24.6721 24.5445C27.4925 22.7138 32.0446 21.2789 38.675 23.357Z" fill="black"/>
<path d="M22 29.4431C22 29.4431 27.047 21.4273 38.8727 25.4352C50.6984 29.4431 55.9928 25.4352 55.9928 25.4352C55.9928 25.4352 56.8339 37.6568 40.3571 37.6568C23.8802 37.6568 22 29.4431 22 29.4431Z" fill="black"/>
<path d="M44.6125 5C41.05 7.2266 40.1099 13.659 40.1099 13.659L40.6541 13.9064C41.8417 8.31516 47.3339 5.39584 47.3339 5.39584L44.6125 5Z" fill="black"/>
<path d="M47.8288 20.1904C47.8288 19.943 47.8783 19.7451 47.8783 19.4977C47.8783 14.8466 44.1178 11.0366 39.4172 11.0366C35.5083 11.0366 32.2426 13.6591 31.3025 17.2711C35.4588 16.7763 42.485 16.6279 47.8288 20.1904Z" fill="black"/>
<path opacity="0.1" d="M47.8781 19.4976C47.8781 16.9246 46.7401 14.5991 44.9093 13.0652C42.9796 14.5496 39.0707 16.4793 32.4898 14.7475C31.995 15.4897 31.5992 16.3309 31.3518 17.271C35.5081 16.7762 42.5838 16.6277 47.8781 20.1903C47.8287 19.9924 47.8781 19.745 47.8781 19.4976Z" fill="#414042"/>
<path opacity="0.3" d="M40.2091 12.6693C40.407 13.461 39.071 13.9063 37.6361 14.2032C36.2507 14.5495 35.3105 14.6485 35.1126 13.8568C34.9147 13.0651 35.9043 12.1745 37.2897 11.8281C38.7247 11.5313 40.0111 11.9271 40.2091 12.6693Z" fill="black"/>
<path opacity="0.1" d="M48.7687 27.2165C44.1176 29.5421 34.9638 32.5109 22.4453 28.8493C22.1484 29.1957 22 29.4431 22 29.4431C22 29.4431 23.8802 37.6568 40.3571 37.6568C56.8339 37.6568 55.9928 25.3857 55.9928 25.3857C55.9928 25.3857 53.7167 27.167 48.7687 27.2165Z" fill="#414042"/>
<path opacity="0.3" d="M35.7554 27.2166C35.7059 28.2557 34.1225 28.4042 32.4402 28.3547C30.7579 28.3052 29.7188 28.1567 29.7683 27.0682C29.8178 26.0291 31.1537 25.1879 32.8361 25.2374C34.4689 25.2374 35.8049 26.1281 35.7554 27.2166Z" fill="black"/>
<path d="M20.6009 40.0212C20.6009 40.0212 20.673 40.0934 20.7452 40.0934C20.8174 40.0934 20.9618 40.1656 21.034 40.2378C21.6837 39.949 22.2611 39.7325 22.7665 39.5881C23.2718 39.4437 23.7771 39.2994 24.2824 39.2272C24.4989 39.155 24.7155 39.155 24.9321 39.155C25.1486 39.155 25.3652 39.155 25.6539 39.155C26.8089 39.155 27.7474 39.3716 28.4692 39.8047C29.1911 40.2378 29.552 40.8875 29.552 41.6093C29.552 42.3312 29.2633 42.9087 28.6858 43.3418C28.1083 43.8471 27.3864 44.0637 26.5924 44.0637C26.087 44.0637 25.4374 43.9915 24.7877 43.7749C24.138 43.5584 23.344 43.1975 22.3333 42.7643C21.6837 43.2696 21.1062 43.9193 20.7452 44.6412C20.3843 45.3631 20.1677 46.0849 20.0955 46.8068V46.879V46.9512C20.0955 47.6008 20.2399 48.1062 20.6009 48.5393C20.9618 48.9002 21.3949 49.1168 21.9724 49.1168C22.4777 49.1168 22.8386 48.9724 23.1996 48.6837C23.5605 48.3949 23.7049 48.034 23.7049 47.673C23.7049 47.3843 23.6327 47.1677 23.4161 47.0234C23.1996 46.879 22.983 46.7346 22.6943 46.7346C22.6221 46.7346 22.6221 46.7346 22.6221 46.7346H22.5499H22.4777H22.4055C22.3333 46.7346 22.2611 46.7346 22.189 46.8068C22.1168 46.8068 22.1168 46.8068 22.0446 46.8068C21.9002 46.8068 21.828 46.7346 21.6837 46.6624C21.5393 46.5902 21.5393 46.4459 21.5393 46.3015C21.5393 46.2293 21.5393 46.2293 21.5393 46.1571C21.5393 46.0849 21.6115 46.0127 21.6115 45.9406C21.7558 45.6518 22.1168 45.2909 22.6221 45.0021C23.1274 44.7134 23.7049 44.4968 24.2824 44.4246C24.4268 44.4246 24.4989 44.4246 24.6433 44.3524C24.7877 44.2803 24.8599 44.3524 25.0042 44.3524C25.9427 44.3524 26.6645 44.6412 27.242 45.1465C27.8195 45.724 28.1083 46.3737 28.1083 47.2399C28.1083 48.828 27.4586 50.2718 26.1592 51.4267C24.8599 52.5817 23.2718 53.1592 21.4671 53.1592C20.4565 53.1592 19.518 53.0149 18.7962 52.6539C18.0743 52.293 17.4246 51.7877 16.9193 51.138C16.5584 50.6327 16.2696 50.1274 16.1253 49.5499C15.9087 48.9724 15.8365 48.3949 15.8365 47.7452C15.8365 46.6624 16.1253 45.5074 16.7028 44.4246C17.2803 43.3418 18.0743 42.3312 19.1571 41.3206C18.8684 41.2484 18.5796 41.1762 18.4352 41.1762C18.2187 41.104 18.0021 41.104 17.7856 41.104C17.7134 41.104 17.6412 41.104 17.569 41.104C17.4968 41.104 17.4246 41.104 17.3524 41.104C16.7749 41.104 16.3418 41.1762 16.0531 41.3928C15.6921 41.6093 15.5478 41.8259 15.5478 42.1868C15.5478 42.1868 15.5478 42.1868 15.5478 42.259C15.5478 42.3312 15.5478 42.259 15.5478 42.3312C15.5478 42.4756 15.62 42.5478 15.6921 42.62C15.7643 42.6921 15.8365 42.7643 15.9809 42.7643L16.7028 42.6921C16.7028 42.6921 16.7028 42.6921 16.7749 42.6921C16.8471 42.6921 16.9193 42.7643 16.9915 42.8365C17.0637 42.9087 17.0637 42.9809 17.0637 43.1253C17.0637 43.4862 16.7749 43.8471 16.1253 44.1359C15.4756 44.4246 14.8259 44.569 14.104 44.6412C13.1656 44.6412 12.4437 44.3524 11.8662 43.8471C11.2888 43.2696 11 42.62 11 41.7537C11 40.6709 11.4331 39.8047 12.2994 39.0828C13.1656 38.3609 14.1762 38 15.4034 38C15.5478 38 15.7643 38 15.9087 38C16.0531 38 16.2696 38 16.414 38.0722C16.7749 38.1444 17.0637 38.2166 17.4246 38.3609C17.7856 38.5053 18.2187 38.6497 18.6518 38.8662C18.724 38.9384 18.7962 38.9384 18.7962 38.9384C18.7962 38.9384 18.8684 38.9384 18.8684 39.0106C18.9406 39.0106 19.0127 39.0828 19.0849 39.0828C19.1571 39.155 19.4459 39.2994 19.8068 39.4437L20.3843 39.7325L20.6009 40.0212ZM25.2208 41.9703C25.5096 42.0425 25.7261 42.1146 25.9427 42.1146H26.0149C26.0149 42.1146 26.0149 42.1146 26.0871 42.1146C26.3036 42.1146 26.448 42.0425 26.5924 41.9703C26.7367 41.8981 26.8089 41.7537 26.8089 41.6093C26.8089 41.465 26.7367 41.3206 26.5924 41.1762C26.448 41.104 26.2314 41.0318 26.0149 41.0318C25.9427 41.0318 25.7983 41.0318 25.7261 41.0318C25.6539 41.0318 25.5096 41.0318 25.4374 41.0318C25.293 41.0318 25.0764 41.104 24.8599 41.1762C24.6433 41.2484 24.3546 41.3206 24.0658 41.465C24.4989 41.7537 24.9321 41.8981 25.2208 41.9703Z" fill="black"/>
<path d="M36.9871 48.3226C36.9149 48.467 36.9149 48.6113 36.9149 48.7557C36.9149 48.9001 36.9149 48.9723 36.9149 49.0444C36.9149 49.1888 36.9871 49.261 37.0593 49.4054C37.1315 49.5498 37.2758 49.5498 37.4924 49.5498C37.5646 49.5498 37.5646 49.5498 37.6368 49.5498C37.709 49.5498 37.709 49.5498 37.7811 49.5498H37.8533H37.9255C37.9977 49.4776 38.1421 49.4776 38.2143 49.4776C38.2865 49.4776 38.3586 49.4776 38.4308 49.4776C38.503 49.4776 38.5752 49.4776 38.6474 49.5498C38.7196 49.6219 38.7196 49.6941 38.7196 49.7663C38.7196 49.8385 38.7196 49.9829 38.6474 50.1272C38.5752 50.2716 38.503 50.3438 38.3586 50.4882C38.2865 50.5604 38.2865 50.5604 38.2865 50.5604L38.2143 50.6326C37.9977 50.8491 37.709 51.0657 37.4202 51.2101C37.1315 51.3544 36.8427 51.4988 36.554 51.571C36.4096 51.6432 36.2652 51.6432 36.0487 51.6432C35.9043 51.6432 35.7599 51.7154 35.5434 51.7154C35.1102 51.7154 34.6771 51.571 34.3884 51.2822C34.0996 50.9935 33.9552 50.6326 33.9552 50.1994C33.9552 50.1272 33.9552 50.0551 33.9552 49.9829C33.9552 49.9107 33.9552 49.8385 33.9552 49.7663C33.7387 50.0551 33.5221 50.2716 33.4499 50.416C33.3777 50.5604 33.2334 50.7047 33.089 50.7769C33.089 50.7769 33.089 50.7769 33.0168 50.8491C33.0168 50.8491 33.0168 50.8491 32.9446 50.9213C32.9446 50.9935 32.8724 50.9935 32.8724 50.9935L32.8003 51.0657C32.6559 51.2101 32.5115 51.3544 32.3671 51.4266C32.2228 51.4988 32.0062 51.6432 31.8618 51.6432C31.7175 51.7154 31.6453 51.7154 31.5009 51.7154C31.3565 51.7154 31.2843 51.7875 31.14 51.7875C30.5625 51.7875 30.1293 51.571 29.7684 51.0657C29.4075 50.6326 29.1909 49.9829 29.1909 49.261C29.1909 47.9616 29.624 46.8067 30.4903 45.7239C31.3565 44.641 32.3671 44.1357 33.3778 44.1357C33.7387 44.1357 34.0996 44.2079 34.3884 44.3523C34.6771 44.4967 34.9659 44.7132 35.2546 45.002C35.6155 44.7854 35.9043 44.5689 36.0487 44.4967C36.2652 44.4245 36.4096 44.2801 36.6262 44.2801C36.6983 44.2801 36.7705 44.2801 36.7705 44.2801C36.8427 44.2801 36.9149 44.2801 36.9871 44.2801C37.2758 44.2801 37.4202 44.3523 37.5646 44.4967C37.709 44.6411 37.7811 44.7854 37.7811 45.002C37.7811 45.0742 37.7811 45.0742 37.7811 45.1464C37.7811 45.2185 37.7811 45.2907 37.709 45.3629L36.9871 48.3226ZM33.0168 46.3735C32.8003 46.6623 32.6559 46.951 32.6559 47.2398C32.6559 47.4563 32.7281 47.6007 32.8003 47.7451C32.9446 47.8895 33.089 47.9616 33.3056 47.9616C33.5943 47.9616 33.8109 47.8173 34.0274 47.5285C34.244 47.2398 34.3162 46.951 34.3884 46.6623C34.3884 46.5179 34.3162 46.3735 34.244 46.2292C34.1718 46.157 34.0274 46.0848 33.8109 46.0848C33.5221 46.0126 33.3056 46.157 33.0168 46.3735Z" fill="black"/>
<path d="M38.72 51.8597L39.9471 46.3735C39.9471 46.2292 40.0193 46.0848 40.0193 45.9404C40.0193 45.796 40.0193 45.7239 40.0193 45.6517C40.0193 45.5073 40.0193 45.3629 39.9471 45.2907C39.875 45.2186 39.8028 45.0742 39.5862 45.002C40.0915 44.6411 40.5246 44.3523 40.9578 44.2079C41.3909 44.0636 41.7518 43.9192 42.1849 43.9192C42.5459 43.9192 42.8346 43.9914 43.0512 44.2079C43.2677 44.3523 43.3399 44.6411 43.3399 45.002C43.7731 44.6411 44.2062 44.3523 44.6393 44.2079C45.0724 44.0636 45.5055 43.9192 45.9387 43.9192C46.444 43.9192 46.8771 44.0636 47.1658 44.3523C47.4546 44.6411 47.6711 45.002 47.6711 45.5073C47.6711 45.5795 47.6711 45.6517 47.6711 45.7239C47.6711 45.796 47.6711 45.8682 47.6711 45.9404V46.0126V46.0848L47.0936 48.467C47.0936 48.6113 47.0215 48.6835 47.0215 48.7557C47.0215 48.8279 47.0215 48.9001 47.0215 48.9723C47.0215 49.1166 47.0936 49.261 47.1658 49.3332C47.238 49.4054 47.4546 49.4776 47.599 49.4776C47.6711 49.4776 47.7433 49.4776 47.8155 49.4776C47.8877 49.4776 47.9599 49.4776 47.9599 49.4054C48.1043 49.3332 48.1764 49.3332 48.2486 49.3332C48.3208 49.3332 48.393 49.261 48.4652 49.261C48.5374 49.261 48.6096 49.261 48.6818 49.3332C48.7539 49.4054 48.7539 49.4776 48.7539 49.5498C48.7539 49.6941 48.6818 49.9107 48.4652 50.1273C48.3208 50.3438 48.0321 50.5604 47.7433 50.7769C47.4546 50.9935 47.1658 51.1379 46.8049 51.2101C46.444 51.3544 46.1552 51.4266 45.7943 51.4266C45.7221 51.4266 45.7221 51.4266 45.6499 51.4266C45.5777 51.4266 45.5055 51.4266 45.5055 51.4266C44.928 51.4266 44.4949 51.2822 44.2062 50.9935C43.9174 50.7048 43.7009 50.3438 43.7009 49.8385C43.7009 49.7663 43.7009 49.7663 43.7009 49.6941C43.7009 49.6219 43.7009 49.622 43.7009 49.5498C43.7009 49.5498 43.7009 49.5498 43.7009 49.4776V49.4054L44.134 47.3842C44.134 47.3842 44.134 47.3842 44.134 47.312C44.134 47.2398 44.134 47.312 44.134 47.2398C44.134 47.1676 44.134 47.0954 44.134 47.0232C44.134 46.951 44.134 46.951 44.134 46.8789C44.134 46.7345 44.0618 46.5901 43.9896 46.5179C43.9174 46.4457 43.7731 46.3735 43.6287 46.3735C43.4121 46.3735 43.1956 46.4457 42.979 46.6623C42.8346 46.8789 42.6902 47.1676 42.5459 47.5285L42.0406 49.8385C41.9684 50.1994 41.7518 50.5604 41.5353 50.7769C41.3187 50.9935 41.0299 51.1379 40.669 51.1379H39.875C39.6584 51.1379 39.4418 51.1379 39.2975 51.2101C39.1531 51.2101 39.0087 51.2822 38.8643 51.4266C38.7922 51.4266 38.7922 51.4988 38.72 51.4988C38.7922 51.7876 38.7922 51.7876 38.72 51.8597Z" fill="black"/>
<path d="M55.3948 41.6815C55.3948 41.6093 55.3948 41.6093 55.3948 41.5371C55.3948 41.4649 55.3948 41.4649 55.3948 41.4649C55.3948 41.3927 55.3948 41.3205 55.3948 41.3205C55.3948 41.3205 55.3948 41.2484 55.3948 41.1762C55.3948 41.104 55.3948 40.9596 55.3948 40.8874C55.3948 40.8152 55.3226 40.7431 55.3226 40.6709C55.2505 40.5987 55.2505 40.5987 55.1783 40.5265C55.1061 40.4543 55.0339 40.4543 54.9617 40.3821C55.3948 40.0934 55.7558 39.8768 56.0445 39.6603C56.3333 39.5159 56.622 39.3715 56.9108 39.3715C56.9829 39.3715 57.1273 39.2993 57.1995 39.2993C57.2717 39.2993 57.4161 39.2993 57.4883 39.2993C57.8492 39.2993 58.1379 39.3715 58.3545 39.5881C58.5711 39.7324 58.6432 40.0212 58.6432 40.3821C58.6432 40.4543 58.6432 40.4543 58.6432 40.4543V40.5265V40.5987V40.6709L56.9829 48.3227C56.9829 48.3227 56.9829 48.3227 56.9829 48.3949V48.467C56.9829 48.5392 56.9829 48.6114 56.9829 48.6836C56.9829 48.7558 56.9829 48.828 56.9829 48.9002C56.9829 49.0445 57.0551 49.1889 57.1273 49.3333C57.1995 49.4777 57.3439 49.4777 57.4883 49.4777C57.5604 49.4777 57.5604 49.4777 57.6326 49.4777H57.7048H57.777H57.8492C57.9936 49.4055 58.0657 49.4055 58.1379 49.4055C58.2101 49.4055 58.2823 49.3333 58.3545 49.3333C58.4267 49.3333 58.4989 49.3333 58.5711 49.4055C58.6432 49.4777 58.6432 49.5498 58.6432 49.622C58.6432 49.8386 58.5711 49.983 58.4267 50.1995C58.2823 50.4161 57.9936 50.6326 57.7048 50.8492C57.5604 50.9936 57.3439 51.0658 57.1995 51.138C56.983 51.2101 56.8386 51.2823 56.622 51.3545C56.4055 51.4267 56.2611 51.4267 56.0445 51.4989C55.828 51.5711 55.6836 51.5711 55.467 51.5711C54.9617 51.5711 54.6008 51.4267 54.312 51.138C54.0233 50.8492 53.8789 50.4883 53.8789 50.0552V49.983V49.9108C53.8789 49.8386 53.8789 49.8386 53.8789 49.7664C53.8789 49.6942 53.8789 49.6942 53.8789 49.622C53.518 50.0552 53.2292 50.4161 52.9405 50.7048C52.6517 50.9936 52.363 51.2101 52.0742 51.3545C51.9299 51.4267 51.7133 51.4989 51.5689 51.4989C51.4246 51.5711 51.208 51.5711 51.0636 51.5711C50.4861 51.5711 49.9808 51.3545 49.6921 50.9214C49.3311 50.4883 49.1868 49.8386 49.1868 49.1167C49.1868 47.8174 49.6199 46.5902 50.4861 45.5796C51.3524 44.569 52.2908 44.0636 53.3736 44.0636C53.6624 44.0636 53.9511 44.0636 54.1677 44.1358C54.3842 44.208 54.6008 44.2802 54.7452 44.4246C54.7452 44.4246 54.8173 44.4246 54.8173 44.4968C54.8173 44.4968 54.8895 44.4968 54.8895 44.569L55.3948 41.6815ZM52.9405 46.3736C52.7239 46.6624 52.5795 47.0233 52.5795 47.3842C52.5795 47.6008 52.6517 47.7452 52.7961 47.8895C52.9405 48.0339 53.0849 48.1061 53.2292 48.1061C53.518 48.1061 53.7345 47.9617 53.9511 47.673C54.1677 47.3842 54.312 47.0955 54.312 46.8067C54.312 46.8067 54.312 46.8067 54.312 46.7346C54.312 46.7346 54.312 46.7346 54.312 46.6624C54.312 46.4458 54.2398 46.3014 54.1677 46.1571C54.0233 46.0127 53.9511 45.9405 53.7345 45.9405C53.4458 45.9405 53.157 46.0849 52.9405 46.3736Z" fill="black"/>
<path d="M66.4395 50.5605C66.1507 52.0043 65.5011 53.1593 64.4904 54.0255C63.4798 54.8918 62.3248 55.3249 61.0255 55.3249C60.2314 55.3249 59.5817 55.1083 59.1486 54.7474C58.6433 54.3864 58.4268 53.8811 58.4268 53.3036C58.4268 52.9427 58.4989 52.654 58.6433 52.4374C58.7877 52.2208 59.0043 51.9321 59.293 51.7155C59.3652 51.6433 59.4374 51.6433 59.5096 51.5712C59.5817 51.499 59.6539 51.499 59.7261 51.4268C59.7983 51.7877 60.0149 52.0765 60.2314 52.293C60.448 52.5096 60.8089 52.5818 61.1699 52.5818C61.6752 52.5818 62.1083 52.3652 62.5414 52.0043C62.9745 51.6433 63.2633 51.138 63.4076 50.4884C62.9745 50.7771 62.6136 50.9937 62.3248 51.138C62.0361 51.2824 61.6752 51.3546 61.3864 51.4268C61.3142 51.4268 61.242 51.4268 61.1699 51.4268C61.0977 51.4268 61.0255 51.4268 60.9533 51.4268C60.448 51.4268 60.0149 51.2824 59.6539 50.9937C59.293 50.7049 59.1486 50.2718 59.1486 49.7665C59.1486 49.6943 59.1486 49.6221 59.1486 49.5499C59.1486 49.4777 59.1486 49.3334 59.2208 49.2612C59.2208 49.189 59.2208 49.189 59.2208 49.1168C59.2208 49.0446 59.2208 49.0446 59.2208 48.9724L59.7983 46.1571V46.085V46.0128C59.7983 45.9406 59.7983 45.9406 59.7983 45.8684C59.7983 45.7962 59.7983 45.7962 59.7983 45.724C59.7983 45.6518 59.7983 45.5797 59.7983 45.5075C59.7983 45.4353 59.7983 45.3631 59.7261 45.2909C59.7261 45.2187 59.6539 45.2187 59.5817 45.1465C59.5096 45.0743 59.4374 45.0022 59.3652 44.93C59.7983 44.6412 60.1592 44.3525 60.5202 44.2081C60.8811 44.0637 61.1699 43.9194 61.4586 43.8472C61.5308 43.8472 61.603 43.8472 61.7473 43.8472C61.8917 43.8472 61.8917 43.8472 62.0361 43.8472C62.3248 43.8472 62.6136 43.9194 62.8301 44.1359C63.0467 44.2803 63.1189 44.569 63.1189 44.8578C63.1189 44.93 63.1189 45.0022 63.1189 45.0743C63.1189 45.1465 63.1189 45.2187 63.0467 45.3631L62.5414 47.8174C62.5414 47.8896 62.4692 47.9618 62.4692 48.034C62.4692 48.1062 62.4692 48.1784 62.4692 48.2506C62.4692 48.3949 62.4692 48.5393 62.6136 48.6115C62.758 48.6837 62.8302 48.7559 62.9745 48.7559C63.2633 48.7559 63.4076 48.6837 63.6242 48.4671C63.7686 48.3228 63.913 48.034 63.9851 47.6009L64.3461 46.2293V46.1571V46.085C64.3461 46.0128 64.3461 45.9406 64.3461 45.8684C64.3461 45.7962 64.3461 45.724 64.3461 45.724C64.3461 45.5797 64.3461 45.5075 64.2739 45.4353C64.2739 45.3631 64.2017 45.2909 64.1295 45.2187L64.0573 45.1465L63.9851 45.0743C64.4183 44.7134 64.8514 44.4247 65.2845 44.2803C65.7176 44.1359 66.0786 43.9915 66.4395 43.9915C66.8004 43.9915 67.017 44.0637 67.2336 44.2081C67.4501 44.3525 67.5223 44.569 67.5945 44.8578C67.5945 44.93 67.5945 45.0022 67.5945 45.0743C67.5945 45.1465 67.5945 45.2187 67.5223 45.2909L66.4395 50.5605Z" fill="black"/>
<path d="M23.4155 55.6136C24.0652 55.397 24.7871 55.3248 25.4367 55.3248C26.5195 55.3248 27.458 55.5414 28.1798 56.0467C28.9017 56.552 29.2626 57.1295 29.2626 57.8513C29.2626 58.501 28.9739 59.0785 28.3964 59.4395C27.8189 59.8726 27.0248 60.017 26.0864 60.017C25.942 60.017 25.7977 60.017 25.6533 60.017C25.5089 60.017 25.3645 60.017 25.2924 60.017C25.0036 59.9448 24.6427 59.8726 24.2817 59.7282C23.9208 59.5838 23.4155 59.3673 22.7658 59.0785C22.7658 59.1507 22.7658 59.2229 22.7658 59.2229C22.7658 59.2951 22.7658 59.2951 22.7658 59.3673C22.7658 59.5116 22.838 59.7282 22.9824 59.9448C23.1268 60.1613 23.3433 60.3057 23.5599 60.5223H23.6321C23.6321 60.5223 23.7042 60.5944 23.9208 60.6666C24.0652 60.7388 24.5705 61.0276 25.4367 61.5329C26.1586 61.966 26.6639 62.4713 27.0248 62.9766C27.3858 63.4819 27.5302 64.0594 27.5302 64.7813C27.5302 66.2972 26.8805 67.5244 25.5811 68.3906C24.2817 69.3291 22.6214 69.7622 20.528 69.7622C18.7234 69.7622 17.2796 69.4012 16.1968 68.6072C15.114 67.8131 14.5365 67.0191 14.5365 65.7919C14.5365 64.7813 14.9696 63.915 15.7637 63.1932C16.5577 62.4713 17.5684 62.1104 18.7234 62.1104C18.7955 62.1104 18.7955 62.1104 18.7955 62.1104H18.8677C19.5174 62.1826 20.0949 62.3269 20.6724 62.6157C21.2499 62.9044 21.5386 63.1932 21.5386 63.5541C21.5386 63.6263 21.5386 63.6263 21.5386 63.6985C21.5386 63.7707 21.5386 63.7707 21.4665 63.7707C21.4665 63.8429 21.3943 63.8429 21.3221 63.915C21.2499 63.9872 21.1055 64.0594 20.9612 64.1316C20.8168 64.2038 20.7446 64.276 20.6724 64.4203C20.6002 64.5647 20.528 64.7091 20.528 64.8535C20.528 65.1422 20.6724 65.3588 20.889 65.5753C21.1777 65.7919 21.4665 65.8641 21.8274 65.8641C22.2605 65.8641 22.6214 65.7197 22.9102 65.5032C23.1989 65.2866 23.3433 64.9978 23.3433 64.6369C23.3433 64.5647 23.3433 64.4204 23.3433 64.3482C23.3433 64.276 23.2711 64.1316 23.2711 64.0594C23.1989 63.8429 22.9824 63.6985 22.7658 63.4819C22.5493 63.2654 22.1883 63.0488 21.7552 62.7601C21.3943 62.5435 21.1055 62.2547 20.8168 62.0382C20.528 61.8216 20.3115 61.6051 20.1671 61.3885C19.9505 61.0998 19.8062 60.8832 19.6618 60.5944C19.5174 60.3057 19.5896 60.0891 19.5896 59.8004C19.5896 59.7282 19.5896 59.5838 19.5896 59.5116C19.5896 59.4395 19.5896 59.3673 19.5896 59.2951C19.6618 59.1507 19.6618 58.9342 19.734 58.7176C19.8062 58.501 19.9505 58.2845 20.0949 57.9957C19.8062 57.8513 19.5174 57.7792 19.3009 57.707C19.0843 57.6348 18.9399 57.6348 18.7234 57.6348C18.4346 57.6348 18.1459 57.707 17.9293 57.9235C17.7127 58.1401 17.5684 58.3567 17.5684 58.5732C17.5684 58.862 17.6406 59.0785 17.8571 59.2229C18.0015 59.3673 18.2902 59.5116 18.579 59.5116C18.7234 59.5116 18.8677 59.5838 18.9399 59.5838C19.0121 59.5838 19.0121 59.7282 19.0843 59.8726C19.0843 60.1613 18.8677 60.4501 18.3624 60.6666C17.8571 60.8832 17.2796 61.0276 16.5578 61.0276C15.475 61.0276 14.5365 60.7388 13.8868 60.1613C13.2372 59.5838 12.8762 58.862 12.8762 57.9235C12.8762 57.0573 13.2372 56.2632 13.959 55.6857C14.6809 55.1082 15.5471 54.7473 16.5578 54.7473C16.6299 54.7473 16.7021 54.7473 16.7743 54.7473C16.8465 54.7473 16.9187 54.7473 16.9909 54.7473C17.3518 54.7473 17.7849 54.8917 18.218 54.9639C18.6512 55.0361 19.2287 55.3248 19.9505 55.6136C20.1671 55.6857 20.3837 55.8301 20.528 55.9023C20.6724 55.9745 20.8168 56.0467 20.9612 56.1189C20.9612 56.1189 21.0333 56.1189 21.0333 56.1911C21.0333 56.1911 21.1055 56.1911 21.1055 56.2632C21.1777 56.3354 21.2499 56.3354 21.3221 56.4076C21.3943 56.4798 21.4665 56.4798 21.5386 56.552C22.1161 56.1189 22.7658 55.8301 23.4155 55.6136ZM25.148 58.2123C25.4367 58.2845 25.6533 58.3567 25.7977 58.3567C25.942 58.3567 26.0864 58.2845 26.1586 58.2123C26.2308 58.1401 26.303 57.9957 26.303 57.9235C26.303 57.7792 26.2308 57.6348 26.0142 57.5626C25.7977 57.4904 25.6533 57.346 25.3645 57.346C25.2202 57.346 25.148 57.346 25.0758 57.346C25.0036 57.346 24.8592 57.4182 24.787 57.4182C24.7149 57.4904 24.5705 57.4904 24.4261 57.5626C24.2817 57.6348 24.2096 57.707 24.0652 57.7792C24.4983 57.9957 24.8592 58.0679 25.148 58.2123Z" fill="black"/>
<path d="M28.3962 68.1741L30.634 57.9236C30.634 57.7792 30.7062 57.707 30.7062 57.5626C30.7062 57.4183 30.7062 57.4183 30.7062 57.3461C30.7062 57.2017 30.7062 57.0573 30.634 56.9852C30.5618 56.913 30.4897 56.8408 30.2731 56.7686C30.4897 56.552 30.7062 56.4077 30.995 56.2633C31.2837 56.1189 31.5003 55.9745 31.789 55.9024C32.0056 55.8302 32.15 55.758 32.3665 55.758C32.5831 55.6858 32.7275 55.6858 32.8718 55.6858C33.2328 55.6858 33.4493 55.758 33.6659 55.9745C33.8824 56.1189 33.9546 56.4077 33.9546 56.6964V56.7686C33.9546 56.8408 33.9546 56.8408 33.9546 56.913C33.9546 56.913 33.9546 56.913 33.9546 56.9852V57.0573L33.0162 61.3885C33.5215 61.0998 33.8824 60.8111 34.1712 60.6667C34.4599 60.5223 34.6765 60.3779 34.8931 60.3779C35.0374 60.3779 35.1096 60.3057 35.254 60.3057C35.3262 60.3057 35.4706 60.3057 35.6149 60.3057C36.1202 60.3057 36.5534 60.4501 36.9143 60.7389C37.2752 61.0276 37.4196 61.3886 37.4196 61.8217C37.4196 61.8939 37.4196 61.966 37.4196 62.1104C37.4196 62.1826 37.4196 62.2548 37.4196 62.327V62.3992V62.4714L36.9143 64.7091C36.9143 64.8535 36.8421 64.9257 36.8421 65.0701C36.8421 65.2145 36.8421 65.2866 36.8421 65.3588C36.8421 65.5032 36.9143 65.6476 36.9865 65.7919C37.1308 65.9363 37.2752 65.9363 37.4196 65.9363H37.4918H37.564H37.6362H37.7083C37.8527 65.8641 37.9249 65.8641 37.9971 65.7919C38.0693 65.7919 38.1415 65.7198 38.2137 65.7198C38.2858 65.7198 38.358 65.7198 38.4302 65.7919C38.5024 65.8641 38.5024 65.9363 38.5024 66.0085C38.5024 66.1529 38.4302 66.2973 38.2858 66.4416C38.1415 66.586 37.9971 66.8026 37.7805 67.0191C37.7083 67.0191 37.7083 67.0913 37.7083 67.0913L37.6362 67.1635C37.3474 67.3801 37.1309 67.5244 36.8421 67.5966C36.5534 67.741 36.2646 67.8132 35.9759 67.8132C35.9037 67.8132 35.7593 67.8854 35.6871 67.8854C35.6149 67.8854 35.4706 67.8854 35.3984 67.8854C34.8931 67.8854 34.3877 67.741 34.099 67.4522C33.7381 67.1635 33.5937 66.8026 33.5937 66.2973C33.5937 66.2251 33.5937 66.1529 33.5937 66.0807C33.5937 66.0085 33.5937 65.9363 33.5937 65.8641L34.0268 63.8429C34.0268 63.7707 34.0268 63.6985 34.0268 63.6263C34.0268 63.5542 34.0268 63.482 34.0268 63.482C34.0268 63.3376 33.9546 63.1932 33.8824 63.121C33.8103 63.0488 33.6659 62.9767 33.5215 62.9767C33.2328 62.9767 33.0162 63.121 32.7996 63.3376C32.6553 63.5542 32.5109 63.9151 32.3665 64.4204L31.9334 66.586C31.8612 66.9469 31.7168 67.2357 31.4281 67.4522C31.2115 67.6688 30.8506 67.741 30.4897 67.741H29.84C29.6956 67.741 29.6234 67.741 29.479 67.741C29.3347 67.741 29.2625 67.8132 29.1181 67.8132C29.0459 67.8854 28.9016 67.8854 28.8294 67.9576C28.6128 68.0297 28.4684 68.1019 28.3962 68.1741Z" fill="black"/>
<path d="M45.5773 61.1722C46.1548 61.7496 46.4436 62.4715 46.4436 63.4099C46.4436 64.6371 46.0104 65.7199 45.1442 66.5862C44.278 67.4524 43.1951 67.8855 41.8958 67.8855C40.9574 67.8855 40.2355 67.5968 39.658 67.0193C39.0805 66.4418 38.7917 65.7199 38.7917 64.7815C38.7917 63.5543 39.2249 62.4715 40.1633 61.6053C41.0295 60.739 42.1123 60.3059 43.4117 60.3059C44.2779 60.3059 44.9998 60.5947 45.5773 61.1722ZM42.3289 62.6159C42.1123 62.9046 42.0402 63.1934 42.0402 63.4821C42.0402 63.6987 42.1123 63.9153 42.2567 64.0596C42.4011 64.204 42.5455 64.2762 42.762 64.2762C43.0508 64.2762 43.2673 64.1318 43.4839 63.9152C43.7005 63.6987 43.7726 63.3378 43.7726 62.9768C43.7726 62.7603 43.7005 62.5437 43.5561 62.3993C43.4117 62.255 43.2673 62.1828 43.0508 62.1828C42.762 62.255 42.4733 62.3271 42.3289 62.6159Z" fill="black"/>
<path d="M45.9375 72L48.3919 61.2441C48.3919 61.0998 48.464 61.0276 48.464 60.8832C48.464 60.7388 48.464 60.6666 48.464 60.6666C48.464 60.5945 48.464 60.5223 48.3919 60.4501C48.3919 60.3779 48.3197 60.3057 48.2475 60.2335C48.1753 60.1613 48.1753 60.1613 48.1031 60.1613C48.0309 60.1613 48.0309 60.0892 47.9587 60.0892C48.3197 59.8004 48.6084 59.5838 48.8972 59.4395C49.1859 59.2951 49.4747 59.1507 49.7634 59.0785C49.9078 59.0063 49.98 59.0063 50.1243 59.0063C50.2687 59.0063 50.3409 59.0063 50.4853 59.0063C50.8462 59.0063 51.135 59.0785 51.3515 59.2229C51.5681 59.3673 51.6403 59.5838 51.6403 59.8726C51.6403 59.9448 51.6403 60.017 51.6403 60.0892C51.6403 60.1613 51.6403 60.2335 51.5681 60.3057L51.4237 61.0276C51.6403 60.8832 51.8568 60.7388 52.0012 60.6666C52.2178 60.5945 52.3621 60.5223 52.5787 60.4501C52.7231 60.3779 52.7952 60.3779 52.9396 60.3779C53.084 60.3779 53.1562 60.3779 53.3006 60.3779C53.9502 60.3779 54.5277 60.5945 54.9609 61.0998C55.394 61.6051 55.6105 62.1826 55.6105 62.9766C55.6105 64.3482 55.2496 65.5032 54.5277 66.5138C53.8059 67.5244 52.9396 68.0297 51.929 68.0297C51.5681 68.0297 51.2793 67.9575 50.9906 67.8853C50.7018 67.741 50.4853 67.5966 50.1965 67.3078C50.1243 67.3078 50.1243 67.2356 50.1243 67.2356C50.1243 67.1635 50.0521 67.1635 50.0521 67.0913L49.3303 70.1953C49.2581 70.7006 49.0415 70.9894 48.825 71.2059C48.6084 71.4225 48.2475 71.4947 47.8865 71.4947H47.0925C46.9481 71.4947 46.8759 71.4947 46.8037 71.4947C46.7316 71.4947 46.6594 71.5669 46.5872 71.5669C46.515 71.639 46.3706 71.639 46.2984 71.7834C46.2262 71.7834 46.0819 71.8556 45.9375 72ZM51.929 62.2548C51.8568 62.2548 51.8568 62.2548 51.929 62.2548C51.6403 62.3269 51.4237 62.4713 51.2071 62.6879C50.9906 62.9766 50.9184 63.1932 50.9184 63.5541C50.9184 63.7707 50.9906 63.9151 51.135 64.0594C51.2793 64.2038 51.4237 64.276 51.6403 64.276C51.929 64.276 52.1456 64.1316 52.3621 63.8429C52.5787 63.5541 52.6509 63.2654 52.6509 62.9044C52.6509 62.6879 52.5787 62.5435 52.5065 62.3991C52.3621 62.2548 52.2178 62.1826 52.0734 62.1826C51.929 62.2548 51.929 62.2548 51.929 62.2548Z" fill="black"/>
<path d="M62.469 60.7387C63.0465 61.0275 63.3352 61.4606 63.3352 61.8937C63.3352 62.1103 63.263 62.3268 63.0465 62.5434C62.8299 62.7599 62.6134 62.8321 62.3968 62.8321C62.3246 62.8321 62.3246 62.8321 62.2524 62.8321C62.1802 62.8321 62.1802 62.8321 62.108 62.8321C61.9637 62.8321 61.8193 62.7599 61.7471 62.6156C61.6749 62.4712 61.4584 62.399 61.2418 62.2546C61.0974 62.1103 60.9531 61.9659 60.8087 61.8937C60.6643 61.8215 60.5921 61.8215 60.4478 61.8215C60.3034 61.8215 60.2312 61.8215 60.159 61.8937C60.0868 61.9659 60.0146 62.0381 60.0146 62.1103C60.0146 62.1824 60.0146 62.3268 60.0868 62.399C60.159 62.4712 60.2312 62.6156 60.3756 62.6877C60.3756 62.6877 60.4478 62.6877 60.5199 62.7599C60.5921 62.8321 60.8087 62.9043 61.2418 63.1931C61.7471 63.4818 62.108 63.7706 62.3246 64.0593C62.5412 64.4202 62.6855 64.7812 62.6855 65.1421C62.6855 65.9362 62.3246 66.658 61.6027 67.1633C60.8809 67.6686 60.0146 67.9574 58.8596 67.9574C57.9934 67.9574 57.1993 67.813 56.6219 67.4521C56.0444 67.0911 55.7556 66.658 55.7556 66.0805C55.7556 65.7196 55.9 65.4308 56.1165 65.2143C56.3331 64.9977 56.6219 64.8534 56.9828 64.8534C57.1272 64.8534 57.1993 64.8534 57.2715 64.8534C57.3437 64.8534 57.4159 64.9255 57.5603 64.9255C57.7047 64.9977 57.849 65.0699 57.9934 65.2143C58.1378 65.3587 58.3543 65.5752 58.5709 65.7918C58.6431 65.864 58.6431 65.864 58.7153 65.9362C58.7875 66.0083 58.7875 66.0083 58.8596 66.0805C59.004 66.1527 59.0762 66.2249 59.2206 66.2971C59.3649 66.3693 59.4371 66.3693 59.5093 66.3693C59.5815 66.3693 59.7259 66.2971 59.7981 66.2249C59.8703 66.1527 59.9424 66.0805 59.9424 65.9362C59.9424 65.864 59.9424 65.864 59.9424 65.864V65.7918C59.8703 65.7196 59.7981 65.6474 59.6537 65.503C59.5093 65.3587 59.2206 65.2143 58.8596 64.9255C58.4987 64.709 58.21 64.4924 57.9934 64.348C57.7768 64.2037 57.5603 63.9871 57.4881 63.8427C57.3437 63.6984 57.2715 63.4818 57.2715 63.3374C57.1993 63.1931 57.1994 62.9765 57.1994 62.7599C57.1994 62.1103 57.4881 61.5328 58.1378 61.0996C58.7875 60.6665 59.4371 60.3778 60.3034 60.3778C61.1696 60.3056 61.8915 60.45 62.469 60.7387Z" fill="black"/>
</svg>
