<svg width="77" height="77" viewBox="0 0 77 77" fill="none" xmlns="http://www.w3.org/2000/svg">
<rect width="77" height="77" rx="5" fill="white"/>
<path d="M2.50391 53.6653C3.46068 55.6946 9.15097 64.9998 33.7753 64.9998C58.2487 64.9998 64.4425 55.7936 65.5504 53.7148C63.7879 55.6451 50.3427 57.13 34.0271 57.13C17.6612 57.0805 4.11532 55.5956 2.50391 53.6653Z" fill="url(#paint0_linear_291_67)"/>
<path d="M34.0772 55.7444C51.5982 55.7444 65.8018 54.2375 65.8018 52.3787C65.8018 50.5198 51.5982 49.0129 34.0772 49.0129C16.5562 49.0129 2.35254 50.5198 2.35254 52.3787C2.35254 54.2375 16.5562 55.7444 34.0772 55.7444Z" fill="#2D2A2A"/>
<path d="M55.3281 50.5475V46.2908L59.407 43.915H63.083L58.5006 46.5383V50.9929L55.3281 50.5475Z" fill="#2D2A2A"/>
<path d="M59.3574 43.4694V43.222C59.3574 42.925 59.5085 42.628 59.8106 42.4795L68.7237 37.4805C68.9252 37.3815 69.177 37.2825 69.4287 37.2825H75.5219C75.824 37.2825 76.0255 37.5299 76.0255 37.7774V38.2229C76.0255 38.5199 75.8744 38.7673 75.6226 38.9158L62.9327 45.4988C62.7817 45.5483 62.6306 45.5978 62.4795 45.5978H60.8178L64.4434 43.42L59.3574 43.4694Z" fill="#2D2A2A"/>
<path d="M9.50195 19.5133C9.50195 15.4546 11.8184 11 16.4512 11C18.1129 11 20.6811 11.6929 20.6811 13.7223C20.6811 14.8112 19.9258 15.4051 18.7172 15.4051C17.9115 15.4051 18.969 13.6233 16.5519 13.6233C13.7823 13.6233 12.5737 16.395 12.5737 18.7708C12.5737 22.3345 15.0412 23.8194 16.7029 23.8194C19.8251 23.8194 20.0768 21.0971 20.2279 21.0971C20.4797 21.0971 20.6308 22.582 20.6308 22.78C20.6308 25.5518 18.4654 27.1851 15.7965 27.1851C11.5162 27.1851 9.50195 23.3245 9.50195 19.5133Z" fill="#2D2A2A"/>
<path d="M30.6008 26.8883C30.3994 26.8883 29.8958 26.8883 29.8958 26.5913C29.8958 26.4923 29.8958 26.3933 29.9462 26.3438C30.6008 24.6114 31.1548 22.8791 31.1548 20.9982C31.1548 19.7114 30.6512 19.3154 29.3419 19.3154C27.4284 19.3154 25.3637 20.2063 25.3637 22.3841C25.3637 23.7205 25.6155 25.2054 26.1695 26.4428C26.2198 26.5418 26.2702 26.6408 26.2702 26.7398C26.2702 26.9872 25.817 26.9377 25.6659 26.9377H22.8459C22.292 26.9377 22.292 21.5427 22.292 20.7508C22.292 19.3649 22.6948 11.3466 23.6013 11.3466H26.2198C26.3205 11.3466 26.7737 11.2971 26.7737 11.4951C26.7737 11.7425 25.4645 14.4648 25.4645 16.4446C25.4645 16.8901 25.6155 17.3851 25.9177 17.3851C26.5219 17.3851 26.5219 16.8406 29.0901 16.8406C30.0469 16.8406 30.7519 17.0386 30.7519 16.2467C30.7519 14.4648 29.0901 11.792 29.0901 11.5445C29.0901 11.2971 29.6441 11.3466 29.7951 11.3466H32.313C33.0179 11.3466 33.9747 16.7416 33.9747 20.7508C33.9747 21.6417 33.9747 26.9377 33.3704 26.9377H30.6008V26.8883Z" fill="#2D2A2A"/>
<path d="M36.6446 26.8881C35.6374 26.9376 35.9396 26.2446 35.8389 22.4829C35.8389 19.9586 36.8964 11.2969 37.4503 11.2969H44.9534C45.2052 11.2969 45.8598 11.2474 45.8598 11.5939C45.8598 11.7423 44.6513 14.3656 44.3995 14.3656C44.0973 14.3656 43.5434 13.4747 41.6299 13.4747C40.3206 13.4747 38.9106 14.2666 38.9106 16.0485C38.9106 16.4444 39.0113 17.1374 39.5149 17.1374C40.1192 17.1374 41.4788 16.2465 43.0902 16.2465C43.342 16.2465 43.9463 16.3455 43.9463 16.6424C43.9463 16.6424 42.8888 19.7112 42.637 19.7112C42.4356 19.7112 41.7306 19.3152 40.9752 19.3152C40.0185 19.3152 38.6085 20.0081 38.6085 21.889C38.6085 23.3739 39.4142 24.4628 41.0256 24.4628C42.9391 24.4628 44.0973 23.2254 44.5506 23.2254C44.8527 23.2254 46.1116 26.3931 46.1116 26.5911C46.1116 26.9376 45.6584 26.8881 45.4066 26.8881H36.6446V26.8881Z" fill="#2D2A2A"/>
<path d="M56.3846 11.297C56.6364 11.297 57.291 11.2475 57.291 11.594C57.291 11.7425 56.0825 14.3658 55.8307 14.3658C55.5286 14.3658 54.9243 13.4748 53.0611 13.4748C51.7518 13.4748 50.3418 14.2668 50.3418 16.0486C50.3418 17.187 50.3922 17.5335 50.9461 17.5335C52.205 17.5335 52.3057 16.6921 54.8236 16.6921C55.025 16.6921 55.4782 16.6921 55.4782 16.989C55.4782 17.088 54.7229 20.0083 54.4207 20.0083C54.2193 20.0083 53.7157 19.7608 52.9604 19.7608C51.2986 19.7608 50.4425 20.7012 50.4425 22.2356C50.4425 23.869 51.1979 26.4922 51.1979 26.6902C51.1979 26.9377 50.7447 26.8387 50.5433 26.8387H48.2772C47.824 26.8387 47.2197 27.1852 47.2197 20.1568C47.2197 10.9011 48.2269 11.2475 48.529 11.2475H56.3846V11.297Z" fill="#2D2A2A"/>
<path d="M12.7764 26.3931C13.0282 26.3931 13.5821 26.3931 13.5821 26.888C13.5821 27.086 12.9275 29.2638 12.9275 30.5507C12.9275 30.8972 12.9778 31.2437 13.431 31.2437C13.6828 31.2437 13.985 31.1447 14.3375 30.9962C14.7403 30.8972 15.1432 30.7487 15.6467 30.7487C17.5603 30.7487 20.1788 32.4316 20.1788 37.0347C20.1788 39.559 19.5242 41.5883 17.9128 43.4196C17.2581 44.1621 16.0999 45.152 14.3878 45.152H10.46C9.65429 45.152 9.75501 37.8266 9.75501 37.2821C9.75501 36.2427 9.65429 26.4426 10.6614 26.4426H12.7764V26.3931ZM17.1574 37.2821C17.1574 33.669 15.5964 32.8275 14.6396 32.8275C13.0785 32.8275 12.726 33.6195 12.726 36.7872C12.726 41.5388 13.8842 41.4398 14.4382 41.4398C16.6035 41.4398 17.1574 38.9155 17.1574 37.2821Z" fill="#2D2A2A"/>
<path d="M21.085 38.0742C21.085 34.56 22.7971 30.7488 26.6745 30.7488C30.552 30.7488 32.2641 34.56 32.2641 38.0742C32.2641 43.2217 29.2427 45.449 26.6745 45.449C24.1064 45.449 21.085 43.2217 21.085 38.0742ZM29.5449 37.4802C29.5449 35.7479 28.9406 33.2731 26.7249 33.2731C24.5092 33.2731 23.9049 35.7479 23.9049 37.4802C23.9049 39.2126 24.5092 41.7368 26.7249 41.7368C28.9406 41.7368 29.5449 39.2621 29.5449 37.4802Z" fill="#2D2A2A"/>
<path d="M47.3709 31.046C48.2773 31.046 48.4284 30.9965 48.4284 33.2238C48.4284 41.1926 44.0474 45.3998 43.4935 45.3998C42.8892 45.3998 41.6806 43.024 41.4288 42.4795C41.3785 42.331 40.9253 41.2421 40.6231 41.2421C40.4217 41.2421 40.1196 41.8361 40.0188 42.0341C39.7671 42.529 38.206 45.4493 37.6017 45.4493C36.8967 45.4493 33.2207 40.6977 33.2207 33.4713C33.2207 30.7985 33.5732 31.0955 34.4293 31.0955H36.1917C36.4435 31.0955 36.6953 31.0955 36.6953 31.442C36.6953 31.6399 36.4435 32.1844 36.4435 34.1642C36.4435 37.9259 37.501 40.8462 37.8535 40.8462C38.2564 40.8462 39.7671 39.3613 39.6663 33.8178C39.6663 33.0258 39.5153 31.8379 39.5153 31.4915C39.5153 31.244 39.616 31.145 39.8678 31.145H42.0835C42.2849 31.145 42.587 31.145 42.587 31.442C42.587 31.6894 42.3856 33.0753 42.3856 34.2137C42.3856 38.3219 43.4431 40.8462 43.9467 40.8462C44.5006 40.8462 45.6084 37.7279 45.6084 34.4612C45.6084 33.0258 45.3063 32.0359 45.3063 31.442C45.3063 31.046 45.8099 31.0955 46.112 31.0955H47.3709V31.046Z" fill="#2D2A2A"/>
<path d="M50.7959 45.1027C49.9902 45.1027 50.0909 37.7773 50.0909 37.2328C50.0909 36.1934 49.9902 26.3932 50.9974 26.3932H53.1123C53.3641 26.3932 54.0188 26.3437 54.0188 26.7892C54.0188 26.9377 53.062 30.0559 53.062 35.55C53.062 41.5885 53.918 44.5582 53.918 44.8057C53.918 45.2016 53.3138 45.0532 53.1123 45.0532H50.7959V45.1027Z" fill="#2D2A2A"/>
<path d="M8.24371 45.1523L7.03516 48.5676L10.7615 47.6766L8.24371 45.1523Z" fill="url(#paint1_linear_291_67)"/>
<path d="M20.7328 50.4976L18.9199 52.1309L21.4378 52.7744L20.7328 50.4976Z" fill="url(#paint2_linear_291_67)"/>
<path d="M7.08585 34.2134L5.22266 35.8962L7.74049 36.5397L7.08585 34.2134Z" fill="url(#paint3_linear_291_67)"/>
<path d="M41.0772 51.1411L40.624 53.5664L43.0411 52.5765L41.0772 51.1411Z" fill="url(#paint4_linear_291_67)"/>
<path d="M10.8623 51.8834L12.0205 52.7744L12.1716 51.24L10.8623 51.8834Z" fill="white"/>
<path d="M49.9908 47.4287L48.7822 50.8439L52.5086 49.953L49.9908 47.4287Z" fill="url(#paint5_linear_291_67)"/>
<path d="M7.58984 40.7964C7.58984 41.4398 7.03592 41.9348 6.43164 41.9348C5.777 41.9348 5.27344 41.3903 5.27344 40.7964C5.27344 40.1529 5.82736 39.658 6.43164 39.658C7.03592 39.658 7.58984 40.1529 7.58984 40.7964Z" fill="#2D2A2A"/>
<path d="M30.4521 50.0522C31.0918 50.0522 31.6103 49.5425 31.6103 48.9138C31.6103 48.2851 31.0918 47.7754 30.4521 47.7754C29.8125 47.7754 29.2939 48.2851 29.2939 48.9138C29.2939 49.5425 29.8125 50.0522 30.4521 50.0522Z" fill="url(#paint6_linear_291_67)"/>
<path d="M3.51083 46.1915C3.76113 46.1915 3.96404 45.992 3.96404 45.746C3.96404 45.5 3.76113 45.3005 3.51083 45.3005C3.26053 45.3005 3.05762 45.5 3.05762 45.746C3.05762 45.992 3.26053 46.1915 3.51083 46.1915Z" fill="#2D2A2A"/>
<path d="M33.3722 51.4381C33.3722 51.6856 33.1708 51.8836 32.919 51.8836C32.6672 51.8836 32.4658 51.6856 32.4658 51.4381C32.4658 51.1907 32.6672 50.9927 32.919 50.9927C33.1708 50.9927 33.3722 51.1907 33.3722 51.4381Z" fill="white"/>
<path d="M45.0549 53.121C45.0549 53.3685 44.8534 53.5665 44.6016 53.5665C44.3499 53.5665 44.1484 53.3685 44.1484 53.121C44.1484 52.8735 44.3499 52.6755 44.6016 52.6755C44.8031 52.6755 45.0549 52.8735 45.0549 53.121Z" fill="white"/>
<path d="M54.4211 51.5866C54.4211 51.8341 54.2196 52.032 53.9679 52.032C53.7161 52.032 53.5146 51.8341 53.5146 51.5866C53.5146 51.3391 53.7161 51.1411 53.9679 51.1411C54.2196 51.1411 54.4211 51.3391 54.4211 51.5866Z" fill="white"/>
<path d="M23.1993 47.9239C23.4496 47.9239 23.6525 47.7244 23.6525 47.4784C23.6525 47.2324 23.4496 47.033 23.1993 47.033C22.949 47.033 22.7461 47.2324 22.7461 47.4784C22.7461 47.7244 22.949 47.9239 23.1993 47.9239Z" fill="#2D2A2A"/>
<path d="M66.3556 37.1339C66.3556 37.3814 66.1542 37.5794 65.9024 37.5794C65.6507 37.5794 65.4492 37.3814 65.4492 37.1339C65.4492 36.8865 65.6507 36.6885 65.9024 36.6885C66.1542 36.6885 66.3556 36.8865 66.3556 37.1339Z" fill="url(#paint7_linear_291_67)"/>
<path d="M2.90642 41.2914C2.90642 41.5389 2.70499 41.7369 2.45321 41.7369C2.20143 41.7369 2 41.5389 2 41.2914C2 41.0439 2.20143 40.8459 2.45321 40.8459C2.65464 40.8459 2.90642 41.0439 2.90642 41.2914Z" fill="#2D2A2A"/>
<path d="M37.6026 47.7754C37.8529 47.7754 38.0558 47.576 38.0558 47.33C38.0558 47.084 37.8529 46.8845 37.6026 46.8845C37.3523 46.8845 37.1494 47.084 37.1494 47.33C37.1494 47.576 37.3523 47.7754 37.6026 47.7754Z" fill="#2D2A2A"/>
<path d="M58.3488 31.8376C58.3488 32.085 58.1474 32.283 57.8956 32.283C57.6438 32.283 57.4424 32.085 57.4424 31.8376C57.4424 31.5901 57.6438 31.3921 57.8956 31.3921C58.1474 31.3426 58.3488 31.5406 58.3488 31.8376Z" fill="#2D2A2A"/>
<path d="M46.9688 47.5772C47.2191 47.5772 47.4221 47.3778 47.4221 47.1317C47.4221 46.8857 47.2191 46.6863 46.9688 46.6863C46.7185 46.6863 46.5156 46.8857 46.5156 47.1317C46.5156 47.3778 46.7185 47.5772 46.9688 47.5772Z" fill="#2D2A2A"/>
<path d="M58.4494 40.6974C58.4494 40.9449 58.248 41.1429 57.9962 41.1429C57.7444 41.1429 57.543 40.9449 57.543 40.6974C57.543 40.4499 57.7444 40.252 57.9962 40.252C58.248 40.252 58.4494 40.4499 58.4494 40.6974Z" fill="url(#paint8_linear_291_67)"/>
<path d="M62.4277 35.3022C62.4277 35.9457 61.8738 36.4406 61.2695 36.4406C60.6149 36.4406 60.1113 35.8962 60.1113 35.3022C60.1113 34.6588 60.6652 34.1638 61.2695 34.1638C61.8738 34.1638 62.4277 34.6588 62.4277 35.3022Z" fill="#2D2A2A"/>
<defs>
<linearGradient id="paint0_linear_291_67" x1="34.0389" y1="51.1027" x2="34.0389" y2="65.8009" gradientUnits="userSpaceOnUse">
<stop stop-color="#FBB040"/>
<stop offset="1" stop-color="#F99441"/>
</linearGradient>
<linearGradient id="paint1_linear_291_67" x1="7.63779" y1="46.8716" x2="10.6603" y2="47.9422" gradientUnits="userSpaceOnUse">
<stop stop-color="#FBB040"/>
<stop offset="1" stop-color="#F99441"/>
</linearGradient>
<linearGradient id="paint2_linear_291_67" x1="19.8205" y1="51.3081" x2="21.2689" y2="52.9011" gradientUnits="userSpaceOnUse">
<stop stop-color="#FBB040"/>
<stop offset="1" stop-color="#F99441"/>
</linearGradient>
<linearGradient id="paint3_linear_291_67" x1="6.1514" y1="35.0607" x2="7.59976" y2="36.6536" gradientUnits="userSpaceOnUse">
<stop stop-color="#FBB040"/>
<stop offset="1" stop-color="#F99441"/>
</linearGradient>
<linearGradient id="paint4_linear_291_67" x1="40.8514" y1="52.3386" x2="42.9872" y2="52.7337" gradientUnits="userSpaceOnUse">
<stop stop-color="#FBB040"/>
<stop offset="1" stop-color="#F99441"/>
</linearGradient>
<linearGradient id="paint5_linear_291_67" x1="49.398" y1="49.1462" x2="52.4205" y2="50.2168" gradientUnits="userSpaceOnUse">
<stop stop-color="#FBB040"/>
<stop offset="1" stop-color="#F99441"/>
</linearGradient>
<linearGradient id="paint6_linear_291_67" x1="29.2788" y1="48.9197" x2="31.641" y2="48.9197" gradientUnits="userSpaceOnUse">
<stop stop-color="#FF7F51"/>
<stop offset="1" stop-color="#FF9B54"/>
</linearGradient>
<linearGradient id="paint7_linear_291_67" x1="65.4221" y1="37.1261" x2="66.3531" y2="37.1261" gradientUnits="userSpaceOnUse">
<stop stop-color="#FBB040"/>
<stop offset="1" stop-color="#F99441"/>
</linearGradient>
<linearGradient id="paint8_linear_291_67" x1="57.5179" y1="40.6878" x2="58.4489" y2="40.6878" gradientUnits="userSpaceOnUse">
<stop stop-color="#FBB040"/>
<stop offset="1" stop-color="#F99441"/>
</linearGradient>
</defs>
</svg>
