<svg width="77" height="77" viewBox="0 0 77 77" fill="none" xmlns="http://www.w3.org/2000/svg">
<rect width="77" height="77" rx="5" fill="#5A3428"/>
<path d="M6 61.341C6 57.8961 7.95057 53.3716 11.8517 52.1891C13.2377 51.7777 15.4449 51.9834 15.4449 54.1428C15.4449 55.274 14.8289 55.9938 13.8023 56.1994C13.135 56.3023 14.0076 54.3485 11.9544 54.8112C9.59316 55.3254 8.61788 58.1532 8.61788 60.3127C8.61788 63.5518 10.7224 64.7858 12.1597 64.7344C14.8289 64.6315 15.0342 61.8037 15.1882 61.7523C15.3936 61.7523 15.5475 63.2433 15.5475 63.449C15.5989 66.3282 13.751 68.0249 11.4411 67.9735C7.74525 67.9221 6 64.5801 6 61.341Z" fill="white"/>
<path d="M43.6769 49.1042C43.8822 49.1042 44.4981 49.0527 44.4981 49.5155C44.4981 49.6697 43.4202 52.7546 43.2149 52.7546C42.9582 52.7546 42.4449 51.6749 40.8537 51.6749C39.7244 51.6749 38.4924 52.6004 38.4924 54.7598C38.4924 56.0966 38.5438 56.5079 39.0057 56.5079C40.0837 56.5079 40.1864 55.4796 42.3423 55.5311C42.5476 55.5311 42.9069 55.5311 42.9069 55.9424C42.9069 56.0452 42.2396 59.5414 41.9829 59.5414C41.8289 59.5414 41.367 59.2329 40.751 59.2329C39.3137 59.2329 38.5951 60.3641 38.5951 62.215C38.5951 64.1688 39.2624 67.3051 39.2111 67.5622C39.2111 67.8193 38.8004 67.7679 38.6978 67.7679C38.0818 67.7679 37.4145 67.7679 36.7985 67.7679C36.3879 67.7679 35.9259 68.1792 35.8746 59.7985C35.7719 48.6414 36.6445 49.0013 36.9525 49.0013C39.1597 49.0013 41.4183 49.0013 43.6769 49.1042Z" fill="white"/>
<path d="M52.7111 49.8754C52.9164 49.8754 53.481 49.9268 53.481 50.3381C53.481 50.4924 52.4031 53.3716 52.1977 53.3716C51.9411 53.3716 51.4278 52.2919 49.8365 52.1377C48.7072 52.0348 47.4753 52.8575 47.4753 54.9655C47.4753 56.3023 47.5266 56.7136 47.9886 56.7136C49.0666 56.765 49.1692 55.7367 51.3251 55.9424C51.5304 55.9424 51.8898 55.9938 51.8898 56.3537C51.8898 56.4565 51.2225 59.7985 50.9658 59.7985C50.8118 59.7985 50.3498 59.4386 49.7339 59.4386C48.2966 59.3872 47.578 60.4669 47.578 62.2664C47.578 64.1688 48.1939 67.2537 48.1939 67.5108C48.1939 67.7679 47.7833 67.7165 47.6293 67.7165C47.0133 67.7165 46.346 67.7165 45.73 67.7165C45.3194 67.7165 44.8574 68.1278 44.8574 59.7985C44.9088 48.7957 45.73 49.2584 46.038 49.2584C48.2453 49.3612 50.4525 49.5669 52.7111 49.8754Z" fill="white"/>
<path d="M54.4046 67.6651C53.532 67.7165 53.7886 66.9453 53.7373 62.6264C53.7373 59.7471 54.7639 50.0811 55.2259 50.1839C57.3818 50.4924 59.5377 50.9037 61.6423 51.3665C61.8476 51.4179 62.4122 51.4693 62.4122 51.8806C62.4122 52.0349 61.3343 54.5542 61.129 54.5542C60.8723 54.5028 60.359 53.4745 58.7677 53.2174C57.6385 53.0118 56.4578 53.7316 56.4065 55.7368C56.4065 56.1995 56.4578 56.9193 56.9198 56.9707C57.4331 57.0221 58.6137 56.1995 59.9997 56.4052C60.205 56.4566 60.7183 56.6108 60.7183 56.9193C60.7183 56.9193 59.7943 60.0556 59.589 60.0556C59.435 60.0556 58.8191 59.5929 58.1518 59.5415C57.3305 59.4387 56.0985 60.1585 56.0985 62.2151C56.0985 63.8604 56.7658 65.0943 58.1518 65.1457C59.743 65.1972 60.7696 63.9118 61.1803 63.9632C61.4369 64.0146 62.4636 67.3052 62.4636 67.5108C62.4636 67.8708 62.0529 67.8193 61.8476 67.8193C59.3837 67.7165 56.8685 67.6651 54.4046 67.6651Z" fill="white"/>
<path d="M64.1068 67.7165C63.2341 67.7679 63.4908 67.0995 63.4395 63.192C63.4395 60.5698 64.4147 51.932 64.8767 52.0863C66.9813 52.6004 69.0858 53.166 71.1904 53.8344C71.3957 53.8858 71.9604 54.04 71.9604 54.3485C71.9604 54.4514 70.9338 56.508 70.7284 56.4566C70.4718 56.4051 69.9585 55.4797 68.4185 55.0684C67.2893 54.8113 66.1087 55.274 66.1087 57.0735C66.1087 57.4849 66.16 58.1533 66.622 58.2047C67.1353 58.3075 68.3159 57.6391 69.6505 57.8962C69.8558 57.9476 70.3691 58.1018 70.3691 58.4103C70.3691 58.4103 69.4452 61.0325 69.2398 61.0325C69.0858 61.0325 68.4699 60.5698 67.8539 60.4669C67.0326 60.3641 65.8007 60.8783 65.8007 62.7292C65.8007 64.2203 66.468 65.3 67.8539 65.3514C69.4452 65.4028 70.4718 64.3745 70.8311 64.3745C71.0878 64.4259 72.1657 67.2538 72.1657 67.408C72.1657 67.7165 71.7551 67.6651 71.5497 67.6651C69.1372 67.7165 66.622 67.7165 64.1068 67.7165Z" fill="white"/>
<path d="M32.3844 57.639C31.3578 52.8574 27.4053 49.6697 23.5555 50.5437C22.8882 50.698 22.2209 50.955 21.6562 51.3664C22.3236 53.3201 23.6582 56.2508 25.7627 57.8961C28.1239 59.747 29.7152 63.4489 30.5365 66.0197C32.3331 64.0145 33.103 60.8782 32.3844 57.639Z" fill="white"/>
<path d="M20.4754 52.3433C18.6788 54.297 17.9088 57.4334 18.6274 60.7239C19.7054 65.5056 23.6579 68.6933 27.4564 67.8707C28.175 67.7164 28.791 67.4079 29.4069 67.048C28.6883 64.6829 27.1997 60.7754 24.9411 59.0272C22.6312 57.2791 21.2453 54.4513 20.4754 52.3433Z" fill="white"/>
<path d="M54.4197 21.704C52.1928 11.3318 43.6192 4.41703 35.2682 6.31302C33.8207 6.6476 32.3732 7.20525 31.1484 8.09747C32.5959 12.3356 35.4909 18.6927 40.0561 22.2616C45.178 26.2766 48.6297 34.3067 50.4113 39.8831C54.3084 35.5335 55.9785 28.7303 54.4197 21.704Z" fill="white"/>
<path d="M28.5878 10.2166C24.6907 14.4546 23.0205 21.2579 24.5794 28.3957C26.9176 38.7679 35.4912 45.6827 43.7308 43.8982C45.2897 43.5636 46.6258 42.8944 47.962 42.1137C46.4031 36.9834 43.1741 28.5072 38.2749 24.7153C33.2643 20.9233 30.258 14.7892 28.5878 10.2166Z" fill="white"/>
</svg>
