<svg width="231" height="231" viewBox="0 0 231 231" fill="none" xmlns="http://www.w3.org/2000/svg">
<circle cx="115.5" cy="115.5" r="115.5" fill="#1C1C19"/>
<path d="M118.731 63.5569C117.737 63.278 117.021 62.8528 116.583 62.2812C116.157 61.7128 115.933 61.0455 115.911 60.2791C115.901 59.516 116.018 58.7011 116.261 57.8346L117.652 52.8782C117.918 51.9308 118.254 51.1339 118.66 50.4875C119.077 49.8444 119.611 49.4084 120.261 49.1795C120.926 48.9424 121.755 48.9632 122.749 49.2421C123.627 49.4886 124.274 49.8449 124.692 50.3111C125.121 50.7805 125.361 51.3464 125.412 52.0088C125.474 52.6745 125.387 53.429 125.151 54.2724L124.839 55.3815L122.985 54.861L123.262 53.8732C123.408 53.3533 123.507 52.8888 123.56 52.4798C123.627 52.0625 123.576 51.7116 123.407 51.4272C123.237 51.1429 122.881 50.9245 122.338 50.772C121.783 50.6164 121.345 50.6242 121.023 50.7955C120.704 50.9552 120.442 51.2432 120.238 51.6596C120.049 52.0676 119.873 52.5604 119.711 53.1381L118.149 58.7011C117.951 59.4059 117.852 59.9824 117.851 60.4308C117.853 60.8676 117.962 61.2099 118.179 61.4578C118.396 61.7057 118.73 61.8929 119.181 62.0194C119.712 62.1686 120.126 62.16 120.422 61.9938C120.721 61.8161 120.958 61.5273 121.132 61.1276C121.307 60.7279 121.472 60.2508 121.628 59.6962L121.92 58.6564L123.774 59.1769L123.482 60.2167C123.242 61.0716 122.926 61.7992 122.533 62.3994C122.143 62.988 121.642 63.3958 121.03 63.6229C120.421 63.8383 119.655 63.8163 118.731 63.5569ZM128.135 66.1966C127.326 65.9696 126.699 65.6065 126.253 65.1075C125.819 64.6117 125.549 64.0188 125.444 63.3286C125.338 62.6384 125.376 61.8825 125.557 61.0608L127.421 61.0793C127.316 61.5858 127.257 62.0864 127.243 62.581C127.24 63.0788 127.335 63.5168 127.528 63.895C127.724 64.2617 128.071 64.5147 128.568 64.6542C129.076 64.7969 129.496 64.7652 129.828 64.5593C130.175 64.345 130.423 63.9722 130.572 63.4407C130.751 62.8053 130.749 62.2564 130.567 61.7941C130.388 61.3202 130.135 60.8252 129.806 60.3091L128.033 57.568C127.684 57.0339 127.467 56.4992 127.38 55.9639C127.297 55.417 127.354 54.7912 127.552 54.0864C127.84 53.0582 128.359 52.3437 129.107 51.9429C129.855 51.5422 130.738 51.4845 131.754 51.7699C132.309 51.9256 132.773 52.1369 133.147 52.4038C133.535 52.6624 133.826 52.9809 134.019 53.3591C134.224 53.7405 134.342 54.185 134.374 54.6926C134.421 55.1918 134.387 55.7557 134.273 56.3843L132.483 56.3679C132.578 55.896 132.627 55.4548 132.63 55.0444C132.636 54.6224 132.539 54.2585 132.338 53.9529C132.152 53.6389 131.816 53.4138 131.331 53.2776C130.846 53.1414 130.427 53.1673 130.075 53.3552C129.738 53.5348 129.498 53.8787 129.356 54.3871C129.236 54.8146 129.206 55.1864 129.267 55.5026C129.339 55.822 129.497 56.1716 129.739 56.5512L131.53 59.2973C131.931 59.9086 132.244 60.5945 132.466 61.355C132.692 62.104 132.682 62.9175 132.436 63.7955C132.241 64.4887 131.928 65.049 131.497 65.4763C131.068 65.892 130.563 66.1614 129.98 66.2844C129.408 66.4107 128.793 66.3814 128.135 66.1966ZM137.019 68.6903C136.211 68.4633 135.583 68.1003 135.138 67.6013C134.703 67.1055 134.434 66.5125 134.328 65.8224C134.223 65.1322 134.26 64.3763 134.441 63.5545L136.306 63.5731C136.201 64.0796 136.141 64.5802 136.127 65.0747C136.125 65.5725 136.22 66.0105 136.413 66.3888C136.609 66.7554 136.955 67.0085 137.452 67.1479C137.961 67.2906 138.381 67.259 138.713 67.0531C139.06 66.8388 139.308 66.466 139.457 65.9345C139.635 65.2991 139.633 64.7502 139.452 64.2878C139.273 63.8139 139.019 63.319 138.691 62.8029L136.917 60.0617C136.569 59.5276 136.351 58.9929 136.265 58.4576C136.181 57.9108 136.238 57.2849 136.436 56.5802C136.725 55.5519 137.243 54.8374 137.991 54.4367C138.74 54.036 139.622 53.9783 140.639 54.2637C141.193 54.4193 141.657 54.6306 142.031 54.8976C142.42 55.1562 142.711 55.4746 142.903 55.8528C143.108 56.2343 143.226 56.6788 143.258 57.1864C143.305 57.6856 143.271 58.2495 143.157 58.878L141.367 58.8616C141.462 58.3898 141.511 57.9486 141.514 57.5382C141.521 57.1161 141.423 56.7523 141.222 56.4467C141.036 56.1327 140.701 55.9076 140.215 55.7714C139.73 55.6352 139.312 55.661 138.96 55.8489C138.623 56.0285 138.383 56.3725 138.24 56.8809C138.12 57.3083 138.091 57.6802 138.151 57.9964C138.224 58.3158 138.381 58.6654 138.624 59.045L140.414 61.7911C140.816 62.4024 141.128 63.0883 141.351 63.8488C141.577 64.5977 141.567 65.4112 141.32 66.2893C141.126 66.9825 140.813 67.5427 140.381 67.97C139.953 68.3858 139.447 68.6551 138.864 68.7782C138.293 68.9045 137.678 68.8752 137.019 68.6903ZM145.626 71.1063C144.864 70.8922 144.269 70.5695 143.842 70.1379C143.414 69.7064 143.15 69.1835 143.048 68.5691C142.946 67.9547 142.999 67.2779 143.207 66.5384L143.338 66.0705L145.175 66.5861C145.162 66.6324 145.148 66.6843 145.131 66.7421C145.118 66.7883 145.104 66.8403 145.088 66.8981C144.982 67.3173 144.923 67.7057 144.91 68.0635C144.908 68.4245 144.99 68.734 145.154 68.992C145.33 69.2533 145.632 69.4439 146.059 69.5639C146.51 69.6904 146.88 69.682 147.169 69.5389C147.462 69.3843 147.704 69.1219 147.895 68.7518C148.086 68.3817 148.253 67.9424 148.396 67.4341C148.603 66.6946 148.633 66.0549 148.486 65.515C148.353 64.9667 147.952 64.5738 147.284 64.3362C147.252 64.3149 147.208 64.2962 147.15 64.28C147.104 64.267 147.063 64.2557 147.029 64.2459L147.549 62.3916C147.584 62.4013 147.624 62.4127 147.67 62.4256C147.717 62.4386 147.757 62.45 147.792 62.4597C148.457 62.6214 148.979 62.5811 149.359 62.3387C149.738 62.0962 150.034 61.5995 150.244 60.8486C150.423 60.2131 150.456 59.674 150.343 59.2311C150.242 58.7914 149.874 58.4824 149.239 58.3041C148.603 58.1257 148.121 58.2211 147.793 58.5902C147.469 58.9478 147.202 59.4526 146.994 60.1046C146.982 60.1508 146.967 60.2028 146.951 60.2606C146.938 60.3068 146.925 60.353 146.912 60.3992L145.075 59.8836L145.206 59.4157C145.417 58.6647 145.724 58.0592 146.127 57.5991C146.531 57.1389 147.027 56.8358 147.617 56.6897C148.217 56.5468 148.899 56.5823 149.662 56.7964C150.436 57.0136 151.037 57.338 151.464 57.7696C151.891 58.2011 152.156 58.724 152.257 59.3384C152.362 59.9412 152.309 60.6181 152.099 61.3691C151.862 62.2125 151.487 62.8365 150.975 63.241C150.474 63.6489 149.892 63.8593 149.227 63.8722C149.619 64.1193 149.916 64.4394 150.117 64.8324C150.33 65.2286 150.449 65.6921 150.475 66.2227C150.503 66.7418 150.429 67.3191 150.25 67.9546C150.017 68.7864 149.697 69.4818 149.291 70.0409C148.888 70.5884 148.383 70.9641 147.778 71.168C147.175 71.3603 146.458 71.3398 145.626 71.1063Z" fill="#C5BDB4"/>
<path fill-rule="evenodd" clip-rule="evenodd" d="M75.2242 65.3075C75.1778 65.4767 75.1746 65.6246 75.217 65.6362C75.2633 65.6489 75.2098 65.9649 75.0833 66.4262C74.9568 66.8875 74.9033 67.2035 74.9495 67.2162C74.9953 67.2288 74.9494 67.5193 74.8369 67.9294C74.7244 68.3394 74.6785 68.6299 74.7242 68.6425C74.77 68.655 74.724 68.9456 74.6116 69.3556C74.4991 69.7656 74.4532 70.0562 74.4989 70.0687C74.5439 70.0811 74.5058 70.3461 74.4074 70.705C74.3089 71.0638 74.2708 71.3289 74.3158 71.3412C74.3615 71.3537 74.3156 71.6443 74.2031 72.0543C74.0907 72.4643 74.0447 72.7549 74.0905 72.7674C74.1368 72.7801 74.0833 73.0961 73.9567 73.5574C73.8302 74.0187 73.7767 74.3347 73.823 74.3474C73.8687 74.36 73.8228 74.6505 73.7103 75.0606C73.5979 75.4706 73.5519 75.7611 73.5977 75.7737C73.6427 75.786 73.6045 76.0511 73.5061 76.4099C73.4077 76.7687 73.3696 77.0338 73.4146 77.0462C73.4608 77.0589 73.4074 77.3749 73.2808 77.8362C73.1543 78.2975 73.1008 78.6135 73.1471 78.6262C73.1928 78.6387 73.1469 78.9293 73.0344 79.3393C72.922 79.7493 72.876 80.0399 72.9218 80.0524C72.9675 80.065 72.9216 80.3555 72.8091 80.7655C72.6966 81.1756 72.6507 81.4661 72.6965 81.4786C72.7414 81.491 72.7033 81.7561 72.6049 82.1149C72.5065 82.4737 72.4684 82.7388 72.5133 82.7511C72.5596 82.7638 72.5061 83.0798 72.3796 83.5411C72.2531 84.0024 72.1996 84.3184 72.2458 84.3311C72.2916 84.3437 72.2457 84.6342 72.1332 85.0442C72.0207 85.4543 71.9748 85.7448 72.0205 85.7574C72.0655 85.7697 72.0274 86.0348 71.929 86.3936C71.8305 86.7524 71.7924 87.0175 71.8374 87.0298C71.8837 87.0425 71.8302 87.3585 71.7037 87.8198C71.5771 88.2811 71.5236 88.5972 71.5699 88.6098C71.6157 88.6224 71.5697 88.9129 71.4573 89.323C71.3448 89.733 71.2989 90.0235 71.3446 90.0361C71.3904 90.0486 71.3444 90.3392 71.232 90.7492C71.1195 91.1592 71.0736 91.4498 71.1193 91.4623C71.1643 91.4747 71.1262 91.7397 71.0277 92.0986C70.9293 92.4574 70.8912 92.7225 70.9362 92.7348C70.9819 92.7473 70.936 93.0379 70.8235 93.4479C70.711 93.8579 70.6651 94.1485 70.7109 94.161C70.7571 94.1737 70.7036 94.4897 70.5771 94.951C70.4506 95.4124 70.3971 95.7284 70.4434 95.741C70.4891 95.7536 70.4432 96.0441 70.3307 96.4542C70.2183 96.8642 70.1723 97.1547 70.2181 97.1673C70.263 97.1796 70.2249 97.4447 70.1265 97.8035C70.0281 98.1623 69.99 98.4274 70.0349 98.4398C70.0807 98.4523 70.0347 98.7429 69.9223 99.1529C69.8098 99.5629 69.7639 99.8535 69.8096 99.866C69.8559 99.8787 69.8024 100.195 69.6759 100.656C69.5493 101.117 69.4959 101.433 69.5421 101.446C69.5879 101.459 69.542 101.749 69.4295 102.159C69.317 102.569 69.2711 102.86 69.3168 102.872C69.3618 102.885 69.3237 103.15 69.2253 103.508C69.1268 103.867 69.0887 104.132 69.1337 104.145C69.18 104.157 69.1265 104.473 69 104.935C68.8734 105.396 68.8199 105.712 68.8662 105.725C68.912 105.737 68.866 106.028 68.7536 106.438C68.6411 106.848 68.5952 107.138 68.6409 107.151C68.6867 107.164 68.6407 107.454 68.5283 107.864C68.4158 108.274 68.3698 108.565 68.4156 108.577C68.4613 108.59 68.4154 108.88 68.3029 109.29C68.1905 109.7 68.1445 109.991 68.1903 110.003C68.236 110.016 68.1901 110.307 68.0776 110.717C67.9652 111.127 67.9192 111.417 67.965 111.43C68.0107 111.442 67.9648 111.733 67.8523 112.143C67.7399 112.553 67.6939 112.843 67.7397 112.856C67.7854 112.868 67.7395 113.159 67.627 113.569C67.5146 113.979 67.4686 114.27 67.5144 114.282C67.5593 114.295 67.5212 114.56 67.4228 114.918C67.3244 115.277 67.2863 115.542 67.3312 115.555C67.3775 115.567 67.324 115.883 67.1975 116.345C67.071 116.806 67.0175 117.122 67.0637 117.135C67.1095 117.147 67.0636 117.438 66.9511 117.848C66.8386 118.258 66.7927 118.548 66.8384 118.561C66.8834 118.573 66.8453 118.838 66.7469 119.197C66.6485 119.556 66.6103 119.821 66.6553 119.833C66.7011 119.846 66.6551 120.136 66.5427 120.546C66.4302 120.957 66.3843 121.247 66.43 121.26C66.4763 121.272 66.4228 121.588 66.2963 122.05C66.1697 122.511 66.1162 122.827 66.1625 122.84C66.2083 122.852 66.1623 123.143 66.0499 123.553C65.9374 123.963 65.8915 124.253 65.9372 124.266C65.9822 124.278 65.9441 124.543 65.8456 124.902C65.7472 125.261 65.7091 125.526 65.7541 125.538C65.8004 125.551 65.7469 125.867 65.6203 126.328C65.4938 126.79 65.4403 127.106 65.4866 127.118C65.5323 127.131 65.4864 127.421 65.3739 127.831C65.2615 128.241 65.2155 128.532 65.2613 128.545C65.307 128.557 65.2611 128.848 65.1486 129.258C65.0362 129.668 64.9902 129.958 65.036 129.971C65.0817 129.983 65.0358 130.274 64.9233 130.684C64.8108 131.094 64.7649 131.385 64.8107 131.397C64.8564 131.41 64.8105 131.7 64.698 132.11C64.5855 132.52 64.5396 132.811 64.5854 132.823C64.6311 132.836 64.5852 133.126 64.4727 133.536C64.3602 133.946 64.3143 134.237 64.36 134.25C64.4058 134.262 64.3599 134.553 64.2474 134.963C64.1349 135.373 64.089 135.663 64.1347 135.676C64.1797 135.688 64.1416 135.953 64.0432 136.312C63.9447 136.671 63.9066 136.936 63.9516 136.948C63.9979 136.961 63.9444 137.277 63.8179 137.738C63.6913 138.2 63.6378 138.516 63.6841 138.528C63.7299 138.541 63.6839 138.831 63.5715 139.241C63.459 139.651 63.4131 139.942 63.4588 139.954C63.5046 139.967 63.4586 140.258 63.3462 140.668C63.2337 141.078 63.1878 141.368 63.2335 141.381C63.2785 141.393 63.2404 141.658 63.1419 142.017C63.0435 142.376 63.0054 142.641 63.0504 142.653C63.0967 142.666 63.0432 142.982 62.9166 143.443C62.7901 143.905 62.7366 144.221 62.7829 144.233C62.8286 144.246 62.7827 144.536 62.6702 144.946C62.5578 145.356 62.5118 145.647 62.5576 145.659C62.6033 145.672 62.5574 145.963 62.4449 146.373C62.3325 146.783 62.2865 147.073 62.3323 147.086C62.378 147.098 62.3321 147.389 62.2196 147.799C62.1071 148.209 62.0612 148.499 62.107 148.512C62.1527 148.524 62.1068 148.815 61.9943 149.225C61.8818 149.635 61.8359 149.926 61.8817 149.938C61.9274 149.951 61.8815 150.241 61.769 150.651C61.6565 151.061 61.6106 151.352 61.6563 151.364C61.7021 151.377 61.6562 151.668 61.5437 152.078C61.4312 152.488 61.3853 152.778 61.431 152.791C61.4768 152.803 61.4308 153.094 61.3184 153.504C61.2059 153.914 61.16 154.204 61.2057 154.217C61.2515 154.229 61.2055 154.52 61.0931 154.93C60.9806 155.34 60.9347 155.631 60.9804 155.643C61.0262 155.656 60.9802 155.946 60.8678 156.356C60.7553 156.766 60.7094 157.057 60.7551 157.069C60.8001 157.082 60.762 157.347 60.6635 157.706C60.5651 158.064 60.527 158.33 60.572 158.342C60.6183 158.355 60.5648 158.671 60.4382 159.132C60.3117 159.593 60.2582 159.909 60.3045 159.922C60.3502 159.934 60.3043 160.225 60.1918 160.635C60.0794 161.045 60.0334 161.336 60.0792 161.348C60.1249 161.361 60.079 161.651 59.9665 162.061C59.8541 162.471 59.8081 162.762 59.8539 162.774C59.8989 162.787 59.8607 163.052 59.7623 163.411C59.6639 163.769 59.6258 164.034 59.6707 164.047C59.717 164.06 59.6635 164.376 59.537 164.837C59.4105 165.298 59.357 165.614 59.4033 165.627C59.449 165.639 59.4031 165.93 59.2906 166.34C59.1781 166.75 59.1322 167.041 59.178 167.053C59.2237 167.066 59.1778 167.356 59.0653 167.766C58.9528 168.176 58.9069 168.467 58.9526 168.479C58.9984 168.492 58.9525 168.782 58.84 169.192C58.7275 169.602 58.6816 169.893 58.7273 169.906C58.7731 169.918 58.7271 170.209 58.6147 170.619C58.5022 171.029 58.4563 171.319 58.502 171.332C58.5478 171.344 58.5018 171.635 58.3894 172.045C58.2769 172.455 58.231 172.745 58.2767 172.758C58.3222 172.77 58.2795 173.05 58.1731 173.438C57.9871 174.116 58.0101 174.338 58.2738 174.411C58.3404 174.429 58.3855 174.478 58.3739 174.521C58.3623 174.563 58.4916 174.636 58.6614 174.682C58.8311 174.729 58.9605 174.801 58.9489 174.844C58.9373 174.886 59.0319 174.949 59.1592 174.984C59.2865 175.019 59.3812 175.082 59.3696 175.125C59.358 175.167 59.4873 175.239 59.6571 175.286C59.8268 175.333 59.9561 175.405 59.9445 175.448C59.9329 175.49 60.0276 175.553 60.1549 175.588C60.2822 175.623 60.3768 175.686 60.3652 175.728C60.3536 175.771 60.483 175.843 60.6527 175.89C60.8225 175.936 60.9518 176.009 60.9402 176.051C60.9286 176.094 61.0233 176.157 61.1506 176.192C61.2779 176.227 61.3725 176.29 61.3609 176.332C61.3493 176.374 61.4787 176.447 61.6484 176.494C61.8181 176.54 61.9475 176.613 61.9359 176.655C61.9243 176.697 62.019 176.761 62.1463 176.795C62.2736 176.83 62.3682 176.894 62.3566 176.936C62.345 176.978 62.4744 177.051 62.6441 177.097C62.8138 177.144 62.9432 177.217 62.9316 177.259C62.92 177.301 63.0147 177.364 63.142 177.399C63.2692 177.434 63.3639 177.497 63.3523 177.54C63.3407 177.582 63.4701 177.655 63.6398 177.701C63.8095 177.748 63.9389 177.82 63.9273 177.863C63.9157 177.905 64.0103 177.968 64.1376 178.003C64.2649 178.038 64.3596 178.101 64.348 178.143C64.3364 178.186 64.4658 178.258 64.6355 178.305C64.8052 178.352 64.9346 178.424 64.923 178.466C64.9114 178.509 65.0407 178.581 65.2105 178.628C65.3802 178.675 65.5096 178.747 65.498 178.79C65.4864 178.832 65.581 178.895 65.7083 178.93C65.8356 178.965 65.9303 179.028 65.9187 179.07C65.9071 179.113 66.0017 179.176 66.129 179.211C66.2563 179.246 66.351 179.309 66.3394 179.351C66.3278 179.393 66.4571 179.466 66.6269 179.513C66.7966 179.559 66.9259 179.632 66.9143 179.674C66.9027 179.716 66.9974 179.78 67.1247 179.814C67.252 179.849 67.3466 179.913 67.335 179.955C67.3234 179.997 67.4528 180.07 67.6225 180.116C67.7923 180.163 67.9216 180.236 67.91 180.278C67.8984 180.32 67.9931 180.383 68.1204 180.418C68.2477 180.453 68.3423 180.516 68.3307 180.559C68.3191 180.601 68.4485 180.674 68.6182 180.72C68.7879 180.767 68.9173 180.839 68.9057 180.882C68.8941 180.924 68.9888 180.987 69.1161 181.022C69.2434 181.057 69.338 181.12 69.3264 181.162C69.3148 181.205 69.4442 181.277 69.6139 181.324C69.7836 181.37 69.913 181.443 69.9014 181.485C69.8898 181.528 69.9845 181.591 70.1118 181.626C70.239 181.661 70.3337 181.724 70.3221 181.766C70.3105 181.808 70.4399 181.881 70.6096 181.928C70.7793 181.974 70.9087 182.047 70.8971 182.089C70.8855 182.131 70.9801 182.195 71.1074 182.23C71.2347 182.264 71.3294 182.328 71.3178 182.37C71.3062 182.412 71.4356 182.485 71.6053 182.531C71.775 182.578 71.9044 182.651 71.8928 182.693C71.8812 182.735 71.9758 182.798 72.1031 182.833C72.2304 182.868 72.3251 182.931 72.3135 182.974C72.3019 183.016 72.4312 183.089 72.601 183.135C72.7707 183.182 72.9001 183.254 72.8885 183.297C72.8769 183.339 72.9715 183.402 73.0988 183.437C73.2261 183.472 73.3208 183.535 73.3092 183.578C73.2976 183.62 73.4269 183.692 73.5967 183.739C73.7664 183.786 73.8957 183.858 73.8841 183.901C73.8725 183.943 73.9672 184.006 74.0945 184.041C74.2218 184.076 74.3164 184.139 74.3048 184.181C74.2932 184.224 74.4226 184.296 74.5923 184.343C74.7621 184.389 74.8914 184.462 74.8798 184.504C74.8682 184.547 74.9629 184.61 75.0902 184.645C75.2175 184.68 75.3121 184.743 75.3005 184.785C75.2889 184.827 75.4183 184.9 75.588 184.947C75.7577 184.993 75.8871 185.066 75.8755 185.108C75.8639 185.15 75.9586 185.214 76.0859 185.248C76.2132 185.283 76.3078 185.347 76.2962 185.389C76.2846 185.431 76.414 185.504 76.5837 185.55C76.7534 185.597 76.8828 185.67 76.8712 185.712C76.8596 185.754 76.9543 185.817 77.0816 185.852C77.2088 185.887 77.3035 185.95 77.2919 185.993C77.2803 186.035 77.4097 186.108 77.5794 186.154C77.7491 186.201 77.8785 186.273 77.8669 186.316C77.8553 186.358 77.9499 186.421 78.0772 186.456C78.2045 186.491 78.2992 186.554 78.2876 186.596C78.276 186.639 78.4054 186.711 78.5751 186.758C78.7448 186.805 78.8742 186.877 78.8626 186.919C78.851 186.962 78.9456 187.025 79.0729 187.06C79.2002 187.095 79.2949 187.158 79.2833 187.2C79.2717 187.243 79.401 187.315 79.5708 187.362C79.7405 187.408 79.8699 187.481 79.8583 187.523C79.8467 187.566 79.9413 187.629 80.0686 187.664C80.1959 187.699 80.2906 187.762 80.279 187.804C80.2674 187.846 80.3967 187.919 80.5665 187.966C80.7362 188.012 80.8655 188.085 80.8539 188.127C80.8423 188.169 80.937 188.233 81.0643 188.267C81.1916 188.302 81.2862 188.366 81.2746 188.408C81.263 188.45 81.3924 188.523 81.5621 188.569C81.7319 188.616 81.8612 188.689 81.8496 188.731C81.838 188.773 81.9327 188.836 82.06 188.871C82.1873 188.906 82.2819 188.969 82.2703 189.012C82.2587 189.054 82.3881 189.127 82.5578 189.173C82.7275 189.22 82.8569 189.292 82.8453 189.335C82.8337 189.377 82.9284 189.44 83.0557 189.475C83.183 189.51 83.2776 189.573 83.266 189.615C83.2544 189.658 83.3838 189.73 83.5535 189.777C83.7232 189.823 83.8526 189.896 83.841 189.938C83.8294 189.981 83.9241 190.044 84.0514 190.079C84.1786 190.114 84.2733 190.177 84.2617 190.219C84.2501 190.261 84.3448 190.325 84.472 190.36C84.5993 190.394 84.694 190.458 84.6824 190.5C84.6708 190.542 84.8002 190.615 84.9699 190.661C85.1396 190.708 85.269 190.781 85.2574 190.823C85.2458 190.865 85.3752 190.938 85.5449 190.984C85.7146 191.031 85.844 191.104 85.8324 191.146C85.8208 191.188 85.9154 191.251 86.0427 191.286C86.17 191.321 86.2647 191.384 86.2531 191.427C86.2415 191.469 86.3708 191.542 86.5406 191.588C86.7103 191.635 86.8397 191.707 86.8281 191.75C86.8165 191.792 86.9111 191.855 87.0384 191.89C87.1657 191.925 87.2604 191.988 87.2488 192.031C87.2372 192.073 87.3665 192.145 87.5363 192.192C87.706 192.239 87.8353 192.311 87.8237 192.354C87.8121 192.396 87.9068 192.459 88.0341 192.494C88.1614 192.529 88.256 192.592 88.2444 192.634C88.2328 192.677 88.3622 192.749 88.5319 192.796C88.7017 192.842 88.831 192.915 88.8194 192.957C88.8078 193 88.9025 193.063 89.0298 193.098C89.1571 193.133 89.2517 193.196 89.2401 193.238C89.2285 193.28 89.3579 193.353 89.5276 193.4C89.6973 193.446 89.8267 193.519 89.8151 193.561C89.8035 193.603 89.8982 193.667 90.0255 193.702C90.1528 193.736 90.2474 193.8 90.2358 193.842C90.2242 193.884 90.3189 193.947 90.4462 193.982C90.5735 194.017 90.6681 194.08 90.6565 194.123C90.6449 194.165 90.7743 194.238 90.944 194.284C91.1137 194.331 91.2431 194.403 91.2315 194.446C91.2199 194.488 91.3493 194.561 91.519 194.607C91.6887 194.654 91.8181 194.726 91.8065 194.769C91.7949 194.811 91.8895 194.874 92.0168 194.909C92.1441 194.944 92.2388 195.007 92.2272 195.049C92.2156 195.092 92.345 195.164 92.5147 195.211C92.6844 195.258 92.8138 195.33 92.8022 195.372C92.7906 195.415 92.8852 195.478 93.0125 195.513C93.1398 195.548 93.2345 195.611 93.2229 195.653C93.2113 195.696 93.3406 195.768 93.5104 195.815C93.6801 195.861 93.8095 195.934 93.7979 195.976C93.7863 196.019 93.8809 196.082 94.0082 196.117C94.1355 196.152 94.2302 196.215 94.2186 196.257C94.207 196.299 94.3016 196.362 94.4289 196.397C94.5562 196.432 94.6509 196.495 94.6393 196.538C94.6277 196.58 94.757 196.653 94.9267 196.699C95.0965 196.746 95.2258 196.819 95.2142 196.861C95.2026 196.903 95.332 196.976 95.5017 197.022C95.6715 197.069 95.8008 197.142 95.7892 197.184C95.7775 197.227 95.9739 197.317 96.231 197.388C96.4881 197.458 96.7033 197.481 96.715 197.438C96.7266 197.395 96.8402 197.389 96.9675 197.424C97.0948 197.459 97.2084 197.453 97.22 197.411C97.2316 197.369 97.38 197.372 97.5497 197.419C97.7194 197.465 97.8678 197.469 97.8794 197.426C97.891 197.384 98.0046 197.378 98.1319 197.413C98.2592 197.448 98.3728 197.442 98.3844 197.4C98.396 197.357 98.5444 197.361 98.7141 197.407C98.8838 197.454 99.0322 197.457 99.0438 197.415C99.0554 197.373 99.169 197.367 99.2963 197.402C99.4236 197.437 99.5372 197.431 99.5488 197.388C99.5604 197.346 99.7088 197.35 99.8785 197.396C100.048 197.443 100.197 197.446 100.208 197.404C100.22 197.362 100.333 197.356 100.461 197.391C100.588 197.425 100.702 197.419 100.713 197.377C100.725 197.335 100.873 197.338 101.043 197.385C101.213 197.431 101.361 197.435 101.373 197.393C101.384 197.35 101.498 197.344 101.625 197.379C101.752 197.414 101.866 197.408 101.878 197.366C101.889 197.324 102.038 197.327 102.207 197.374C102.377 197.42 102.525 197.424 102.537 197.381C102.549 197.339 102.662 197.333 102.789 197.368C102.917 197.403 103.03 197.397 103.042 197.355C103.054 197.312 103.202 197.316 103.372 197.362C103.541 197.409 103.69 197.412 103.701 197.37C103.713 197.328 103.827 197.322 103.954 197.357C104.081 197.392 104.195 197.386 104.206 197.343C104.218 197.301 104.366 197.304 104.536 197.351C104.706 197.398 104.854 197.401 104.866 197.359C104.877 197.316 104.991 197.31 105.118 197.345C105.246 197.38 105.359 197.374 105.371 197.332C105.382 197.29 105.531 197.293 105.7 197.34C105.87 197.386 106.019 197.39 106.03 197.347C106.042 197.305 106.19 197.309 106.36 197.355C106.53 197.402 106.678 197.405 106.69 197.363C106.701 197.321 106.815 197.315 106.942 197.35C107.069 197.384 107.183 197.378 107.195 197.336C107.206 197.294 107.32 197.288 107.447 197.323C107.574 197.358 107.688 197.352 107.7 197.309C107.711 197.267 107.86 197.271 108.029 197.317C108.199 197.364 108.347 197.367 108.359 197.325C108.371 197.283 108.519 197.286 108.689 197.333C108.858 197.379 109.007 197.383 109.018 197.34C109.03 197.298 109.144 197.292 109.271 197.327C109.398 197.362 109.512 197.356 109.523 197.314C109.535 197.271 109.649 197.265 109.776 197.3C109.903 197.335 110.017 197.329 110.028 197.287C110.04 197.245 110.188 197.248 110.358 197.295C110.528 197.341 110.676 197.345 110.688 197.302C110.699 197.26 110.813 197.254 110.94 197.289C111.068 197.324 111.181 197.318 111.193 197.276C111.204 197.233 111.353 197.237 111.522 197.283C111.692 197.33 111.841 197.333 111.852 197.291C111.864 197.249 111.977 197.243 112.105 197.278C112.232 197.313 112.346 197.307 112.357 197.264C112.369 197.222 112.517 197.225 112.687 197.272C112.857 197.319 113.005 197.322 113.017 197.28C113.028 197.237 113.176 197.241 113.346 197.287C113.516 197.334 113.664 197.338 113.676 197.295C113.687 197.253 113.801 197.247 113.928 197.282C114.056 197.317 114.169 197.311 114.181 197.268C114.193 197.226 114.306 197.22 114.433 197.255C114.561 197.29 114.674 197.284 114.686 197.242C114.698 197.199 114.846 197.203 115.016 197.249C115.185 197.296 115.334 197.299 115.345 197.257C115.357 197.215 115.505 197.218 115.675 197.265C115.845 197.311 115.993 197.315 116.005 197.273C116.016 197.23 116.13 197.224 116.257 197.259C116.384 197.294 116.498 197.288 116.51 197.246C116.521 197.204 116.635 197.198 116.762 197.232C116.89 197.267 117.003 197.261 117.015 197.219C117.026 197.177 117.175 197.18 117.344 197.227C117.514 197.273 117.663 197.277 117.674 197.235C117.686 197.192 117.834 197.196 118.004 197.242C118.174 197.289 118.322 197.292 118.333 197.25C118.345 197.208 118.459 197.202 118.586 197.237C118.713 197.272 118.827 197.266 118.839 197.223C118.85 197.181 118.964 197.175 119.091 197.21C119.218 197.245 119.332 197.239 119.344 197.196C119.355 197.154 119.504 197.158 119.673 197.204C119.843 197.251 119.991 197.254 120.003 197.212C120.015 197.17 120.163 197.173 120.333 197.22C120.502 197.266 120.651 197.27 120.662 197.228C120.674 197.185 120.788 197.179 120.915 197.214C121.042 197.249 121.156 197.243 121.167 197.201C121.179 197.158 121.293 197.152 121.42 197.187C121.547 197.222 121.661 197.216 121.672 197.174C121.684 197.132 121.832 197.135 122.002 197.182C122.172 197.228 122.32 197.232 122.332 197.189C122.343 197.147 122.457 197.141 122.584 197.176C122.712 197.211 122.825 197.205 122.837 197.163C122.848 197.12 122.997 197.124 123.166 197.17C123.336 197.217 123.485 197.22 123.496 197.178C123.508 197.136 123.621 197.13 123.749 197.165C123.876 197.2 123.99 197.194 124.001 197.151C124.013 197.109 124.161 197.113 124.331 197.159C124.501 197.206 124.649 197.209 124.661 197.167C124.672 197.125 124.786 197.119 124.913 197.153C125.04 197.188 125.154 197.182 125.166 197.14C125.177 197.098 125.326 197.101 125.495 197.148C125.665 197.194 125.813 197.198 125.825 197.156C125.837 197.113 125.95 197.107 126.077 197.142C126.205 197.177 126.318 197.171 126.33 197.129C126.342 197.086 126.49 197.09 126.66 197.137C126.829 197.183 126.978 197.187 126.989 197.144C127.001 197.102 127.149 197.105 127.319 197.152C127.489 197.199 127.637 197.202 127.649 197.16C127.66 197.117 127.774 197.111 127.901 197.146C128.028 197.181 128.142 197.175 128.154 197.133C128.165 197.091 128.314 197.094 128.483 197.141C128.653 197.187 128.801 197.191 128.813 197.148C128.825 197.106 128.938 197.1 129.066 197.135C129.193 197.17 129.306 197.164 129.318 197.122C129.33 197.079 129.443 197.073 129.571 197.108C129.698 197.143 129.812 197.137 129.823 197.095C129.835 197.053 129.983 197.056 130.153 197.103C130.323 197.149 130.471 197.153 130.482 197.11C130.494 197.068 130.642 197.072 130.812 197.118C130.982 197.165 131.13 197.168 131.142 197.126C131.153 197.084 131.267 197.078 131.394 197.113C131.522 197.147 131.635 197.141 131.647 197.099C131.658 197.057 131.807 197.06 131.977 197.107C132.146 197.153 132.295 197.157 132.306 197.115C132.318 197.072 132.431 197.066 132.559 197.101C132.686 197.136 132.8 197.13 132.811 197.088C132.823 197.046 132.971 197.049 133.141 197.096C133.311 197.142 133.459 197.146 133.471 197.103C133.482 197.061 133.596 197.055 133.723 197.09C133.85 197.125 133.964 197.119 133.976 197.077C133.987 197.034 134.136 197.038 134.305 197.084C134.475 197.131 134.623 197.134 134.635 197.092C134.647 197.05 134.76 197.044 134.888 197.079C135.015 197.114 135.128 197.108 135.14 197.065C135.152 197.023 135.3 197.026 135.47 197.073C135.639 197.12 135.788 197.123 135.799 197.081C135.811 197.038 135.925 197.032 136.052 197.067C136.179 197.102 136.293 197.096 136.304 197.054C136.316 197.012 136.464 197.015 136.634 197.062C136.804 197.108 136.952 197.112 136.964 197.069C136.975 197.027 137.089 197.021 137.216 197.056C137.344 197.091 137.457 197.085 137.469 197.043C137.48 197 137.629 197.004 137.799 197.05C137.968 197.097 138.117 197.1 138.128 197.058C138.14 197.016 138.253 197.01 138.381 197.045C138.508 197.08 138.622 197.074 138.633 197.031C138.645 196.989 138.759 196.983 138.886 197.018C139.013 197.053 139.127 197.047 139.138 197.005C139.15 196.962 139.298 196.966 139.468 197.012C139.638 197.059 139.786 197.062 139.798 197.02C139.809 196.978 139.958 196.981 140.127 197.028C140.297 197.074 140.445 197.078 140.457 197.036C140.469 196.993 140.533 196.974 140.599 196.992C140.863 197.064 140.996 196.885 141.182 196.207C141.288 195.819 141.394 195.557 141.44 195.569C141.486 195.582 141.594 195.308 141.707 194.898C141.819 194.488 141.928 194.215 141.974 194.228C142.02 194.24 142.128 193.967 142.241 193.557C142.353 193.147 142.462 192.873 142.508 192.886C142.553 192.898 142.662 192.625 142.775 192.215C142.887 191.805 142.996 191.532 143.042 191.544C143.087 191.557 143.196 191.284 143.309 190.874C143.421 190.464 143.53 190.19 143.575 190.203C143.621 190.215 143.73 189.942 143.842 189.532C143.955 189.122 144.064 188.849 144.109 188.861C144.155 188.874 144.264 188.6 144.376 188.19C144.489 187.78 144.598 187.507 144.643 187.52C144.689 187.532 144.798 187.259 144.91 186.849C145.023 186.439 145.131 186.165 145.177 186.178C145.223 186.191 145.332 185.917 145.444 185.507C145.557 185.097 145.665 184.824 145.711 184.836C145.757 184.849 145.873 184.55 145.999 184.089C146.126 183.627 146.241 183.328 146.287 183.341C146.332 183.353 146.435 183.106 146.533 182.747C146.631 182.388 146.734 182.141 146.779 182.153C146.825 182.166 146.933 181.892 147.046 181.482C147.158 181.072 147.267 180.799 147.313 180.812C147.358 180.824 147.467 180.551 147.58 180.141C147.692 179.731 147.801 179.457 147.847 179.47C147.892 179.483 148.001 179.209 148.114 178.799C148.226 178.389 148.335 178.116 148.38 178.128C148.426 178.141 148.535 177.868 148.647 177.458C148.76 177.048 148.869 176.774 148.914 176.787C148.96 176.799 149.069 176.526 149.181 176.116C149.294 175.706 149.403 175.433 149.448 175.445C149.494 175.458 149.603 175.184 149.715 174.774C149.828 174.364 149.936 174.091 149.982 174.104C150.028 174.116 150.137 173.843 150.249 173.433C150.362 173.023 150.47 172.749 150.516 172.762C150.562 172.775 150.671 172.501 150.783 172.091C150.895 171.681 151.004 171.408 151.05 171.42C151.096 171.433 151.204 171.16 151.317 170.75C151.429 170.34 151.538 170.066 151.584 170.079C151.63 170.091 151.738 169.818 151.851 169.408C151.963 168.998 152.072 168.725 152.118 168.737C152.163 168.75 152.272 168.476 152.385 168.066C152.497 167.656 152.606 167.383 152.652 167.396C152.697 167.408 152.806 167.135 152.919 166.725C153.031 166.315 153.14 166.041 153.186 166.054C153.231 166.067 153.34 165.793 153.452 165.383C153.565 164.973 153.674 164.7 153.719 164.712C153.765 164.725 153.874 164.452 153.986 164.042C154.099 163.632 154.208 163.358 154.253 163.371C154.299 163.383 154.408 163.11 154.52 162.7C154.633 162.29 154.741 162.017 154.787 162.029C154.833 162.042 154.942 161.768 155.054 161.358C155.167 160.948 155.275 160.675 155.321 160.688C155.367 160.7 155.476 160.427 155.588 160.017C155.7 159.607 155.809 159.333 155.855 159.346C155.901 159.359 156.009 159.085 156.122 158.675C156.234 158.265 156.343 157.992 156.389 158.004C156.435 158.017 156.543 157.744 156.656 157.334C156.768 156.924 156.877 156.65 156.923 156.663C156.969 156.675 157.077 156.402 157.19 155.992C157.302 155.582 157.411 155.309 157.457 155.321C157.502 155.334 157.611 155.06 157.724 154.65C157.836 154.24 157.945 153.967 157.991 153.98C158.036 153.992 158.145 153.719 158.257 153.309C158.37 152.899 158.479 152.625 158.524 152.638C158.571 152.651 158.686 152.352 158.812 151.89C158.939 151.429 159.054 151.13 159.101 151.143C159.145 151.155 159.248 150.908 159.346 150.549C159.445 150.19 159.547 149.942 159.592 149.955C159.638 149.967 159.747 149.694 159.859 149.284C159.972 148.874 160.08 148.601 160.126 148.613C160.172 148.626 160.281 148.352 160.393 147.942C160.506 147.532 160.614 147.259 160.66 147.272C160.706 147.284 160.814 147.011 160.927 146.601C161.039 146.191 161.148 145.917 161.194 145.93C161.24 145.943 161.348 145.669 161.461 145.259C161.573 144.849 161.682 144.576 161.728 144.588C161.774 144.601 161.889 144.302 162.016 143.841C162.142 143.379 162.258 143.08 162.304 143.093C162.349 143.105 162.451 142.858 162.55 142.499C162.648 142.14 162.751 141.893 162.796 141.905C162.841 141.918 162.95 141.644 163.063 141.234C163.175 140.824 163.284 140.551 163.329 140.564C163.375 140.576 163.484 140.303 163.596 139.893C163.709 139.483 163.818 139.209 163.863 139.222C163.909 139.235 164.018 138.961 164.13 138.551C164.243 138.141 164.351 137.868 164.397 137.88C164.443 137.893 164.552 137.62 164.664 137.21C164.777 136.8 164.885 136.526 164.931 136.539C164.977 136.551 165.086 136.278 165.198 135.868C165.311 135.458 165.419 135.185 165.465 135.197C165.511 135.21 165.62 134.936 165.732 134.526C165.844 134.116 165.953 133.843 165.999 133.856C166.045 133.868 166.153 133.595 166.266 133.185C166.378 132.775 166.487 132.502 166.533 132.514C166.579 132.527 166.694 132.228 166.821 131.766C166.947 131.305 167.063 131.006 167.109 131.019C167.154 131.031 167.256 130.784 167.355 130.425C167.453 130.066 167.556 129.819 167.601 129.831C167.646 129.843 167.755 129.57 167.868 129.16C167.98 128.75 168.089 128.477 168.134 128.489C168.18 128.502 168.289 128.228 168.401 127.818C168.514 127.408 168.623 127.135 168.668 127.148C168.714 127.16 168.823 126.887 168.935 126.477C169.048 126.067 169.157 125.794 169.202 125.806C169.248 125.819 169.357 125.545 169.469 125.135C169.582 124.725 169.69 124.452 169.736 124.464C169.782 124.477 169.898 124.178 170.024 123.717C170.151 123.255 170.266 122.956 170.312 122.969C170.357 122.981 170.46 122.734 170.558 122.375C170.657 122.016 170.759 121.769 170.804 121.781C170.85 121.794 170.965 121.495 171.092 121.034C171.219 120.572 171.334 120.273 171.38 120.286C171.425 120.298 171.527 120.051 171.626 119.692C171.724 119.333 171.827 119.086 171.872 119.098C171.917 119.111 172.026 118.837 172.139 118.427C172.251 118.017 172.36 117.744 172.406 117.756C172.451 117.769 172.56 117.496 172.673 117.086C172.785 116.676 172.894 116.402 172.94 116.415C172.986 116.428 173.101 116.128 173.228 115.667C173.354 115.206 173.469 114.907 173.516 114.92C173.561 114.932 173.663 114.684 173.761 114.326C173.86 113.967 173.962 113.719 174.007 113.732C174.053 113.744 174.162 113.471 174.274 113.061C174.387 112.651 174.495 112.378 174.541 112.39C174.587 112.403 174.703 112.104 174.829 111.642C174.956 111.181 175.071 110.882 175.117 110.895C175.162 110.907 175.265 110.66 175.363 110.301C175.462 109.942 175.564 109.695 175.609 109.707C175.655 109.719 175.763 109.446 175.876 109.036C175.988 108.626 176.097 108.353 176.143 108.365C176.189 108.378 176.297 108.105 176.41 107.694C176.522 107.284 176.631 107.011 176.677 107.024C176.722 107.036 176.831 106.763 176.944 106.353C177.056 105.943 177.165 105.67 177.211 105.682C177.256 105.695 177.365 105.421 177.478 105.011C177.59 104.601 177.699 104.328 177.745 104.34C177.79 104.353 177.899 104.08 178.011 103.67C178.124 103.26 178.233 102.986 178.278 102.999C178.324 103.011 178.433 102.738 178.545 102.328C178.658 101.918 178.767 101.645 178.812 101.657C178.859 101.67 178.974 101.371 179.1 100.91C179.227 100.448 179.342 100.149 179.388 100.162C179.433 100.174 179.536 99.9268 179.634 99.568C179.733 99.2092 179.835 98.9618 179.88 98.9741C179.926 98.9867 180.035 98.7133 180.147 98.3033C180.26 97.8933 180.368 97.62 180.414 97.6325C180.46 97.6451 180.568 97.3717 180.681 96.9617C180.793 96.5517 180.902 96.2784 180.948 96.2909C180.994 96.3036 181.109 96.0045 181.236 95.5432C181.362 95.0819 181.478 94.7828 181.524 94.7955C181.566 94.8072 181.639 94.6783 181.685 94.5092L181.77 94.2016L128.539 79.6008L75.3086 65L75.2242 65.3075ZM151.583 111.356C151.651 111.475 151.648 111.522 151.572 111.526C151.495 111.53 151.385 111.833 151.153 112.678C150.958 113.391 150.81 113.817 150.762 113.804C150.713 113.79 150.551 114.269 150.326 115.09C150.101 115.91 149.939 116.389 149.89 116.375C149.842 116.362 149.687 116.816 149.476 117.584C149.265 118.353 149.109 118.807 149.061 118.793C149.013 118.78 148.864 119.208 148.668 119.926C148.471 120.643 148.322 121.071 148.274 121.058C148.226 121.044 148.07 121.498 147.86 122.267C147.649 123.035 147.493 123.489 147.445 123.476C147.397 123.462 147.234 123.941 147.009 124.761C146.784 125.582 146.622 126.061 146.574 126.047C146.525 126.034 146.37 126.488 146.159 127.256C145.948 128.025 145.793 128.479 145.745 128.465C145.697 128.452 145.555 128.854 145.372 129.521C145.189 130.187 145.048 130.589 145 130.576C144.951 130.563 144.789 131.042 144.564 131.862C144.339 132.682 144.177 133.161 144.128 133.148C144.08 133.134 143.925 133.588 143.714 134.357C143.503 135.125 143.348 135.579 143.299 135.566C143.251 135.552 143.103 135.98 142.906 136.698C142.709 137.415 142.56 137.843 142.512 137.83C142.464 137.816 142.302 138.295 142.077 139.116C141.852 139.936 141.689 140.415 141.641 140.401C141.593 140.388 141.437 140.842 141.226 141.61C141.016 142.379 140.86 142.833 140.812 142.819C140.763 142.806 140.594 143.311 140.355 144.182C140.116 145.054 139.947 145.558 139.898 145.545C139.851 145.532 139.709 145.934 139.526 146.6C139.343 147.267 139.201 147.669 139.154 147.655C139.105 147.642 138.943 148.121 138.718 148.941C138.493 149.761 138.331 150.24 138.282 150.227C138.234 150.214 138.079 150.667 137.868 151.436C137.657 152.205 137.501 152.658 137.453 152.645C137.405 152.632 137.235 153.137 136.996 154.008C136.757 154.879 136.588 155.384 136.54 155.371C136.492 155.358 136.35 155.76 136.167 156.426C135.985 157.092 135.843 157.494 135.795 157.481C135.746 157.468 135.577 157.973 135.338 158.844C135.099 159.715 134.93 160.22 134.881 160.207C134.833 160.193 134.678 160.647 134.467 161.416C134.256 162.184 134.1 162.638 134.052 162.625C134.004 162.611 133.842 163.09 133.617 163.91C133.392 164.731 133.229 165.21 133.181 165.196C133.133 165.183 132.984 165.611 132.787 166.328C132.591 167.046 132.442 167.474 132.394 167.461C132.346 167.447 132.183 167.926 131.958 168.746C131.733 169.567 131.571 170.046 131.523 170.032C131.475 170.019 131.322 170.461 131.118 171.206C130.798 172.373 130.784 172.405 130.549 172.538C130.416 172.614 130.219 172.651 130.111 172.621C130.003 172.592 129.905 172.602 129.894 172.644C129.882 172.687 129.734 172.683 129.564 172.636C129.394 172.59 129.246 172.586 129.234 172.629C129.223 172.671 129.109 172.677 128.982 172.642C128.855 172.607 128.741 172.613 128.729 172.656C128.718 172.698 128.639 172.713 128.554 172.69C128.469 172.667 128.39 172.682 128.379 172.725C128.367 172.767 128.253 172.773 128.126 172.738C127.999 172.703 127.885 172.709 127.874 172.751C127.862 172.794 127.714 172.79 127.544 172.744C127.374 172.697 127.226 172.694 127.214 172.736C127.203 172.778 127.089 172.784 126.962 172.749C126.834 172.714 126.721 172.72 126.709 172.763C126.698 172.805 126.584 172.811 126.457 172.776C126.329 172.741 126.216 172.747 126.204 172.79C126.193 172.832 126.079 172.838 125.952 172.803C125.824 172.768 125.711 172.774 125.699 172.816C125.687 172.859 125.574 172.865 125.447 172.83C125.319 172.795 125.206 172.801 125.194 172.843C125.182 172.885 125.069 172.891 124.942 172.857C124.814 172.822 124.701 172.828 124.689 172.87C124.677 172.912 124.564 172.918 124.436 172.883C124.309 172.848 124.196 172.854 124.184 172.897C124.172 172.939 124.059 172.945 123.931 172.91C123.804 172.875 123.69 172.881 123.679 172.924C123.667 172.966 123.554 172.972 123.426 172.937C123.299 172.902 123.185 172.908 123.174 172.95C123.162 172.993 123.049 172.999 122.921 172.964C122.794 172.929 122.68 172.935 122.669 172.977C122.657 173.019 122.544 173.026 122.416 172.991C122.289 172.956 122.175 172.962 122.164 173.004C122.152 173.046 122.038 173.052 121.911 173.017C121.784 172.982 121.67 172.989 121.659 173.031C121.647 173.073 121.533 173.079 121.406 173.044C121.279 173.009 121.165 173.015 121.154 173.058C121.142 173.1 121.028 173.106 120.901 173.071C120.774 173.036 120.66 173.042 120.649 173.084C120.637 173.127 120.523 173.133 120.396 173.098C120.269 173.063 120.155 173.069 120.144 173.111C120.132 173.154 119.984 173.15 119.814 173.103C119.644 173.057 119.496 173.053 119.484 173.096C119.473 173.138 119.359 173.144 119.232 173.109C119.104 173.074 118.991 173.08 118.979 173.123C118.968 173.165 118.854 173.171 118.727 173.136C118.599 173.101 118.486 173.107 118.474 173.149C118.462 173.192 118.349 173.198 118.222 173.163C118.094 173.128 117.981 173.134 117.969 173.176C117.957 173.218 117.844 173.224 117.716 173.19C117.589 173.155 117.476 173.161 117.464 173.203C117.452 173.245 117.339 173.251 117.211 173.216C117.084 173.181 116.97 173.187 116.959 173.23C116.947 173.272 116.834 173.278 116.706 173.243C116.579 173.208 116.465 173.214 116.454 173.257C116.442 173.299 116.329 173.305 116.201 173.27C116.074 173.235 115.96 173.241 115.949 173.283C115.937 173.326 115.824 173.332 115.696 173.297C115.569 173.262 115.455 173.268 115.444 173.31C115.432 173.352 115.319 173.358 115.191 173.324C115.064 173.289 114.95 173.295 114.939 173.337C114.927 173.379 114.813 173.385 114.686 173.35C114.559 173.315 114.445 173.321 114.434 173.364C114.422 173.406 114.308 173.412 114.181 173.377C114.054 173.342 113.94 173.348 113.929 173.391C113.917 173.433 113.803 173.439 113.676 173.404C113.549 173.369 113.435 173.375 113.424 173.417C113.412 173.46 113.298 173.466 113.171 173.431C113.044 173.396 112.93 173.402 112.918 173.444C112.907 173.486 112.793 173.492 112.666 173.458C112.539 173.423 112.425 173.429 112.413 173.471C112.402 173.513 112.288 173.519 112.161 173.484C112.034 173.449 111.92 173.456 111.908 173.498C111.897 173.54 111.748 173.537 111.579 173.49C111.409 173.443 111.261 173.44 111.249 173.482C111.237 173.525 111.124 173.531 110.996 173.496C110.869 173.461 110.756 173.467 110.744 173.509C110.732 173.551 110.619 173.557 110.491 173.522C110.364 173.488 110.251 173.494 110.239 173.536C110.227 173.578 110.114 173.584 109.986 173.549C109.859 173.514 109.745 173.52 109.734 173.563C109.722 173.605 109.609 173.611 109.481 173.576C109.354 173.541 109.24 173.547 109.229 173.589C109.217 173.632 109.104 173.638 108.976 173.603C108.849 173.568 108.735 173.574 108.724 173.616C108.712 173.659 108.599 173.665 108.471 173.63C108.344 173.595 108.23 173.601 108.219 173.643C108.207 173.685 108.093 173.691 107.966 173.657C107.839 173.622 107.725 173.628 107.714 173.67C107.702 173.712 107.588 173.718 107.461 173.683C107.334 173.648 107.22 173.654 107.209 173.697C107.197 173.739 107.083 173.745 106.956 173.71C106.829 173.675 106.715 173.681 106.704 173.724C106.692 173.766 106.578 173.772 106.451 173.737C106.324 173.702 106.21 173.708 106.198 173.75C106.187 173.793 106.073 173.799 105.946 173.764C105.819 173.729 105.705 173.735 105.693 173.777C105.682 173.819 105.568 173.825 105.441 173.791C105.314 173.756 105.2 173.762 105.188 173.804C105.177 173.846 105.063 173.852 104.936 173.817C104.809 173.782 104.695 173.788 104.683 173.831C104.672 173.873 104.558 173.879 104.431 173.844C104.304 173.809 104.19 173.815 104.178 173.858C104.167 173.9 104.053 173.906 103.926 173.871C103.798 173.836 103.685 173.842 103.673 173.884C103.662 173.927 103.513 173.923 103.344 173.877C103.174 173.83 103.025 173.827 103.014 173.869C103.002 173.911 102.923 173.927 102.839 173.903C102.754 173.88 102.694 173.826 102.705 173.784C102.717 173.742 102.622 173.679 102.495 173.644C102.368 173.609 102.273 173.546 102.285 173.503C102.296 173.461 102.202 173.398 102.074 173.363C101.947 173.328 101.852 173.265 101.864 173.223C101.876 173.18 101.781 173.117 101.654 173.082C101.526 173.047 101.432 172.984 101.443 172.942C101.455 172.9 101.325 172.827 101.156 172.78C100.986 172.734 100.857 172.661 100.868 172.619C100.88 172.577 100.785 172.513 100.658 172.479C100.531 172.444 100.436 172.38 100.448 172.338C100.459 172.296 100.364 172.233 100.237 172.198C100.11 172.163 100.015 172.1 100.027 172.057C100.038 172.015 99.9438 171.952 99.8165 171.917C99.6892 171.882 99.5945 171.819 99.6061 171.777C99.6177 171.734 99.5231 171.671 99.3958 171.636C99.2685 171.601 99.1738 171.538 99.1854 171.496C99.197 171.454 99.1024 171.391 98.9751 171.356C98.8478 171.321 98.7531 171.258 98.7647 171.215C98.7763 171.173 98.6817 171.11 98.5544 171.075C98.4271 171.04 98.3324 170.977 98.344 170.935C98.3556 170.892 98.261 170.829 98.1337 170.794C98.0064 170.759 97.9118 170.696 97.9233 170.654C97.9349 170.612 97.8403 170.548 97.713 170.513C97.5857 170.479 97.4911 170.415 97.5027 170.373C97.5143 170.331 97.4196 170.268 97.2923 170.233C97.165 170.198 97.0704 170.135 97.082 170.092C97.0936 170.05 96.9989 169.987 96.8716 169.952C96.7443 169.917 96.6497 169.854 96.6613 169.812C96.6729 169.769 96.5782 169.706 96.4509 169.671C96.3236 169.636 96.229 169.573 96.2406 169.531C96.2522 169.489 96.1575 169.425 96.0302 169.391C95.9029 169.356 95.8083 169.292 95.8199 169.25C95.8315 169.208 95.7368 169.145 95.6095 169.11C95.4822 169.075 95.3876 169.012 95.3992 168.969C95.4108 168.927 95.2814 168.854 95.1117 168.808C94.942 168.761 94.8126 168.689 94.8242 168.646C94.8358 168.604 94.7411 168.541 94.6138 168.506C94.4865 168.471 94.3919 168.408 94.4035 168.366C94.4151 168.323 94.3204 168.26 94.1931 168.225C94.0658 168.19 93.9712 168.127 93.9828 168.085C93.9944 168.043 93.8997 167.979 93.7724 167.945C93.6451 167.91 93.5505 167.846 93.5621 167.804C93.5737 167.762 93.479 167.699 93.3517 167.664C93.2244 167.629 93.1298 167.566 93.1414 167.523C93.153 167.481 93.0583 167.418 92.931 167.383C92.8038 167.348 92.7091 167.285 92.7207 167.243C92.7323 167.2 92.6376 167.137 92.5103 167.102C92.3831 167.067 92.2884 167.004 92.3 166.962C92.3116 166.92 92.2169 166.857 92.0896 166.822C91.9624 166.787 91.8677 166.724 91.8793 166.681C91.8909 166.639 91.7962 166.576 91.6689 166.541C91.5417 166.506 91.447 166.443 91.4586 166.401C91.4702 166.358 91.3755 166.295 91.2483 166.26C91.121 166.225 91.0263 166.162 91.0379 166.12C91.0495 166.077 90.9548 166.014 90.8276 165.979C90.7003 165.944 90.6056 165.881 90.6172 165.839C90.6288 165.797 90.5341 165.734 90.4069 165.699C90.2796 165.664 90.1849 165.601 90.1965 165.558C90.2081 165.516 90.1135 165.453 89.9862 165.418C89.8589 165.383 89.7642 165.32 89.7758 165.278C89.7874 165.235 89.6928 165.172 89.5655 165.137C89.4382 165.102 89.3435 165.039 89.3551 164.997C89.3667 164.955 89.2721 164.891 89.1448 164.856C89.0175 164.822 88.9228 164.758 88.9344 164.716C88.946 164.674 88.8514 164.611 88.7241 164.576C88.5968 164.541 88.5021 164.478 88.5137 164.435C88.5253 164.393 88.4307 164.33 88.3034 164.295C88.1761 164.26 88.0814 164.197 88.093 164.155C88.1046 164.112 88.01 164.049 87.8827 164.014C87.7554 163.979 87.6607 163.916 87.6723 163.874C87.6839 163.832 87.5546 163.759 87.3848 163.712C87.2151 163.666 87.0857 163.593 87.0973 163.551C87.1089 163.509 87.0143 163.445 86.887 163.41C86.7597 163.376 86.665 163.312 86.6766 163.27C86.6882 163.228 86.6283 163.174 86.5434 163.151C86.4586 163.128 86.3986 163.074 86.4102 163.032C86.4218 162.989 86.2925 162.917 86.1227 162.87C85.953 162.824 85.8236 162.751 85.8352 162.709C85.8468 162.666 85.7522 162.603 85.6249 162.568C85.4976 162.533 85.403 162.47 85.4146 162.428C85.4261 162.386 85.3315 162.322 85.2042 162.288C85.0769 162.253 84.9823 162.189 84.9939 162.147C85.0055 162.105 84.9108 162.042 84.7835 162.007C84.6562 161.972 84.5616 161.909 84.5732 161.866C84.5848 161.824 84.4901 161.761 84.3628 161.726C84.2355 161.691 84.1409 161.628 84.1525 161.586C84.1641 161.543 84.0694 161.48 83.9421 161.445C83.8148 161.41 83.7202 161.347 83.7318 161.305C83.7434 161.263 83.6487 161.2 83.5214 161.165C83.3941 161.13 83.2995 161.067 83.3111 161.024C83.3227 160.982 83.228 160.919 83.1007 160.884C82.9734 160.849 82.8788 160.786 82.8904 160.744C82.902 160.701 82.8073 160.638 82.68 160.603C82.5527 160.568 82.4581 160.505 82.4697 160.463C82.4813 160.421 82.3866 160.357 82.2593 160.322C82.132 160.288 82.0374 160.224 82.049 160.182C82.0606 160.14 81.9659 160.077 81.8386 160.042C81.7113 160.007 81.6167 159.944 81.6283 159.901C81.6399 159.859 81.5452 159.796 81.4179 159.761C81.2906 159.726 81.196 159.663 81.2076 159.621C81.2192 159.578 81.1245 159.515 80.9972 159.48C80.8699 159.445 80.7753 159.382 80.7869 159.34C80.7985 159.298 80.6691 159.225 80.4994 159.178C80.3297 159.132 80.2003 159.059 80.2119 159.017C80.2235 158.975 80.1636 158.921 80.0787 158.898C79.9938 158.874 79.9339 158.821 79.9455 158.778C79.9571 158.736 79.8971 158.682 79.8123 158.659C79.6837 158.624 79.6721 158.566 79.7424 158.309C79.7887 158.14 79.792 157.992 79.7496 157.981C79.7013 157.967 79.7989 157.498 80.0098 156.729C80.2207 155.96 80.3183 155.491 80.2701 155.478C80.2214 155.465 80.3406 154.919 80.5937 153.996C80.8467 153.073 80.966 152.527 80.9172 152.514C80.8684 152.501 80.9877 151.955 81.2407 151.032C81.4938 150.11 81.613 149.564 81.5643 149.55C81.5159 149.537 81.6207 149.042 81.8457 148.222C82.0706 147.402 82.1754 146.907 82.127 146.894C82.0784 146.88 82.1905 146.36 82.4295 145.489C82.6685 144.617 82.7805 144.097 82.7319 144.084C82.6832 144.07 82.8024 143.524 83.0555 142.602C83.3085 141.679 83.4278 141.133 83.379 141.12C83.3366 141.108 83.3208 141.029 83.344 140.945C83.3859 140.792 83.4377 140.805 89.8665 142.568L96.3467 144.346L96.1358 145.115C96.0093 145.576 95.9558 145.892 96.0021 145.905C96.0515 145.918 95.8824 146.644 95.5309 147.925C95.1794 149.206 95.0103 149.932 95.0598 149.945C95.108 149.958 95.0104 150.428 94.7995 151.196L94.4621 152.427L94.6935 152.49C94.8208 152.525 94.9154 152.588 94.9038 152.63C94.8922 152.673 94.9869 152.736 95.1142 152.771C95.2415 152.806 95.3361 152.869 95.3245 152.911C95.3129 152.953 95.4076 153.017 95.5349 153.052C95.6622 153.086 95.7568 153.15 95.7452 153.192C95.7336 153.234 95.8283 153.297 95.9556 153.332C96.0829 153.367 96.1775 153.43 96.1659 153.473C96.1543 153.515 96.249 153.578 96.3763 153.613C96.5036 153.648 96.5982 153.711 96.5866 153.753C96.575 153.796 96.6697 153.859 96.797 153.894C96.9243 153.929 97.0189 153.992 97.0073 154.034C96.9957 154.076 97.0904 154.14 97.2177 154.174C97.345 154.209 97.4396 154.273 97.428 154.315C97.4164 154.357 97.5111 154.42 97.6384 154.455C97.7657 154.49 97.8603 154.553 97.8487 154.596C97.8371 154.638 97.9318 154.701 98.0591 154.736C98.1864 154.771 98.281 154.834 98.2694 154.876C98.2578 154.919 98.3178 154.972 98.4026 154.996C98.4875 155.019 98.5474 155.072 98.5358 155.115C98.5242 155.157 98.6189 155.22 98.7462 155.255C98.8735 155.29 98.9681 155.353 98.9565 155.395C98.9449 155.438 99.0743 155.51 99.244 155.557C99.4137 155.604 99.5431 155.676 99.5315 155.718C99.5199 155.761 99.5799 155.814 99.6647 155.838C99.7496 155.861 99.8095 155.915 99.7979 155.957C99.7863 155.999 99.881 156.062 100.008 156.097C100.136 156.132 100.23 156.195 100.219 156.238C100.207 156.28 100.302 156.343 100.429 156.378C100.556 156.413 100.651 156.476 100.639 156.518C100.628 156.561 100.722 156.624 100.85 156.659C100.977 156.694 101.072 156.757 101.06 156.799C101.048 156.841 101.143 156.905 101.27 156.939C101.398 156.974 101.492 157.038 101.481 157.08C101.469 157.122 101.564 157.185 101.691 157.22C101.818 157.255 101.913 157.318 101.901 157.361C101.89 157.403 101.984 157.466 102.112 157.501C102.239 157.536 102.334 157.599 102.322 157.641C102.31 157.684 102.405 157.747 102.532 157.782C102.66 157.817 102.754 157.88 102.743 157.922C102.731 157.964 102.826 158.027 102.953 158.062C103.08 158.097 103.175 158.16 103.163 158.203C103.152 158.245 103.247 158.308 103.374 158.343C103.501 158.378 103.596 158.441 103.584 158.484C103.573 158.526 103.667 158.589 103.795 158.624C103.922 158.659 104.016 158.722 104.005 158.764C103.993 158.807 104.088 158.87 104.215 158.905C104.343 158.94 104.437 159.003 104.426 159.045C104.414 159.087 104.509 159.15 104.636 159.185C104.763 159.22 104.858 159.283 104.846 159.326C104.835 159.368 104.895 159.422 104.979 159.445C105.064 159.468 105.124 159.522 105.113 159.564C105.101 159.606 105.23 159.679 105.4 159.726C105.57 159.772 105.699 159.845 105.688 159.887C105.676 159.929 105.736 159.983 105.821 160.006C105.906 160.03 105.966 160.083 105.954 160.126C105.942 160.168 106.037 160.231 106.164 160.266C106.292 160.301 106.386 160.364 106.375 160.406C106.363 160.449 106.423 160.502 106.508 160.526C106.593 160.549 106.672 160.533 106.683 160.491C106.695 160.449 106.809 160.443 106.936 160.478C107.063 160.512 107.177 160.506 107.188 160.464C107.2 160.422 107.314 160.416 107.441 160.451C107.568 160.486 107.682 160.48 107.693 160.437C107.705 160.395 107.819 160.389 107.946 160.424C108.073 160.459 108.187 160.453 108.199 160.411C108.21 160.368 108.324 160.362 108.451 160.397C108.578 160.432 108.692 160.426 108.704 160.384C108.715 160.341 108.794 160.326 108.879 160.349C108.964 160.372 109.043 160.357 109.054 160.315C109.066 160.272 109.18 160.266 109.307 160.301C109.434 160.336 109.548 160.33 109.559 160.288C109.571 160.246 109.719 160.249 109.889 160.296C110.059 160.342 110.207 160.346 110.219 160.303C110.23 160.261 110.309 160.245 110.394 160.269C110.479 160.292 110.558 160.276 110.569 160.234C110.581 160.192 110.695 160.186 110.822 160.221C110.949 160.256 111.063 160.25 111.075 160.207C111.086 160.165 111.2 160.159 111.327 160.194C111.454 160.229 111.568 160.223 111.58 160.181C111.591 160.138 111.705 160.132 111.832 160.167C111.959 160.202 112.073 160.196 112.085 160.154C112.096 160.111 112.21 160.105 112.337 160.14C112.464 160.175 112.578 160.169 112.59 160.127C112.601 160.085 112.715 160.079 112.842 160.114C112.97 160.148 113.083 160.142 113.095 160.1C113.106 160.058 113.22 160.052 113.347 160.087C113.475 160.122 113.588 160.116 113.6 160.073C113.611 160.031 113.725 160.025 113.852 160.06C113.98 160.095 114.093 160.089 114.105 160.047C114.116 160.004 114.23 159.998 114.357 160.033C114.485 160.068 114.598 160.062 114.61 160.02C114.622 159.977 114.735 159.971 114.862 160.006C114.99 160.041 115.103 160.035 115.115 159.993C115.127 159.951 115.24 159.945 115.367 159.98C115.495 160.014 115.608 160.008 115.62 159.966C115.632 159.924 115.745 159.918 115.873 159.953C116 159.988 116.113 159.982 116.125 159.939C116.137 159.897 116.25 159.891 116.378 159.926C116.505 159.961 116.619 159.955 116.63 159.913C116.642 159.87 116.755 159.864 116.883 159.899C117.01 159.934 117.124 159.928 117.135 159.886C117.147 159.843 117.26 159.837 117.388 159.872C117.515 159.907 117.629 159.901 117.64 159.859C117.652 159.817 117.765 159.811 117.893 159.846C118.02 159.88 118.134 159.874 118.145 159.832C118.157 159.79 118.236 159.774 118.321 159.798C118.406 159.821 118.484 159.805 118.496 159.763C118.508 159.721 118.621 159.715 118.749 159.75C118.876 159.784 118.989 159.778 119.001 159.736C119.013 159.694 119.126 159.688 119.254 159.723C119.381 159.758 119.495 159.752 119.506 159.709C119.518 159.667 119.631 159.661 119.759 159.696C119.886 159.731 120 159.725 120.011 159.683C120.023 159.64 120.136 159.634 120.264 159.669C120.391 159.704 120.505 159.698 120.516 159.656C120.528 159.613 120.641 159.607 120.769 159.642L121 159.706L121.169 159.091C121.267 158.732 121.37 158.485 121.415 158.497C121.463 158.51 121.604 158.108 121.787 157.442C121.97 156.775 122.112 156.373 122.16 156.386C122.207 156.4 122.349 155.998 122.532 155.331C122.715 154.665 122.857 154.263 122.904 154.276C122.953 154.289 123.108 153.836 123.319 153.067C123.53 152.298 123.685 151.845 123.733 151.858C123.781 151.871 123.93 151.443 124.127 150.726C124.324 150.008 124.472 149.581 124.52 149.594C124.568 149.607 124.71 149.205 124.893 148.539C125.076 147.872 125.217 147.47 125.265 147.483C125.313 147.496 125.448 147.12 125.617 146.505L125.891 145.506L111.696 141.612L97.501 137.718L97.7541 136.796C97.9087 136.232 97.9771 135.865 97.93 135.852C97.8818 135.839 97.9794 135.37 98.1903 134.601C98.4012 133.832 98.4988 133.363 98.4506 133.349C98.3392 133.319 98.434 133.037 98.563 133.015C98.65 133 98.6549 132.982 98.5876 132.925C98.5247 132.872 98.6039 132.488 98.9024 131.4C99.1543 130.481 99.2729 129.938 99.2242 129.924C99.1752 129.911 99.3087 129.314 99.5899 128.288C99.8711 127.263 100.005 126.666 99.9556 126.653C99.9085 126.64 99.9769 126.273 100.132 125.709L100.385 124.786L115.164 128.84C127.869 132.325 129.962 132.883 130.083 132.814C130.192 132.753 130.292 132.483 130.53 131.614C130.721 130.919 130.867 130.502 130.915 130.515C130.962 130.528 131.09 130.178 131.245 129.614C131.4 129.05 131.528 128.699 131.575 128.712C131.623 128.725 131.758 128.349 131.927 127.734C132.095 127.119 132.23 126.743 132.278 126.756C132.325 126.769 132.46 126.392 132.629 125.777C132.798 125.162 132.933 124.786 132.981 124.799C133.028 124.812 133.177 124.384 133.374 123.667C133.571 122.949 133.719 122.522 133.767 122.535C133.815 122.548 133.943 122.197 134.098 121.633C134.252 121.069 134.381 120.719 134.428 120.732C134.542 120.763 134.583 120.532 134.491 120.371C134.422 120.251 131.35 119.392 112.226 114.146C90.0928 108.075 90.0414 108.06 90.0835 107.907C90.1067 107.822 90.0909 107.744 90.0485 107.732C90.0008 107.719 90.0838 107.301 90.2666 106.635C90.4494 105.968 90.5325 105.55 90.4847 105.537C90.4376 105.524 90.506 105.157 90.6606 104.593C90.8153 104.029 90.8837 103.662 90.8365 103.649C90.7894 103.637 90.8578 103.27 91.0125 102.706C91.1671 102.142 91.2355 101.775 91.1884 101.762C91.1404 101.749 91.2308 101.305 91.4276 100.588C91.6244 99.87 91.7147 99.4263 91.6668 99.4131C91.619 99.4 91.7021 98.9819 91.8849 98.3156C92.0676 97.6492 92.1507 97.2311 92.103 97.218C92.0558 97.2051 92.1236 96.8402 92.2771 96.2806C92.4548 95.6329 92.5036 95.3479 92.4437 95.3079C92.3812 95.2662 92.3975 95.2264 92.5061 95.156C92.6421 95.0678 94.8864 95.6728 122.071 103.127C149.449 110.633 151.496 111.204 151.583 111.356Z" fill="#C5BDB4"/>
</svg>
