<svg width="780" height="245" viewBox="0 0 780 245" fill="none" xmlns="http://www.w3.org/2000/svg">
<path fill-rule="evenodd" clip-rule="evenodd" d="M460.874 2.56578C454.616 6.8246 452.134 11.0496 452.134 17.4425C452.134 26.4245 458.768 33.5758 468.045 34.5921C473.642 35.2058 479.085 32.402 483.269 26.75C493.592 12.8056 475.125 -7.13381 460.874 2.56578ZM2.86449 8.63897L0 11.5023V106.107V200.711L58.6316 200.379C116.306 200.052 117.34 200.004 122.01 197.505C124.621 196.108 128.678 192.838 131.026 190.239C139.197 181.196 138.849 185.071 138.849 103.047C138.849 30.1256 138.814 29.0113 136.375 23.8237C135.015 20.9289 131.573 16.5114 128.727 14.0062C119.389 5.78731 119.284 5.77448 59.2453 5.77448H5.72781L2.86449 8.63897ZM98.1791 16.0026C102.767 18.8555 105.367 23.2916 107.257 31.493C108.926 38.7412 108.928 167.073 107.258 174.86C105.601 182.588 101.942 187.854 96.2457 190.712C92.0207 192.831 88.8365 193.079 61.5486 193.408L31.5035 193.772V103.204V12.6364L62.7154 12.997C92.7978 13.3458 94.0813 13.4543 98.1791 16.0026ZM469.938 49.4396C462.806 51.9855 459.644 54.6657 456.983 60.4203C454.512 65.7689 454.462 67.0466 454.14 133.247L453.812 200.63H457.292C464.471 200.63 472.759 198.044 476.716 194.569C484.12 188.069 484.221 186.976 484.221 113.491V47.7792L479.262 47.8305C476.536 47.8585 472.34 48.5831 469.938 49.4396ZM196.448 51.3496C190.014 53.2737 181.641 59.8089 177.971 65.7712L174.436 71.5119L174.11 123.79L173.784 176.069L176.635 181.64C180.222 188.653 186.901 195.141 193.688 198.206C198.451 200.358 201.333 200.581 224.715 200.604C252.714 200.632 258.252 199.779 265.38 194.342C272.244 189.106 274.39 182.744 275.088 165.555L275.699 150.457H271.596H267.491L266.987 163.624C266.354 180.144 263.878 185.675 255.183 189.986C248.208 193.446 232.65 194.618 222.289 192.466C213.943 190.732 207.515 185.139 205.491 177.85C204.691 174.972 204.2 160.696 204.197 140.248L204.19 107.286H245.028H285.866L285.84 90.659C285.818 76.4719 285.466 73.2621 283.44 68.7816C280.534 62.3537 275.15 56.5722 268.947 53.2188C264.518 50.8246 262.642 50.6845 232.193 50.4757C214.545 50.3543 198.46 50.7475 196.448 51.3496ZM334.542 51.7895C325 55.193 317.815 62.545 315.068 71.7114C312.896 78.9666 313.898 104.423 316.569 109.789C322.616 121.939 332.046 128.1 354.725 134.719C362.737 137.056 373.526 140.228 378.702 141.766C388.573 144.702 396.427 149.491 399.794 154.631C401.988 157.977 402.5 168.043 400.963 177.577C399.661 185.653 394.604 190.599 385.77 192.432C375.71 194.52 340.357 193.557 334.648 191.039C325.457 186.983 322.249 180.148 321.215 162.417L320.518 150.457H317.053H313.587L314.149 164.751C314.884 183.465 318.175 191.017 327.717 195.884C335.725 199.969 344.583 200.818 375.126 200.423C408.383 199.994 409.735 199.659 418.533 189.663C424.843 182.494 425.886 178.057 425.856 158.49C425.835 144.77 425.441 140.855 423.703 137.039C418.682 126.027 411.476 121.082 392.94 115.931C359.874 106.74 348.785 102.334 342.822 96.0193C336.948 89.8014 335.764 82.2254 338.974 71.415C342.305 60.1986 351.144 56.501 372.717 57.2991C382.709 57.669 385.5 58.2302 391.17 61.0049C399.645 65.1505 405.728 72.4663 409.146 82.621C411.657 90.0826 411.894 90.3673 415.608 90.3673H419.464L419.311 79.7191C419.226 73.863 418.541 67.2029 417.787 64.9195C416.052 59.663 408.715 52.9726 402.92 51.3636C396.079 49.4641 340.082 49.8129 334.542 51.7895ZM536.144 52.8933C529.132 56.2082 524.844 60.5638 521.653 67.6148C519.375 72.6472 519.278 75.0181 519.302 124.788C519.329 180.673 519.407 181.473 525.546 189.522C527.247 191.752 531.115 195.033 534.142 196.812L539.644 200.046L570.402 200.409L601.16 200.773L600.711 212.904C600.183 227.165 598.783 229.918 589.756 234.446C584.644 237.009 582.167 237.392 568.15 237.781C547.738 238.348 540.301 236.893 534.207 231.139C530.851 227.972 529.332 225.315 528.269 220.757C526.891 214.847 526.701 214.631 522.869 214.631H518.898L519.567 221.104C520.474 229.888 524.851 237.061 531.8 241.144L537.311 244.385H575.231H613.152L618.985 241.468C625.792 238.063 629.401 233.187 631.15 225.032C631.98 221.165 632.405 190.533 632.405 134.648V50.1128L587.191 50.1245C542.093 50.1361 541.963 50.1431 536.144 52.8933ZM667.409 125.32V200.63H670.852C672.745 200.63 677.077 200.034 680.478 199.305C687.984 197.698 694.52 191.781 696.444 184.851C697.309 181.737 697.735 159.968 697.738 118.662L697.745 57.1136L713.205 57.1206C731.209 57.1276 736.504 58.3014 741.624 63.4213C748.87 70.6671 749.084 72.8759 749.084 140.169V200.63H752.528C760.72 200.63 768.295 198.022 772.6 193.721C779.828 186.497 779.988 185.038 779.998 126.538C780.006 67.98 780.272 70.1036 771.738 60.6583C769.313 57.9735 765.193 54.6341 762.582 53.2375C757.977 50.772 756.496 50.6857 712.622 50.3532L667.409 50.0101V125.32ZM239.517 58.3504C250.76 61.4728 255.529 70.7243 255.529 89.4129V100.285H229.737H203.943L204.406 86.5753C205.04 67.7443 208.296 61.6804 219.498 58.4589C224.859 56.9164 234.173 56.8662 239.517 58.3504ZM600.669 116.329C600.344 171.048 600.153 175.92 598.147 180.507C593.968 190.063 585.275 194.363 572.225 193.327C562.334 192.542 557.143 189.78 553.314 183.268L550.145 177.877L549.77 129.455C549.374 78.5827 549.879 71.6601 554.399 65.9124C559.65 59.2383 566.356 57.438 586.667 57.2478L601.02 57.1136L600.669 116.329Z" fill="white"/>
</svg>
