<svg width="231" height="231" viewBox="0 0 231 231" fill="none" xmlns="http://www.w3.org/2000/svg">
<circle cx="115.5" cy="115.5" r="115.5" fill="#1C1C19"/>
<path d="M120.286 64.3904L124.286 50.3697L129.704 51.9153L129.304 53.3173L125.842 52.3297L124.508 57.0033L127.191 57.7687L126.796 59.1534L124.113 58.3881L122.242 64.9483L120.286 64.3904ZM127.705 66.5069L130.559 56.502L132.411 57.0303L129.557 67.0352L127.705 66.5069ZM130.984 55.0134L131.537 53.0747L133.389 53.6031L132.836 55.5417L130.984 55.0134ZM133.945 71.6373C133.344 71.4661 132.82 71.2479 132.372 70.9827C131.923 70.7175 131.6 70.4069 131.402 70.051C131.204 69.695 131.169 69.292 131.298 68.842C131.39 68.5188 131.54 68.2559 131.747 68.053C131.955 67.8502 132.193 67.6935 132.462 67.583C132.734 67.4609 133.007 67.3767 133.283 67.3304C132.986 67.146 132.785 66.9326 132.679 66.6903C132.577 66.4365 132.557 66.2 132.619 65.9807C132.725 65.6115 132.913 65.3221 133.185 65.1127C133.457 64.9032 133.811 64.6921 134.246 64.4793C133.947 64.0821 133.764 63.6306 133.696 63.1246C133.628 62.6186 133.708 61.9674 133.935 61.1712C134.159 60.3865 134.449 59.7641 134.805 59.3041C135.175 58.8358 135.606 58.5282 136.098 58.3813C136.604 58.2262 137.162 58.2359 137.774 58.4103C138.316 58.565 138.723 58.7808 138.993 59.0576C139.275 59.3377 139.45 59.6871 139.518 60.1057C139.602 60.0299 139.802 59.9185 140.118 59.7717C140.438 59.6133 140.787 59.5069 141.164 59.4523L141.476 59.4102L141.602 60.7378C141.446 60.7181 141.227 60.7182 140.947 60.7381C140.682 60.7498 140.426 60.7705 140.181 60.8002C139.95 60.8218 139.797 60.8531 139.723 60.8944C139.748 61.1136 139.737 61.4161 139.689 61.8018C139.653 62.1908 139.594 62.5296 139.511 62.8181C139.317 63.4989 139.059 64.0743 138.738 64.5442C138.417 65.0141 138.012 65.3414 137.522 65.5263C137.048 65.7028 136.458 65.6907 135.754 65.4899C135.604 65.4471 135.446 65.3895 135.28 65.317C135.113 65.2446 134.965 65.1713 134.837 65.0971C134.738 65.1813 134.628 65.281 134.508 65.3965C134.399 65.5152 134.327 65.638 134.291 65.7649C134.254 65.8919 134.288 66.0138 134.392 66.1308C134.511 66.2396 134.711 66.3466 134.993 66.452L136.512 67.0349C137.276 67.328 137.792 67.7308 138.057 68.2433C138.323 68.7558 138.349 69.3871 138.135 70.1372C137.98 70.6796 137.723 71.0992 137.364 71.396C137.001 71.7044 136.534 71.8768 135.962 71.9133C135.402 71.9531 134.729 71.8611 133.945 71.6373ZM134.498 70.2228C135.156 70.4104 135.663 70.4679 136.021 70.3952C136.375 70.3341 136.602 70.1304 136.701 69.7842C136.76 69.5765 136.769 69.3919 136.728 69.2304C136.698 69.0721 136.596 68.9247 136.423 68.7879C136.25 68.6512 135.984 68.5128 135.624 68.3729L134.089 67.7851C133.926 67.8758 133.768 67.9682 133.617 68.0622C133.465 68.1562 133.335 68.2626 133.226 68.3813C133.114 68.5115 133.035 68.6575 132.989 68.819C132.903 69.119 132.966 69.3803 133.177 69.6027C133.388 69.8251 133.828 70.0318 134.498 70.2228ZM136.125 64.1917C136.39 64.2674 136.611 64.2805 136.787 64.231C136.978 64.1732 137.141 64.0635 137.274 63.9019C137.411 63.7288 137.53 63.5071 137.632 63.2367C137.746 62.9696 137.852 62.663 137.951 62.3168C138.05 61.9706 138.121 61.6541 138.166 61.3673C138.225 61.0722 138.242 60.815 138.217 60.5958C138.207 60.3684 138.136 60.1797 138.004 60.0297C137.884 59.8831 137.691 59.7719 137.426 59.6962C137.172 59.6237 136.944 59.6148 136.741 59.6692C136.55 59.727 136.386 59.8425 136.249 60.0156C136.116 60.1772 135.99 60.3973 135.873 60.6759C135.76 60.943 135.65 61.2612 135.545 61.6304C135.456 61.942 135.384 62.2395 135.328 62.5231C135.287 62.7984 135.279 63.0456 135.303 63.2648C135.34 63.4874 135.422 63.6793 135.551 63.8408C135.68 64.0023 135.871 64.1193 136.125 64.1917ZM140.447 70.1415L143.301 60.1367L145.014 60.6255L144.743 61.5775C145.186 61.2922 145.636 61.1148 146.092 61.0454C146.549 60.976 146.991 61.0022 147.418 61.124C147.787 61.2293 148.09 61.4154 148.325 61.6824C148.573 61.9526 148.692 62.3424 148.684 62.8517C149.167 62.5153 149.644 62.3082 150.116 62.2305C150.602 62.1446 151.076 62.1675 151.537 62.2992C151.86 62.3913 152.132 62.5561 152.351 62.7933C152.574 63.0191 152.716 63.3281 152.779 63.7203C152.845 64.1011 152.799 64.5684 152.641 65.1223L150.399 72.9808L148.703 72.4969L150.91 64.7596C151.049 64.2749 151.06 63.9287 150.945 63.7211C150.844 63.5052 150.661 63.3594 150.395 63.2837C150.142 63.2113 149.855 63.2106 149.535 63.2816C149.219 63.341 148.909 63.4648 148.606 63.6528C148.592 63.699 148.579 63.7452 148.566 63.7913C148.553 63.8375 148.538 63.8894 148.522 63.9471L146.28 71.8056L144.583 71.3217L146.791 63.5844C146.929 63.0997 146.94 62.7535 146.825 62.5459C146.724 62.33 146.541 62.1842 146.276 62.1085C146.022 62.0361 145.735 62.0354 145.415 62.1064C145.11 62.1691 144.801 62.2929 144.486 62.4776L142.16 70.6304L140.447 70.1415ZM154.665 74.3473C154.272 74.2353 153.957 74.0269 153.72 73.7221C153.486 73.4057 153.331 73.0497 153.257 72.6542C153.186 72.2471 153.206 71.8473 153.318 71.455C153.496 70.8319 153.75 70.3364 154.079 69.9687C154.409 69.601 154.794 69.3239 155.234 69.1375C155.688 68.9428 156.184 68.8033 156.719 68.719C157.267 68.638 157.835 68.5694 158.425 68.5131L158.628 67.8034C158.743 67.3995 158.815 67.0583 158.845 66.7797C158.875 66.5011 158.832 66.277 158.719 66.1072C158.62 65.9293 158.426 65.7991 158.137 65.7168C157.884 65.6444 157.659 65.6429 157.465 65.7122C157.282 65.7848 157.125 65.9208 156.993 66.1203C156.864 66.3083 156.759 66.5465 156.677 66.835L156.533 67.337L154.718 66.7443C155.057 65.6431 155.543 64.902 156.176 64.521C156.812 64.1284 157.638 64.077 158.654 64.3666C159.646 64.6497 160.273 65.1217 160.533 65.7826C160.794 66.4435 160.778 67.2874 160.485 68.3145L159.181 72.8842C159.092 73.1957 159.013 73.4974 158.942 73.7892C158.883 74.0843 158.828 74.362 158.779 74.6225C158.744 74.8747 158.707 75.1137 158.668 75.3395L156.972 74.8556C156.99 74.6611 157.009 74.4172 157.031 74.1238C157.067 73.8221 157.106 73.5526 157.149 73.3152C156.922 73.6746 156.591 73.9797 156.158 74.2304C155.739 74.4729 155.242 74.5119 154.665 74.3473ZM155.846 72.9622C156.031 73.0148 156.218 73.0123 156.41 72.9545C156.601 72.8968 156.778 72.8225 156.941 72.7318C157.108 72.6295 157.225 72.5446 157.295 72.477L158.104 69.6382C157.77 69.7175 157.453 69.8017 157.153 69.8908C156.853 69.9799 156.578 70.0888 156.329 70.2175C156.095 70.3379 155.888 70.4971 155.706 70.695C155.54 70.8846 155.416 71.1236 155.333 71.4121C155.218 71.816 155.203 72.1548 155.287 72.4283C155.371 72.7019 155.557 72.8799 155.846 72.9622Z" fill="#C5BDB4"/>
<path d="M135.253 118.674C141.021 118.674 146.552 116.794 150.631 113.449C154.709 110.104 157 105.567 157 100.837C157 96.1062 154.709 91.5693 150.631 88.2243C146.552 84.8792 141.021 83 135.253 83H91.7596C85.9953 83 80.4672 84.8781 76.3912 88.2212C72.3153 91.5643 70.0255 96.0985 70.0255 100.826C70.0255 105.554 72.3153 110.088 76.3912 113.432C80.4672 116.775 85.9953 118.653 91.7596 118.653C85.9919 118.653 80.4606 120.532 76.3822 123.877C72.3039 127.222 70.0127 131.759 70.0127 136.49C70.0127 141.22 72.3039 145.757 76.3822 149.102C80.4606 152.447 85.9919 154.326 91.7596 154.326C87.4584 154.324 83.2532 155.368 79.6755 157.327C76.0979 159.285 73.3086 162.069 71.6603 165.328C70.012 168.586 69.5788 172.172 70.4154 175.633C71.252 179.093 73.3209 182.272 76.3605 184.768C79.4001 187.264 83.2738 188.965 87.4917 189.655C91.7097 190.345 96.0825 189.994 100.057 188.646C104.032 187.298 107.43 185.014 109.822 182.081C112.213 179.149 113.491 175.701 113.494 172.174V118.674H135.253ZM135.253 118.674C130.955 118.674 126.753 119.719 123.178 121.678C119.604 123.637 116.819 126.421 115.174 129.678C113.529 132.935 113.098 136.52 113.937 139.978C114.775 143.436 116.845 146.612 119.885 149.105C122.924 151.598 126.797 153.296 131.013 153.984C135.229 154.672 139.599 154.319 143.57 152.969C147.542 151.62 150.936 149.335 153.324 146.404C155.713 143.472 156.987 140.026 156.987 136.5C156.987 131.772 154.697 127.238 150.621 123.895C146.545 120.552 141.017 118.674 135.253 118.674Z" fill="#C5BDB4"/>
</svg>
