<svg width="231" height="231" viewBox="0 0 231 231" fill="none" xmlns="http://www.w3.org/2000/svg">
<circle cx="115.5" cy="115.5" r="115.5" fill="#1C1C19"/>
<path d="M118.552 63.5256C117.674 63.2791 117.021 62.8965 116.594 62.3776C116.181 61.8504 115.954 61.1946 115.912 60.4101C115.882 59.629 116.008 58.7358 116.29 57.7306L117.609 53.0341C117.897 52.0059 118.246 51.1628 118.655 50.5048C119.079 49.8386 119.616 49.391 120.266 49.1622C120.927 48.9366 121.749 48.9616 122.731 49.2373C123.609 49.4837 124.272 49.8317 124.719 50.2813C125.181 50.7226 125.447 51.2834 125.518 51.9638C125.592 52.6327 125.499 53.4293 125.24 54.3536L125.094 54.8735L123.257 54.3579L123.379 53.9246C123.55 53.3123 123.649 52.8041 123.676 52.4002C123.705 51.9846 123.619 51.6488 123.416 51.3926C123.229 51.1281 122.869 50.9212 122.338 50.772C121.76 50.6099 121.301 50.6244 120.961 50.8155C120.632 51.0099 120.368 51.3285 120.169 51.7711C119.985 52.2055 119.812 52.7115 119.65 53.2892L118.19 58.4883C118.002 59.1584 117.891 59.7317 117.857 60.2082C117.835 60.688 117.931 61.0766 118.147 61.3739C118.362 61.6713 118.724 61.8913 119.233 62.034C119.741 62.1767 120.168 62.1656 120.513 62.0008C120.859 61.836 121.15 61.5314 121.387 61.0869C121.624 60.6424 121.841 60.0677 122.039 59.363L122.311 58.3925L120.526 57.8914L120.916 56.505L124.468 57.5022L122.518 64.4516L121.287 64.1063L121.549 62.441C121.218 62.9091 120.809 63.2555 120.323 63.4803C119.836 63.7051 119.246 63.7202 118.552 63.5256ZM125.189 65.2015L128.001 55.1846L129.855 55.7051L127.044 65.722L125.189 65.2015ZM128.419 53.6942L128.964 51.7532L130.818 52.2737L130.274 54.2147L128.419 53.6942ZM132.351 67.3614C131.831 67.2155 131.437 66.9989 131.169 66.7117C130.912 66.4277 130.759 66.0856 130.709 65.6853C130.671 65.2882 130.72 64.847 130.856 64.3618L132.69 57.8283L131.633 57.5315L131.978 56.3011L133.036 56.5978L133.858 53.669L135.712 54.1895L134.89 57.1183L136.502 57.5707L136.156 58.8012L134.545 58.3488L132.745 64.761C132.634 65.1538 132.619 65.4547 132.697 65.6636C132.779 65.8611 132.999 66.01 133.357 66.1106C133.449 66.1365 133.555 66.1599 133.674 66.1808C133.804 66.2049 133.928 66.2274 134.047 66.2483L133.663 67.6174C133.422 67.5872 133.202 67.5503 133.002 67.5067C132.799 67.4747 132.582 67.4263 132.351 67.3614ZM135.798 68.1792L139.738 54.1417L141.592 54.6622L140.172 59.7226C140.598 59.4932 141.051 59.3213 141.532 59.2069C142.013 59.0926 142.507 59.1068 143.015 59.2495C143.408 59.3597 143.679 59.548 143.829 59.8144C143.99 60.084 144.067 60.3861 144.061 60.7207C144.066 61.0586 144.023 61.3893 143.932 61.7128L141.655 69.8234L139.801 69.3029L141.927 61.7295C142.027 61.3714 142.053 61.0795 142.004 60.8539C141.955 60.6283 141.769 60.4701 141.446 60.3793C141.226 60.3177 140.977 60.3164 140.699 60.3754C140.432 60.4376 140.169 60.532 139.909 60.6584L137.652 68.6997L135.798 68.1792ZM145.556 71.0677C145.163 70.9575 144.886 70.7676 144.725 70.498C144.564 70.2284 144.481 69.9247 144.476 69.5868C144.482 69.2521 144.531 68.9231 144.622 68.5996L146.899 60.489L148.753 61.0095L146.632 68.5655C146.532 68.9236 146.504 69.2213 146.55 69.4584C146.599 69.684 146.785 69.8422 147.108 69.933C147.316 69.9914 147.546 69.9936 147.798 69.9397C148.065 69.8775 148.326 69.7889 148.583 69.674L150.85 61.5981L152.704 62.1186L149.893 72.1355L148.038 71.615L148.316 70.6272C147.904 70.8483 147.46 71.0103 146.983 71.113C146.517 71.219 146.041 71.2039 145.556 71.0677ZM156.031 74.0079C155.673 73.9074 155.373 73.7299 155.133 73.4756C154.908 73.2129 154.722 72.9426 154.576 72.6647L154.371 73.3926L152.517 72.8721L156.457 58.8346L158.311 59.3551L156.959 64.1729C157.25 63.9803 157.572 63.8338 157.924 63.7332C158.288 63.6359 158.683 63.6473 159.111 63.7673C159.631 63.9132 160.002 64.167 160.224 64.5286C160.462 64.8819 160.597 65.2875 160.631 65.7456C160.667 66.1922 160.649 66.6356 160.575 67.0761C160.505 67.505 160.427 67.8696 160.343 68.17L159.662 70.5963C159.464 71.301 159.207 71.9517 158.89 72.5482C158.576 73.1332 158.185 73.5718 157.716 73.8641C157.251 74.1448 156.689 74.1928 156.031 74.0079ZM156.058 72.4452C156.382 72.536 156.645 72.4853 156.849 72.2931C157.055 72.0894 157.233 71.7903 157.381 71.3956C157.529 71.001 157.671 70.561 157.807 70.0758L158.488 67.6495C158.605 67.2336 158.689 66.8459 158.74 66.4863C158.795 66.1152 158.776 65.8045 158.684 65.5544C158.592 65.3043 158.384 65.1338 158.061 65.043C157.818 64.9749 157.573 64.9621 157.324 65.0044C157.087 65.05 156.87 65.1137 156.672 65.1954L154.867 71.6249C154.993 71.7974 155.153 71.9606 155.347 72.1147C155.555 72.2604 155.792 72.3706 156.058 72.4452Z" fill="#C5BDB4"/>
<path d="M172.294 145.772L137.916 80.8173C136.963 79.0207 135.319 77.6392 133.343 76.9765C131.367 76.3137 129.222 76.4238 127.379 77.2827L113.536 83.7352L122.594 100.845C130.333 100.945 134.814 109.524 130.199 115.326L138.931 131.818C148.74 131.886 152.173 144.727 143.42 148.807C134.399 153.015 125.529 142.021 132.037 134.79L123.883 119.412L113.848 149.325C119.347 154.594 116.148 161.526 111.662 163.613C109.47 164.635 106.918 164.766 104.567 163.978C102.217 163.189 100.26 161.545 99.1278 159.408C96.041 153.565 100.133 146.933 106.644 146.635L116.774 116.44C112.104 112.549 112.954 106.763 115.667 103.779L106.742 86.8965L61.0679 108.21C59.2252 109.07 57.8359 110.608 57.2056 112.487C56.5754 114.366 56.7557 116.431 57.707 118.228L92.1011 183.188C93.0529 184.984 94.6972 186.365 96.6724 187.028C98.6477 187.691 100.792 187.58 102.635 186.721L168.933 155.79C170.776 154.93 172.165 153.391 172.796 151.513C173.426 149.634 173.246 147.569 172.294 145.772V145.772Z" fill="#C5BDB4"/>
</svg>
