<svg width="231" height="231" viewBox="0 0 231 231" fill="none" xmlns="http://www.w3.org/2000/svg">
<circle cx="115.5" cy="115.5" r="115.5" fill="#1C1C19"/>
<path fill-rule="evenodd" clip-rule="evenodd" d="M65.5677 114.603L61.7206 161.395L99.309 197.189L148.137 184.55L168.086 142.072L190.584 93.784L131.275 77.892L71.9648 62L65.5677 114.603ZM162.328 106.566C162.242 106.886 162.12 107.134 162.056 107.117C161.986 107.099 161.805 107.591 161.597 108.368C161.389 109.145 161.208 109.637 161.138 109.618C161.067 109.599 160.876 110.131 160.647 110.985C160.419 111.84 160.228 112.371 160.157 112.352C160.087 112.334 159.906 112.826 159.698 113.603C159.49 114.38 159.309 114.872 159.239 114.853C159.168 114.834 158.988 115.327 158.779 116.104C158.571 116.88 158.39 117.373 158.32 117.354C158.25 117.335 158.069 117.828 157.861 118.605C157.653 119.381 157.472 119.874 157.402 119.855C157.332 119.836 157.151 120.329 156.943 121.106C156.734 121.882 156.553 122.375 156.483 122.356C156.413 122.337 156.222 122.869 155.993 123.723C155.764 124.577 155.573 125.109 155.502 125.09C155.432 125.071 155.251 125.564 155.043 126.341C154.835 127.117 154.654 127.61 154.584 127.591C154.514 127.572 154.333 128.065 154.125 128.842C153.917 129.618 153.736 130.111 153.666 130.092C153.595 130.073 153.414 130.566 153.206 131.342C152.998 132.119 152.817 132.612 152.747 132.593C152.676 132.574 152.486 133.106 152.257 133.96C152.028 134.814 151.837 135.346 151.766 135.327C151.696 135.308 151.515 135.801 151.307 136.577C151.099 137.354 150.918 137.847 150.848 137.828C150.778 137.809 150.597 138.302 150.389 139.078C150.18 139.855 150 140.348 149.929 140.329C149.859 140.31 149.678 140.803 149.47 141.579C149.262 142.356 149.081 142.849 149.011 142.83C148.94 142.811 148.749 143.342 148.52 144.197C148.292 145.051 148.101 145.583 148.03 145.564C147.96 145.545 147.779 146.037 147.571 146.814C147.363 147.591 147.182 148.083 147.112 148.065C147.041 148.046 146.86 148.538 146.652 149.315C146.444 150.092 146.263 150.584 146.193 150.566C146.123 150.547 145.942 151.039 145.734 151.816C145.526 152.593 145.345 153.085 145.275 153.067C145.204 153.048 145.013 153.579 144.784 154.434C144.555 155.288 144.365 155.819 144.294 155.801C144.224 155.782 144.043 156.274 143.835 157.051C143.626 157.828 143.446 158.32 143.375 158.301C143.305 158.283 143.124 158.775 142.916 159.552C142.708 160.329 142.527 160.821 142.457 160.802C142.387 160.784 142.206 161.276 141.998 162.053C141.79 162.83 141.609 163.322 141.539 163.303C141.468 163.284 141.277 163.816 141.048 164.67C140.819 165.525 140.628 166.056 140.558 166.037C140.487 166.019 140.307 166.511 140.098 167.288C139.89 168.065 139.709 168.557 139.639 168.538C139.569 168.519 139.388 169.012 139.18 169.789C138.972 170.565 138.791 171.058 138.721 171.039C138.651 171.02 138.47 171.513 138.262 172.29C138.053 173.066 137.872 173.559 137.802 173.54C137.732 173.521 137.541 174.053 137.312 174.907C137.083 175.761 136.892 176.293 136.821 176.274C136.753 176.256 136.596 176.654 136.438 177.242C136.132 178.385 135.976 178.545 135.337 178.374C135.109 178.313 134.909 178.315 134.892 178.379C134.874 178.443 134.704 178.454 134.513 178.403C134.322 178.351 134.151 178.362 134.134 178.426C134.117 178.49 133.894 178.487 133.64 178.418C133.385 178.35 133.162 178.347 133.145 178.411C133.128 178.475 132.957 178.485 132.766 178.434C132.575 178.383 132.405 178.393 132.388 178.457C132.37 178.522 132.148 178.518 131.893 178.45C131.638 178.382 131.416 178.378 131.398 178.442C131.381 178.506 131.211 178.517 131.02 178.466C130.829 178.414 130.658 178.425 130.641 178.489C130.624 178.553 130.401 178.55 130.146 178.481C129.892 178.413 129.669 178.41 129.652 178.474C129.635 178.538 129.464 178.548 129.273 178.497C129.082 178.446 128.911 178.456 128.894 178.52C128.877 178.584 128.655 178.581 128.4 178.513C128.145 178.444 127.922 178.441 127.905 178.505C127.888 178.569 127.665 178.566 127.411 178.497C127.156 178.429 126.933 178.426 126.916 178.49C126.899 178.554 126.728 178.564 126.537 178.513C126.346 178.462 126.176 178.472 126.159 178.537C126.141 178.601 125.919 178.597 125.664 178.529C125.409 178.461 125.187 178.457 125.169 178.521C125.152 178.585 124.982 178.596 124.791 178.545C124.6 178.493 124.429 178.504 124.412 178.568C124.395 178.632 124.172 178.629 123.917 178.56C123.663 178.492 123.44 178.489 123.423 178.553C123.406 178.617 123.235 178.627 123.044 178.576C122.853 178.525 122.682 178.535 122.665 178.599C122.648 178.664 122.426 178.66 122.171 178.592C121.916 178.524 121.693 178.52 121.676 178.584C121.659 178.648 121.436 178.645 121.182 178.576C120.927 178.508 120.704 178.505 120.687 178.569C120.67 178.633 120.499 178.643 120.308 178.592C120.117 178.541 119.947 178.552 119.93 178.616C119.912 178.68 119.69 178.676 119.435 178.608C119.18 178.54 118.958 178.536 118.94 178.6C118.923 178.664 118.753 178.675 118.562 178.624C118.371 178.572 118.2 178.583 118.183 178.647C118.166 178.711 117.943 178.708 117.688 178.639C117.434 178.571 117.211 178.568 117.194 178.632C117.177 178.696 117.006 178.706 116.815 178.655C116.624 178.604 116.453 178.614 116.436 178.679C116.419 178.743 116.197 178.739 115.942 178.671C115.687 178.603 115.464 178.599 115.447 178.663C115.43 178.727 115.207 178.724 114.953 178.656C114.698 178.587 114.475 178.584 114.458 178.648C114.441 178.712 114.27 178.723 114.079 178.671C113.888 178.62 113.718 178.631 113.701 178.695C113.683 178.759 113.461 178.755 113.206 178.687C112.951 178.619 112.729 178.615 112.711 178.679C112.694 178.743 112.524 178.754 112.333 178.703C112.142 178.652 111.971 178.662 111.954 178.726C111.937 178.79 111.714 178.787 111.459 178.718C111.205 178.65 110.982 178.647 110.965 178.711C110.948 178.775 110.777 178.785 110.586 178.734C110.395 178.683 110.224 178.694 110.207 178.758C110.19 178.822 109.968 178.818 109.713 178.75C109.458 178.682 109.235 178.678 109.218 178.742C109.201 178.806 108.978 178.803 108.724 178.735C108.469 178.666 108.246 178.663 108.229 178.727C108.212 178.791 108.041 178.802 107.85 178.75C107.659 178.699 107.489 178.71 107.472 178.774C107.454 178.838 107.232 178.834 106.977 178.766C106.722 178.698 106.5 178.694 106.482 178.758C106.465 178.823 106.295 178.833 106.104 178.782C105.913 178.731 105.742 178.741 105.725 178.805C105.708 178.869 105.485 178.866 105.23 178.798C104.976 178.729 104.753 178.726 104.736 178.79C104.719 178.854 104.444 178.837 104.125 178.751C103.807 178.666 103.56 178.544 103.577 178.479C103.595 178.415 103.4 178.307 103.145 178.239C102.89 178.171 102.696 178.062 102.713 177.998C102.73 177.934 102.588 177.84 102.397 177.789C102.206 177.737 102.063 177.643 102.08 177.579C102.098 177.515 101.903 177.407 101.648 177.338C101.394 177.27 101.199 177.162 101.216 177.098C101.233 177.034 101.091 176.939 100.9 176.888C100.709 176.837 100.566 176.742 100.584 176.678C100.601 176.614 100.406 176.506 100.151 176.438C99.8966 176.369 99.7022 176.261 99.7193 176.197C99.7365 176.133 99.5942 176.039 99.403 175.987C99.2119 175.936 99.0695 175.842 99.0867 175.778C99.1039 175.714 98.9094 175.605 98.6546 175.537C98.3997 175.469 98.2053 175.361 98.2224 175.297C98.2396 175.232 98.0973 175.138 97.9061 175.087C97.715 175.036 97.5727 174.941 97.5898 174.877C97.607 174.813 97.4125 174.705 97.1577 174.637C96.9028 174.568 96.7084 174.46 96.7256 174.396C96.7427 174.332 96.6004 174.238 96.4092 174.186C96.2181 174.135 96.0758 174.041 96.0929 173.977C96.1101 173.913 95.9156 173.804 95.6608 173.736C95.406 173.668 95.2115 173.559 95.2287 173.495C95.2458 173.431 95.0514 173.323 94.7965 173.255C94.5417 173.186 94.3472 173.078 94.3644 173.014C94.3815 172.95 94.2392 172.856 94.0481 172.804C93.8569 172.753 93.7146 172.659 93.7318 172.595C93.7489 172.531 93.5545 172.422 93.2996 172.354C93.0448 172.286 92.8503 172.178 92.8675 172.114C92.8847 172.049 92.7423 171.955 92.5512 171.904C92.3601 171.853 92.2177 171.758 92.2349 171.694C92.2521 171.63 92.0576 171.522 91.8027 171.454C91.5479 171.385 91.3534 171.277 91.3706 171.213C91.3878 171.149 91.2454 171.055 91.0543 171.003C90.8632 170.952 90.7208 170.858 90.738 170.794C90.7552 170.73 90.5607 170.621 90.3059 170.553C90.051 170.485 89.8566 170.377 89.8737 170.312C89.8909 170.248 89.7486 170.154 89.5574 170.103C89.3663 170.052 89.2239 169.957 89.2411 169.893C89.2583 169.829 89.0638 169.721 88.809 169.653C88.5541 169.584 88.3597 169.476 88.3768 169.412C88.394 169.348 88.2517 169.253 88.0605 169.202C87.8694 169.151 87.7271 169.057 87.7442 168.993C87.7614 168.929 87.5669 168.82 87.3121 168.752C87.0572 168.684 86.8628 168.575 86.8799 168.511C86.8971 168.447 86.7026 168.339 86.4478 168.271C86.193 168.202 85.9985 168.094 86.0157 168.03C86.0328 167.966 85.8905 167.872 85.6994 167.82C85.5082 167.769 85.3659 167.675 85.3831 167.611C85.4002 167.547 85.2058 167.438 84.9509 167.37C84.6961 167.302 84.5016 167.194 84.5188 167.129C84.5359 167.065 84.3936 166.971 84.2025 166.92C84.0113 166.869 83.869 166.774 83.8862 166.71C83.9033 166.646 83.7089 166.538 83.454 166.47C83.1992 166.401 83.0047 166.293 83.0219 166.229C83.0391 166.165 82.8967 166.071 82.7056 166.019C82.5145 165.968 82.3721 165.874 82.3893 165.81C82.4065 165.746 82.212 165.637 81.9571 165.569C81.7023 165.501 81.5078 165.392 81.525 165.328C81.5422 165.264 81.3998 165.17 81.2087 165.119C81.0176 165.068 80.8752 164.973 80.8924 164.909C80.9096 164.845 80.7151 164.737 80.4603 164.668C80.2054 164.6 80.0109 164.492 80.0281 164.428C80.0453 164.364 79.903 164.269 79.7118 164.218C79.5207 164.167 79.3783 164.073 79.3955 164.009C79.4127 163.944 79.2182 163.836 78.9634 163.768C78.7085 163.7 78.5141 163.591 78.5312 163.527C78.5484 163.463 78.4061 163.369 78.2149 163.318C78.0238 163.266 77.8815 163.172 77.8986 163.108C77.9158 163.044 77.7437 162.942 77.5162 162.881C76.8633 162.706 76.8193 162.502 77.1594 161.233C77.3378 160.567 77.4115 160.106 77.3424 160.087C77.2722 160.068 77.3618 159.551 77.5699 158.775C77.778 157.998 77.8677 157.481 77.7975 157.462C77.7273 157.443 77.8169 156.926 78.025 156.149C78.2331 155.373 78.3227 154.856 78.2525 154.837C78.1818 154.818 78.2824 154.262 78.5113 153.408C78.7402 152.553 78.8408 151.998 78.7701 151.979C78.6999 151.96 78.7895 151.443 78.9976 150.666C79.2057 149.889 79.2953 149.372 79.2251 149.354C79.1549 149.335 79.2446 148.818 79.4527 148.041C79.6608 147.264 79.7504 146.747 79.6802 146.729C79.61 146.71 79.6996 146.193 79.9078 145.416C80.1159 144.639 80.2055 144.122 80.1353 144.103C80.0651 144.085 80.1547 143.568 80.3628 142.791C80.571 142.014 80.6606 141.497 80.5904 141.478C80.5196 141.459 80.6202 140.904 80.8491 140.049C81.0781 139.195 81.1787 138.639 81.1079 138.62C81.0377 138.601 81.1273 138.084 81.3354 137.308C81.5436 136.531 81.6332 136.014 81.563 135.995C81.4928 135.976 81.5824 135.459 81.7905 134.683C81.9986 133.906 82.0883 133.389 82.0181 133.37C81.9479 133.351 82.0375 132.834 82.2456 132.057C82.4537 131.281 82.5433 130.764 82.4732 130.745C82.4024 130.726 82.503 130.17 82.7319 129.316C82.9608 128.461 83.0614 127.906 82.9907 127.887C82.9205 127.868 83.0101 127.351 83.2182 126.574C83.4263 125.797 83.5159 125.28 83.4457 125.262C83.3755 125.243 83.4652 124.726 83.6733 123.949C83.8814 123.172 83.971 122.655 83.9008 122.637C83.8306 122.618 83.9203 122.101 84.1284 121.324C84.3365 120.547 84.4261 120.03 84.3559 120.011C84.2857 119.993 84.3753 119.476 84.5835 118.699C84.7916 117.922 84.8812 117.405 84.811 117.386C84.7402 117.367 84.8408 116.812 85.0698 115.957C85.2987 115.103 85.3993 114.547 85.3285 114.528C85.2583 114.509 85.3479 113.992 85.5561 113.216C85.7642 112.439 85.8538 111.922 85.7836 111.903C85.7134 111.884 85.803 111.367 86.0111 110.591C86.2193 109.814 86.3089 109.297 86.2387 109.278C86.1685 109.259 86.2581 108.742 86.4662 107.965C86.6743 107.189 86.764 106.672 86.6938 106.653C86.623 106.634 86.7236 106.078 86.9525 105.224C87.1814 104.37 87.2821 103.814 87.2113 103.795C87.1411 103.776 87.2307 103.259 87.4388 102.482C87.6469 101.705 87.7366 101.188 87.6664 101.17C87.5962 101.151 87.6858 100.634 87.8939 99.8571C88.102 99.0804 88.1916 98.5633 88.1214 98.5445C88.0512 98.5257 88.1409 98.0087 88.349 97.232C88.5571 96.4553 88.6467 95.9382 88.5765 95.9194C88.5058 95.9005 88.6064 95.3447 88.8353 94.4904C89.0642 93.6361 89.1648 93.0803 89.094 93.0613C89.0238 93.0425 89.1135 92.5255 89.3216 91.7488C89.5297 90.972 89.6193 90.455 89.5491 90.4362C89.4789 90.4174 89.5686 89.9004 89.7767 89.1236C89.9848 88.3469 90.0744 87.8299 90.0042 87.8111C89.9405 87.794 89.9586 87.5179 90.0445 87.1975L90.2005 86.615L126.342 96.2992L162.484 105.983L162.328 106.566ZM99.4237 105.943C99.3378 106.264 99.3197 106.54 99.3834 106.557C99.4536 106.576 99.364 107.093 99.1559 107.869C98.9478 108.646 98.8582 109.163 98.9284 109.182C98.9986 109.201 98.9089 109.718 98.7008 110.494C98.4927 111.271 98.4031 111.788 98.4733 111.807C98.5441 111.826 98.4434 112.382 98.2145 113.236C97.9856 114.09 97.885 114.646 97.9558 114.665C98.026 114.684 97.9363 115.201 97.7282 115.978C97.5201 116.754 97.4305 117.271 97.5007 117.29C97.5709 117.309 97.4813 117.826 97.2731 118.603C97.065 119.38 96.9754 119.897 97.0456 119.915C97.1164 119.934 97.0158 120.49 96.7868 121.344C96.5579 122.199 96.4573 122.755 96.5281 122.773C96.5983 122.792 96.5087 123.309 96.3005 124.086C96.0924 124.863 96.0028 125.38 96.073 125.399C96.1432 125.417 96.0536 125.934 95.8455 126.711C95.6373 127.488 95.5477 128.005 95.6179 128.024C95.6887 128.043 95.5881 128.598 95.3592 129.453C95.1303 130.307 95.0296 130.863 95.1004 130.882C95.1706 130.901 95.081 131.418 94.8729 132.194L94.5295 133.476L110.284 137.697L126.038 141.919L125.851 142.618C125.746 143.006 125.612 143.303 125.547 143.285C125.478 143.267 125.307 143.72 125.119 144.419C124.932 145.118 124.761 145.572 124.691 145.553C124.621 145.535 124.44 146.027 124.232 146.804C124.024 147.581 123.843 148.073 123.773 148.054C123.703 148.036 123.532 148.489 123.345 149.188C123.158 149.887 122.986 150.341 122.917 150.322C122.847 150.304 122.676 150.757 122.489 151.456C122.302 152.155 122.13 152.609 122.061 152.59C121.997 152.573 121.889 152.769 121.82 153.025C121.702 153.465 121.676 153.486 121.348 153.398C121.157 153.347 120.986 153.357 120.969 153.422C120.952 153.486 120.781 153.496 120.59 153.445C120.399 153.394 120.229 153.404 120.212 153.468C120.194 153.532 119.972 153.529 119.717 153.461C119.462 153.392 119.24 153.389 119.222 153.453C119.205 153.517 118.983 153.514 118.728 153.445C118.473 153.377 118.25 153.374 118.233 153.438C118.216 153.502 117.994 153.498 117.739 153.43C117.484 153.362 117.261 153.358 117.244 153.422C117.227 153.486 117.057 153.497 116.865 153.446C116.674 153.395 116.504 153.405 116.487 153.469C116.47 153.533 116.247 153.53 115.992 153.461C115.737 153.393 115.515 153.39 115.498 153.454C115.48 153.518 115.258 153.514 115.003 153.446C114.748 153.378 114.526 153.374 114.508 153.439C114.491 153.503 114.269 153.499 114.014 153.431C113.759 153.363 113.536 153.359 113.519 153.423C113.502 153.487 113.332 153.498 113.141 153.447C112.949 153.395 112.779 153.406 112.762 153.47C112.745 153.534 112.522 153.531 112.267 153.462C112.012 153.394 111.79 153.391 111.773 153.455C111.755 153.521 111.394 153.478 110.931 153.354C110.467 153.23 110.133 153.087 110.151 153.02C110.168 152.956 109.974 152.848 109.719 152.779C109.464 152.711 109.269 152.603 109.287 152.539C109.304 152.475 109.161 152.38 108.97 152.329C108.779 152.278 108.637 152.184 108.654 152.12C108.671 152.055 108.477 151.947 108.222 151.879C107.967 151.811 107.773 151.702 107.79 151.638C107.807 151.574 107.612 151.466 107.358 151.398C107.103 151.329 106.908 151.221 106.925 151.157C106.943 151.093 106.8 150.999 106.609 150.947C106.418 150.896 106.276 150.802 106.293 150.738C106.31 150.674 106.116 150.565 105.861 150.497C105.606 150.429 105.411 150.32 105.429 150.256C105.446 150.192 105.251 150.084 104.996 150.016C104.742 149.947 104.547 149.839 104.564 149.775C104.581 149.711 104.387 149.603 104.132 149.534C103.877 149.466 103.683 149.358 103.7 149.294C103.717 149.23 103.575 149.135 103.384 149.084C103.193 149.033 103.05 148.939 103.067 148.875C103.085 148.81 102.89 148.702 102.635 148.634C102.38 148.566 102.186 148.457 102.203 148.393C102.22 148.329 102.078 148.235 101.887 148.184L101.539 148.09L101.758 147.275C101.883 146.809 101.927 146.446 101.86 146.428C101.79 146.41 101.88 145.893 102.088 145.116C102.296 144.339 102.386 143.822 102.316 143.803C102.245 143.784 102.335 143.267 102.543 142.491C102.751 141.714 102.841 141.197 102.771 141.178C102.707 141.161 102.683 141.042 102.717 140.914C102.779 140.685 102.702 140.66 98.3778 139.502L93.9759 138.322L93.57 139.837C93.3203 140.769 93.2088 141.363 93.2801 141.382C93.3508 141.401 93.2502 141.957 93.0213 142.811C92.7924 143.666 92.6918 144.221 92.7626 144.24C92.8338 144.259 92.7223 144.854 92.4726 145.786C92.2228 146.718 92.1114 147.312 92.1826 147.331C92.2538 147.351 92.1424 147.945 91.8926 148.877C91.6429 149.809 91.5314 150.403 91.6027 150.423C91.6718 150.441 91.5981 150.903 91.4197 151.569C91.0796 152.838 91.1236 153.041 91.7765 153.216C92.004 153.277 92.1761 153.379 92.1589 153.444C92.1417 153.508 92.2841 153.602 92.4752 153.653C92.6664 153.704 92.8087 153.799 92.7915 153.863C92.7743 153.927 92.9688 154.035 93.2237 154.103C93.4785 154.172 93.673 154.28 93.6558 154.344C93.6386 154.408 93.8331 154.516 94.0879 154.585C94.3428 154.653 94.5373 154.761 94.5201 154.825C94.5029 154.889 94.6453 154.984 94.8364 155.035C95.0275 155.086 95.1699 155.181 95.1527 155.245C95.1355 155.309 95.33 155.417 95.5848 155.485C95.8397 155.554 96.0341 155.662 96.017 155.726C95.9998 155.79 96.1421 155.884 96.3333 155.936C96.5244 155.987 96.6667 156.081 96.6496 156.145C96.6324 156.209 96.8269 156.318 97.0817 156.386C97.3366 156.454 97.531 156.562 97.5139 156.627C97.4967 156.691 97.6912 156.799 97.946 156.867C98.2008 156.935 98.3953 157.044 98.3781 157.108C98.361 157.172 98.5033 157.266 98.6944 157.317C98.8856 157.369 99.0279 157.463 99.0107 157.527C98.9936 157.591 99.188 157.699 99.4429 157.768C99.6977 157.836 99.8922 157.944 99.875 158.008C99.8579 158.072 100.052 158.181 100.307 158.249C100.562 158.317 100.756 158.426 100.739 158.49C100.722 158.554 100.864 158.648 101.056 158.699C101.247 158.751 101.389 158.845 101.372 158.909C101.355 158.973 101.549 159.081 101.804 159.15C102.059 159.218 102.253 159.326 102.236 159.39C102.219 159.454 102.361 159.549 102.553 159.6C102.744 159.651 102.886 159.745 102.869 159.809C102.852 159.874 103.046 159.982 103.301 160.05C103.556 160.118 103.75 160.227 103.733 160.291C103.716 160.355 103.91 160.463 104.165 160.531C104.42 160.6 104.615 160.708 104.597 160.772C104.58 160.836 104.723 160.931 104.914 160.982C105.105 161.033 105.247 161.127 105.23 161.191C105.213 161.255 105.407 161.364 105.662 161.432C105.917 161.5 106.111 161.609 106.094 161.673C106.077 161.737 106.272 161.845 106.526 161.913C106.781 161.982 106.976 162.09 106.959 162.154C106.941 162.218 107.084 162.312 107.275 162.364C107.466 162.415 107.608 162.509 107.591 162.573C107.573 162.64 107.907 162.783 108.371 162.907C108.834 163.031 109.195 163.074 109.213 163.008C109.23 162.944 109.453 162.947 109.707 163.015C109.962 163.084 110.185 163.087 110.202 163.023C110.219 162.959 110.39 162.948 110.581 163C110.772 163.051 110.942 163.04 110.96 162.976C110.977 162.912 111.199 162.916 111.454 162.984C111.709 163.052 111.931 163.056 111.949 162.992C111.966 162.928 112.188 162.931 112.443 162.999C112.698 163.068 112.921 163.071 112.938 163.007C112.955 162.943 113.125 162.932 113.317 162.984C113.508 163.035 113.678 163.024 113.695 162.96C113.712 162.896 113.935 162.9 114.19 162.968C114.445 163.036 114.667 163.04 114.684 162.975C114.702 162.911 114.872 162.901 115.063 162.952C115.254 163.003 115.425 162.993 115.442 162.929C115.459 162.865 115.682 162.868 115.936 162.936C116.191 163.005 116.414 163.008 116.431 162.944C116.448 162.88 116.671 162.883 116.926 162.952C117.18 163.02 117.403 163.023 117.42 162.959C117.437 162.895 117.608 162.885 117.799 162.936C117.99 162.987 118.16 162.977 118.178 162.913C118.195 162.848 118.417 162.852 118.672 162.92C118.927 162.989 119.15 162.992 119.167 162.928C119.184 162.864 119.407 162.867 119.661 162.936C119.916 163.004 120.139 163.007 120.156 162.943C120.173 162.879 120.344 162.869 120.535 162.92C120.726 162.971 120.896 162.96 120.913 162.896C120.931 162.832 121.153 162.836 121.408 162.904C121.663 162.972 121.885 162.976 121.903 162.912C121.92 162.848 122.09 162.837 122.281 162.888C122.472 162.94 122.643 162.929 122.66 162.865C122.677 162.801 122.9 162.804 123.155 162.873C123.409 162.941 123.632 162.944 123.649 162.88C123.666 162.816 123.889 162.82 124.144 162.888C124.399 162.956 124.621 162.96 124.638 162.896C124.656 162.831 124.826 162.821 125.017 162.872C125.208 162.923 125.379 162.913 125.396 162.849C125.413 162.785 125.636 162.788 125.89 162.856C126.145 162.925 126.368 162.928 126.385 162.864C126.402 162.8 126.625 162.803 126.88 162.872C127.134 162.94 127.357 162.944 127.374 162.879C127.391 162.815 127.539 162.799 127.703 162.843C128.143 162.96 128.402 162.751 128.564 162.146C128.642 161.853 128.759 161.627 128.822 161.644C128.893 161.663 129.074 161.171 129.282 160.394C129.49 159.617 129.671 159.125 129.741 159.143C129.811 159.162 129.992 158.67 130.2 157.893C130.408 157.116 130.589 156.624 130.659 156.642C130.73 156.661 130.91 156.169 131.119 155.392C131.327 154.615 131.508 154.123 131.578 154.141C131.648 154.16 131.829 153.668 132.037 152.891C132.245 152.114 132.426 151.622 132.496 151.64C132.566 151.659 132.747 151.167 132.955 150.39C133.164 149.613 133.344 149.121 133.415 149.139C133.485 149.158 133.666 148.666 133.874 147.889C134.082 147.112 134.263 146.62 134.333 146.639C134.403 146.657 134.584 146.165 134.792 145.388C135 144.611 135.181 144.119 135.252 144.138C135.321 144.156 135.492 143.703 135.68 143.004C135.867 142.305 136.038 141.851 136.108 141.87C136.178 141.888 136.359 141.396 136.567 140.619C136.775 139.842 136.956 139.35 137.026 139.369C137.096 139.387 137.277 138.895 137.485 138.118C137.693 137.341 137.874 136.849 137.944 136.868C138.009 136.885 138.144 136.588 138.248 136.2L138.435 135.501L121.87 131.062L105.305 126.624L105.648 125.342C105.856 124.565 105.946 124.048 105.876 124.03C105.805 124.011 105.906 123.455 106.134 122.6C106.363 121.746 106.464 121.19 106.393 121.171C106.322 121.152 106.423 120.597 106.652 119.742C106.881 118.888 106.982 118.332 106.911 118.313C106.847 118.296 106.865 118.02 106.951 117.7L107.107 117.117L124.367 121.742C141.55 126.346 141.628 126.366 141.69 126.134C141.724 126.006 141.804 125.915 141.868 125.932C141.938 125.951 142.119 125.458 142.327 124.681C142.535 123.905 142.716 123.412 142.786 123.431C142.857 123.45 143.037 122.957 143.246 122.18C143.454 121.404 143.635 120.911 143.705 120.93C143.775 120.949 143.956 120.456 144.164 119.68C144.372 118.903 144.553 118.41 144.623 118.429C144.687 118.446 144.795 118.25 144.864 117.994L144.989 117.528L122.284 111.444L99.5798 105.361L99.4237 105.943Z" fill="#C5BDB4"/>
<path d="M110.254 61.4135L114.195 47.376L116.153 47.9256L114.45 53.9912L118.055 55.003L119.758 48.9374L121.716 49.4871L117.776 63.5246L115.817 62.9749L117.661 56.4068L114.056 55.395L112.213 61.9631L110.254 61.4135ZM122.204 64.7677L125.736 52.1859L123.362 51.5195L123.77 50.0638L130.408 51.9268L129.999 53.3826L127.694 52.7356L124.163 65.3174L122.204 64.7677ZM128.479 66.529L132.68 52.5645L134.603 53.1044L133.886 65.186L139.577 54.5005L141.483 55.0356L137.803 69.1461L136.226 68.7034L138.93 58.4694L133.696 67.9932L132.587 67.6819L133.09 56.8301L130.074 66.9766L128.479 66.529ZM140.648 69.9446L144.588 55.9071L146.546 56.4568L143 69.0905L146.588 70.0975L146.194 71.5012L140.648 69.9446ZM151.31 73.0868C150.466 72.8501 149.842 72.5002 149.436 72.0373C149.03 71.5744 148.803 71.0059 148.755 70.332C148.719 69.6613 148.819 68.9042 149.056 68.0608L150.911 68.5813C150.794 68.9972 150.713 69.4171 150.669 69.8409C150.628 70.2532 150.68 70.623 150.825 70.9504C150.985 71.2694 151.296 71.4938 151.758 71.6235C152.266 71.7662 152.671 71.7239 152.971 71.4967C153.275 71.2579 153.526 70.8982 153.723 70.4176C153.923 69.9255 154.113 69.3617 154.291 68.7263C154.47 68.0908 154.586 67.5439 154.64 67.0854C154.697 66.6153 154.648 66.234 154.493 65.9413C154.342 65.637 154.029 65.4184 153.556 65.2855C153.174 65.1785 152.817 65.209 152.483 65.377C152.152 65.5335 151.881 65.7441 151.67 66.0088L150.093 65.5661L152.204 58.0448L158.252 59.7425L157.732 61.5968L153.365 60.371L152.154 64.2189C152.453 64.0412 152.789 63.93 153.163 63.8854C153.549 63.844 153.961 63.885 154.4 64.0082C155.163 64.2222 155.708 64.5683 156.034 65.0465C156.373 65.5279 156.541 66.1048 156.539 66.7774C156.549 67.4531 156.441 68.1954 156.214 69.0041C156.013 69.7205 155.772 70.376 155.493 70.9707C155.217 71.5538 154.882 72.0392 154.486 72.4267C154.106 72.806 153.654 73.0594 153.133 73.1871C152.611 73.3148 152.003 73.2814 151.31 73.0868Z" fill="#C5BDB4"/>
</svg>
