<svg width="231" height="231" viewBox="0 0 231 231" fill="none" xmlns="http://www.w3.org/2000/svg">
<circle cx="115.5" cy="115.5" r="115.5" fill="#1C1C19"/>
<path d="M98.6106 56.9037L98.8936 55.4734C99.3291 55.5596 99.6881 55.6 99.9705 55.5947C100.253 55.5894 100.48 55.5242 100.651 55.3991C100.835 55.2764 100.984 55.0795 101.098 54.8087C101.216 54.526 101.318 54.161 101.407 53.7137L103.59 42.6776L105.568 43.0688L103.378 54.1402C103.215 54.9643 102.992 55.6237 102.711 56.1185C102.432 56.6015 102.043 56.9283 101.545 57.0988C101.048 57.2575 100.388 57.2553 99.5641 57.0923L98.6106 56.9037ZM107.333 58.4273C106.933 58.3481 106.602 58.1664 106.34 57.8822C106.08 57.5862 105.897 57.2442 105.79 56.8561C105.686 56.4563 105.673 56.0562 105.753 55.656C105.878 55.0203 106.09 54.5056 106.388 54.112C106.686 53.7183 107.047 53.4105 107.47 53.1884C107.907 52.9568 108.389 52.7769 108.916 52.6488C109.455 52.5229 110.016 52.4076 110.599 52.3028L110.743 51.5789C110.824 51.1668 110.868 50.8208 110.875 50.5407C110.881 50.2607 110.821 50.0407 110.693 49.881C110.58 49.7118 110.376 49.5981 110.082 49.5398C109.823 49.4886 109.599 49.5055 109.411 49.5907C109.235 49.6781 109.089 49.8267 108.974 50.0364C108.862 50.2343 108.776 50.4804 108.718 50.7747L108.617 51.2868L106.759 50.8459C107.006 49.7204 107.429 48.9417 108.029 48.5098C108.63 48.0661 109.449 47.9467 110.485 48.1517C111.497 48.3519 112.161 48.7706 112.475 49.4077C112.789 50.0449 112.843 50.8873 112.636 51.935L111.713 56.5966C111.65 56.9145 111.596 57.2217 111.549 57.5183C111.515 57.8173 111.484 58.0986 111.456 58.3622C111.442 58.6164 111.425 58.8577 111.404 59.086L109.674 58.7437C109.676 58.5483 109.675 58.3036 109.672 58.0094C109.684 57.7058 109.701 57.4339 109.724 57.1938C109.527 57.5708 109.223 57.9021 108.811 58.1877C108.414 58.4639 107.921 58.5438 107.333 58.4273ZM108.396 56.9495C108.584 56.9868 108.771 56.9687 108.957 56.8954C109.143 56.822 109.313 56.7334 109.468 56.6296C109.626 56.5139 109.736 56.4195 109.8 56.3465L110.372 53.4506C110.046 53.5572 109.736 53.6672 109.445 53.7808C109.153 53.8944 108.889 54.0256 108.651 54.1743C108.428 54.3136 108.234 54.4894 108.07 54.7015C107.92 54.9042 107.815 55.1527 107.757 55.447C107.676 55.859 107.688 56.1979 107.795 56.4636C107.901 56.7293 108.102 56.8913 108.396 56.9495ZM115.073 59.8118L115.079 49.2074L116.986 49.5846L116.616 58.0435L119.512 50.0842L121.348 50.4474L117.387 60.2694L115.073 59.8118ZM123.058 61.5381C122.658 61.459 122.327 61.2773 122.065 60.9931C121.805 60.6971 121.622 60.355 121.516 59.9669C121.411 59.5671 121.399 59.167 121.478 58.7668C121.603 58.1311 121.815 57.6164 122.113 57.2228C122.411 56.8292 122.772 56.5213 123.195 56.2992C123.632 56.0676 124.115 55.8878 124.641 55.7596C125.18 55.6337 125.741 55.5184 126.325 55.4136L126.468 54.6897C126.549 54.2777 126.593 53.9316 126.6 53.6515C126.606 53.3715 126.546 53.1516 126.418 52.9918C126.305 52.8226 126.101 52.7089 125.807 52.6507C125.548 52.5994 125.324 52.6164 125.136 52.7015C124.96 52.7889 124.814 52.9375 124.7 53.1472C124.587 53.3451 124.502 53.5912 124.443 53.8855L124.342 54.3976L122.484 53.9567C122.731 52.8312 123.155 52.0526 123.754 51.6206C124.355 51.1769 125.174 51.0576 126.21 51.2625C127.222 51.4628 127.886 51.8815 128.2 52.5186C128.514 53.1557 128.568 53.9981 128.361 55.0458L127.438 59.7074C127.376 60.0253 127.321 60.3325 127.274 60.6291C127.24 60.9281 127.209 61.2094 127.181 61.473C127.167 61.7272 127.15 61.9685 127.13 62.1968L125.399 61.8545C125.401 61.6591 125.4 61.4144 125.398 61.1202C125.409 60.8166 125.426 60.5448 125.449 60.3047C125.252 60.6816 124.948 61.0129 124.537 61.2985C124.139 61.5747 123.647 61.6546 123.058 61.5381ZM124.121 60.0603C124.309 60.0976 124.496 60.0796 124.682 60.0062C124.868 59.9329 125.038 59.8443 125.193 59.7404C125.351 59.6247 125.461 59.5304 125.525 59.4573L126.098 56.5614C125.771 56.668 125.461 56.7781 125.17 56.8916C124.878 57.0052 124.614 57.1364 124.376 57.2851C124.153 57.4245 123.959 57.6002 123.795 57.8123C123.645 58.015 123.541 58.2636 123.482 58.5578C123.401 58.9699 123.413 59.3087 123.52 59.5744C123.626 59.8401 123.827 60.0021 124.121 60.0603ZM131.812 63.27C130.977 63.1046 130.357 62.7129 129.953 62.0948C129.552 61.4649 129.401 60.7134 129.5 59.84L131.166 59.6742C131.132 60.3402 131.194 60.8602 131.353 61.2341C131.513 61.5962 131.812 61.8203 132.247 61.9065C132.589 61.974 132.866 61.931 133.08 61.7776C133.296 61.6124 133.437 61.365 133.502 61.0354C133.56 60.7411 133.548 60.4635 133.465 60.2024C133.382 59.9413 133.218 59.6581 132.973 59.3527L131.521 57.5059C131.229 57.13 130.996 56.7292 130.823 56.3036C130.663 55.8804 130.641 55.3685 130.76 54.7682C130.867 54.2267 131.063 53.7944 131.347 53.4714C131.645 53.1389 132.007 52.917 132.433 52.8055C132.873 52.6845 133.358 52.6765 133.887 52.7812C134.7 52.9419 135.265 53.3291 135.584 53.9426C135.917 54.5468 136.04 55.2255 135.952 55.9787L134.586 56.204C134.609 55.8415 134.599 55.5215 134.556 55.2439C134.515 54.9545 134.427 54.7229 134.29 54.549C134.155 54.3633 133.953 54.2437 133.682 54.1902C133.376 54.1296 133.108 54.1867 132.877 54.3613C132.661 54.5265 132.525 54.7504 132.469 55.0329C132.434 55.2095 132.435 55.393 132.47 55.5836C132.52 55.7647 132.623 55.9563 132.779 56.1583L134.252 58.1745C134.455 58.447 134.636 58.7338 134.797 59.0347C134.969 59.3379 135.094 59.6683 135.17 60.0259C135.246 60.3834 135.241 60.78 135.155 61.2155C135.04 61.7924 134.827 62.2517 134.515 62.5936C134.203 62.9355 133.815 63.1646 133.351 63.2809C132.89 63.3854 132.377 63.3818 131.812 63.27ZM139.547 64.8001C138.711 64.6347 138.108 64.3442 137.738 63.9284C137.381 63.5032 137.187 62.9694 137.155 62.3269C137.135 61.6869 137.205 60.9607 137.366 60.1484L137.831 57.7999C138.001 56.9406 138.222 56.2259 138.493 55.6558C138.768 55.0739 139.148 54.666 139.635 54.432C140.135 54.1885 140.798 54.1483 141.622 54.3113C142.363 54.458 142.91 54.6946 143.261 55.021C143.627 55.3379 143.838 55.7529 143.896 56.2658C143.956 56.7669 143.916 57.3707 143.776 58.077L143.657 58.6773L141.944 58.3385L142.067 57.7205C142.155 57.2731 142.196 56.9142 142.188 56.6435C142.18 56.3729 142.112 56.1636 141.982 56.0156C141.852 55.8676 141.646 55.7657 141.363 55.7098C141.057 55.6492 140.808 55.6733 140.615 55.782C140.423 55.8906 140.263 56.1098 140.137 56.4396C140.024 56.7599 139.911 57.2084 139.797 57.7852L139.161 60.999C138.989 61.8701 138.956 62.4691 139.063 62.796C139.169 63.1229 139.434 63.3283 139.858 63.4121C140.176 63.475 140.419 63.4497 140.589 63.3364C140.772 63.2137 140.908 63.0204 140.997 62.7566C141.098 62.4952 141.182 62.1938 141.249 61.8524L141.413 61.0225L143.126 61.3613L142.987 62.0676C142.851 62.7504 142.653 63.3227 142.39 63.7845C142.139 64.2487 141.782 64.5695 141.319 64.7469C140.867 64.9267 140.277 64.9445 139.547 64.8001ZM144.804 65.6932L146.823 55.487L148.712 55.8608L148.426 57.3087C148.926 56.7594 149.385 56.416 149.804 56.2786C150.223 56.1412 150.62 56.1098 150.997 56.1843C151.044 56.1936 151.085 56.2018 151.121 56.2088C151.168 56.2181 151.225 56.2356 151.294 56.2614L150.881 58.345C150.752 58.2582 150.596 58.1785 150.415 58.1059C150.248 58.0239 150.07 57.9643 149.882 57.927C149.587 57.8688 149.303 57.8858 149.027 57.9782C148.766 58.0611 148.48 58.2735 148.167 58.6154L146.693 66.067L144.804 65.6932ZM151.254 66.9693L153.273 56.7631L155.162 57.1368L153.143 67.343L151.254 66.9693ZM153.574 55.2445L153.965 53.2668L155.854 53.6406L155.463 55.6182L153.574 55.2445ZM155.208 71.2378L157.891 57.6766L159.78 58.0503L159.62 58.8626C159.894 58.6479 160.209 58.4778 160.565 58.3523C160.92 58.2268 161.315 58.2072 161.751 58.2933C162.28 58.3981 162.67 58.622 162.92 58.9651C163.185 59.2988 163.351 59.6926 163.421 60.1467C163.492 60.5889 163.508 61.0325 163.469 61.4774C163.433 61.9105 163.384 62.2801 163.323 62.5862L162.834 65.0583C162.692 65.7763 162.487 66.4451 162.217 67.0646C161.95 67.6724 161.589 68.1391 161.133 68.4648C160.691 68.7811 160.135 68.8729 159.464 68.7401C159.099 68.6679 158.793 68.5156 158.545 68.2831C158.3 68.0389 158.089 67.7769 157.911 67.4973L157.098 71.6115L155.208 71.2378ZM159.386 67.1835C159.716 67.2487 159.975 67.1776 160.163 66.9701C160.353 66.7508 160.506 66.4387 160.623 66.0337C160.74 65.6286 160.847 65.1789 160.945 64.6845L161.434 62.2124C161.518 61.7886 161.571 61.3955 161.594 61.033C161.619 60.6588 161.576 60.3506 161.465 60.1084C161.354 59.8662 161.133 59.7125 160.804 59.6473C160.557 59.5984 160.311 59.6048 160.066 59.6665C159.821 59.7282 159.603 59.8134 159.41 59.9221L158.118 66.4554C158.268 66.6199 158.446 66.7713 158.652 66.9097C158.859 67.0364 159.104 67.1276 159.386 67.1835ZM167.15 70.2607C166.62 70.1559 166.21 69.9708 165.92 69.7055C165.642 69.4425 165.463 69.1134 165.382 68.7182C165.313 68.3253 165.327 67.8817 165.425 67.3872L166.742 60.7303L165.665 60.5172L165.913 59.2635L166.99 59.4766L167.58 56.4924L169.469 56.8662L168.879 59.8503L170.521 60.1752L170.273 61.4289L168.631 61.104L167.339 67.6374C167.259 68.0377 167.267 68.3389 167.362 68.5411C167.459 68.7315 167.69 68.8628 168.054 68.935C168.149 68.9536 168.256 68.9687 168.376 68.9802C168.508 68.9941 168.634 69.0067 168.754 69.0182L168.478 70.4132C168.235 70.402 168.013 70.3824 167.81 70.3546C167.606 70.3386 167.385 70.3072 167.15 70.2607Z" fill="#C5BDB4"/>
<path d="M169.848 85.714L83.9481 66.6057C77.4811 65.1671 71.1194 69.0125 69.745 75.1908L51.4898 157.256C50.1154 163.435 54.2472 169.614 60.7141 171.053L146.614 190.161C153.081 191.6 159.443 187.754 160.818 181.576L179.073 99.5104C180.447 93.3322 176.315 87.1525 169.848 85.714ZM113.61 158.694C111.349 168.859 104.069 172.109 94.9667 170.084C86.7427 168.255 82.8864 163.139 81.5404 157.677L90.9843 154.713C91.9881 157.799 92.9389 160.433 96.4774 161.22C99.8451 161.969 102.273 161.188 103.367 156.269L110.788 122.906L121.062 125.192L113.61 158.694V158.694ZM134.622 178.905C125.081 176.783 119.871 171.073 118.135 164.717L127.532 161.962C128.966 165.878 131.281 169.06 136.332 170.184C140.578 171.128 143.763 169.708 144.39 166.887C145.137 163.53 142.619 161.722 138.35 158.692L136.021 157.073C129.272 152.415 125.212 147.524 126.991 139.527C128.63 132.16 135.756 127.873 144.907 129.909C151.447 131.364 155.65 134.574 157.752 141.012L148.659 144.127C147.571 140.729 145.932 139.116 142.979 138.46C139.978 137.792 137.67 139.187 137.141 141.565C136.487 144.502 138.126 146.115 142.133 148.939L144.462 150.558C152.405 156.069 156.496 160.82 154.671 169.027C152.71 177.84 144.359 181.071 134.622 178.905V178.905Z" fill="#C5BDB4"/>
</svg>
