<svg width="85" height="97" viewBox="0 0 85 97" fill="none" xmlns="http://www.w3.org/2000/svg">
<path fill-rule="evenodd" clip-rule="evenodd" d="M40.9422 0.338043C37.9595 0.965789 37.2439 1.28016 34.1422 3.32577C29.4785 6.40135 26.079 10.1962 24.5347 14.0512C24.2402 14.7862 23.701 16.1393 23.3368 17.058C22.9723 17.9767 22.5088 19.5199 22.3064 20.4871C21.8098 22.8637 20.5999 33.9453 20.5999 36.1196V37.8675L17.5153 38.0984C13.6869 38.385 7.70163 39.6916 5.41796 40.739C1.77403 42.4104 0.854294 44.4356 0.238024 52.146C-0.173156 57.2942 -0.0837834 59.6963 0.759919 66.1685C0.831951 66.7198 1.03604 72.4326 1.21378 78.8638C1.39153 85.2949 1.69033 91.0505 1.87774 91.6542C2.8515 94.7883 5.1315 96.6996 8.22852 96.9772C10.0803 97.1432 18.7451 96.3702 22.2673 95.7247C26.857 94.8838 34.2179 94.3947 44.277 94.2631C50.2379 94.1849 55.4902 94.0359 55.9488 93.932C56.4073 93.8278 58.7333 93.5926 61.1177 93.4088C70.7522 92.6671 77.5205 92.0698 78.6254 91.8643C80.1193 91.5864 82.2143 90.1789 82.7772 89.0754C83.7413 87.1848 84.4206 78.9145 84.9191 62.9947C85.1959 54.1558 84.75 46.384 83.7709 42.995C82.8999 39.9799 81.1131 37.8271 78.7134 36.902C76.1296 35.9058 71.9918 35.3321 67.7463 35.3816C64.3368 35.4213 63.406 35.3391 63.5321 35.0097C63.6215 34.7772 63.4467 33.4242 63.1446 32.003C62.8421 30.5818 62.4666 28.8178 62.3099 28.0828C62.1531 27.3478 62.0024 25.4686 61.9754 23.9067C61.89 19.0014 61.3174 13.7509 60.6585 11.8319C59.6554 8.911 58.9981 7.85897 56.6484 5.4138C52.4986 1.09508 46.522 -0.836267 40.9422 0.338043ZM46.9712 3.19848C49.6197 3.70161 51.5392 4.76868 53.8485 7.02208C57.289 10.3786 58.4415 13.7746 58.785 21.5682C58.9027 24.2325 59.2879 28.158 59.6414 30.2915C60.5835 35.9793 60.5901 35.9338 58.816 35.9338H57.348L57.1556 34.0128C57.0499 32.9561 56.9755 29.4609 56.9905 26.2453C57.0309 17.6072 56.1625 14.3823 52.7837 10.6172C51.7112 9.42215 50.438 8.49273 48.6852 7.62544C46.2005 6.39568 46.0594 6.36761 42.4502 6.38031C38.8509 6.393 38.6952 6.42541 36.2815 7.65384C31.7288 9.97072 29.6826 12.9955 28.1122 19.7307C26.7616 25.5214 25.7108 34.4993 26.175 36.2776C26.4205 37.218 25.5478 37.9383 24.1632 37.9383H23.1851L23.3978 33.5401C23.5149 31.1213 23.7383 28.9788 23.894 28.7794C24.0501 28.5799 24.2612 27.3642 24.3633 26.0776C24.649 22.4789 25.8466 17.9874 27.2582 15.2205C29.0316 11.7444 29.7329 10.548 29.9984 10.5453C30.1238 10.5443 31.0008 9.78764 31.9472 8.86423C36.8264 4.10318 41.8202 2.21994 46.9712 3.19848ZM44.7992 8.90198C49.2278 9.71448 52.4225 12.9431 53.6131 17.8097C54.1243 19.8994 54.2657 21.9223 54.3474 28.2973L54.4481 36.1957L52.7807 36.3902C50.3583 36.6731 37.8098 37.5371 32.8553 37.7619L28.6034 37.955L28.6281 36.6939C28.6558 35.2897 29.4595 26.8828 29.6909 25.5772C29.7723 25.1178 29.949 24.0654 30.0834 23.2386C30.595 20.0952 32.0049 15.3395 32.7726 14.1675C34.5781 11.4113 37.8135 9.353 41.1016 8.86891C42.0227 8.73327 42.7863 8.60331 42.7983 8.58059C42.8107 8.55754 43.7111 8.7022 44.7992 8.90198ZM74.4569 38.3068C81.4796 39.404 82.6304 43.1223 82.6158 64.6651C82.6128 69.3507 82.5521 73.5972 82.4814 74.102C82.4103 74.6068 82.264 75.584 82.1552 76.2736C82.0469 76.9631 81.8778 78.8805 81.7794 80.5342C81.3582 87.6248 81.1851 88.2452 79.3727 89.1733C78.0851 89.8324 76.9896 90.0058 72.6264 90.2417C70.5188 90.356 68.6837 90.518 68.5479 90.6018C68.4122 90.686 66.6848 90.8187 64.7093 90.8968C62.7341 90.975 60.3674 91.111 59.4503 91.1988C58.5332 91.2867 56.2072 91.5112 54.2814 91.698C52.3555 91.8847 46.9531 92.0464 42.2761 92.0574C33.5963 92.0778 28.4127 92.436 20.9334 93.5318C14.1605 94.5243 7.99509 94.7178 6.93129 93.9714C4.91207 92.5546 4.59727 90.9964 4.41852 81.5364C4.21677 70.8704 3.84327 63.9338 3.20599 59.0181C2.81915 56.0337 2.9949 52.4573 3.73856 48.1804C4.4412 44.1389 6.01922 42.9646 12.314 41.8003C18.346 40.6845 19.9567 40.5662 35.5141 40.0952C41.0516 39.9278 44.9139 39.5977 53.4477 38.5631C60.4954 37.7085 69.8912 37.5939 74.4569 38.3068ZM39.2701 47.5777C36.0264 48.2759 34.3029 50.4171 33.9324 54.2099C33.7937 55.6278 33.7314 56.9441 33.7937 57.1352C33.8561 57.326 33.9941 58.083 34.1009 58.8176C34.6047 62.2821 36.2515 65.4897 38.4141 67.2186C39.0707 67.7434 39.6073 68.3985 39.6059 68.6742C39.6036 69.1325 37.2166 76.2472 36.3198 78.4679C36.1107 78.985 35.94 79.5907 35.94 79.8136C35.94 80.0361 35.7352 80.5151 35.4848 80.8773C34.6678 82.0599 34.5491 82.9349 35.1276 83.5146C35.5775 83.9652 36.1714 84.029 38.5571 83.8824C43.0898 83.6038 52.011 82.6566 54.925 82.1451C56.1985 81.9213 56.3553 81.7068 56.1905 80.4116C56.0461 79.2743 53.415 72.5846 52.006 69.7713C51.3414 68.445 51.3758 67.6719 52.0991 67.6719C52.7233 67.6719 55.2521 64.8178 55.8074 63.4865C56.7808 61.1526 56.1455 56.6628 54.4658 54.0068C53.1025 51.8513 51.0623 50.0593 48.5615 48.8211C46.4606 47.7808 45.6993 47.5857 43.2745 47.4658C41.7165 47.3886 39.9147 47.439 39.2701 47.5777Z" fill="black"/>
</svg>
