<svg width="34" height="41" viewBox="0 0 34 41" fill="none" xmlns="http://www.w3.org/2000/svg">
<path fill-rule="evenodd" clip-rule="evenodd" d="M3.23097 0.313006C1.91395 0.576871 1.03315 1.15471 0.510992 2.0976C0.131306 2.78317 0.0892003 4.50748 0.0282448 21.9121C-0.0427474 42.1278 -0.0640451 41.7354 1.03633 40.533C1.40598 40.1292 1.44148 38.4581 1.44148 21.4897C1.44148 11.2593 1.50684 2.95359 1.58689 3.03251C1.6667 3.11167 4.29366 11.6539 7.42466 22.0155L13.1173 40.8547H14.5302H15.9435L21.6557 22.246C24.7974 12.0112 27.4281 3.57766 27.5015 3.50504C27.5752 3.43242 27.6352 11.8337 27.6352 22.1743V40.9757H28.3576C28.7549 40.9757 29.6636 40.852 30.3772 40.701C31.952 40.3674 33.3234 39.1398 33.727 37.7021C33.9131 37.0388 33.9978 31.0254 33.9985 18.3696L34 0L31.5916 0.114503C29.9101 0.19463 28.8944 0.368684 28.2256 0.691616C26.3617 1.59142 26.1235 2.19104 21.3981 17.8784C18.9954 25.8553 16.9648 32.4575 16.8855 32.5495C16.8064 32.6417 14.5878 25.3976 11.9554 16.4513L7.16958 0.185674L5.71301 0.146699C4.91202 0.125154 3.79524 0.199956 3.23097 0.313006Z" fill="white"/>
</svg>
