<svg width="25" height="25" viewBox="0 0 25 25" fill="none" xmlns="http://www.w3.org/2000/svg">
<g clip-path="url(#clip0_318_47)">
<path d="M11.5365 24.4956C4.44189 14.2105 3.125 13.1549 3.125 9.375C3.125 4.19731 7.32231 0 12.5 0C17.6777 0 21.875 4.19731 21.875 9.375C21.875 13.1549 20.5581 14.2105 13.4635 24.4956C12.9979 25.1682 12.0021 25.1681 11.5365 24.4956ZM12.5 13.2812C14.6574 13.2812 16.4062 11.5324 16.4062 9.375C16.4062 7.21763 14.6574 5.46875 12.5 5.46875C10.3426 5.46875 8.59375 7.21763 8.59375 9.375C8.59375 11.5324 10.3426 13.2812 12.5 13.2812Z" fill="white"/>
</g>
<defs>
<clipPath id="clip0_318_47">
<rect width="25" height="25" fill="white"/>
</clipPath>
</defs>
</svg>
