<svg width="357" height="110" viewBox="0 0 357 110" fill="none" xmlns="http://www.w3.org/2000/svg">
<path fill-rule="evenodd" clip-rule="evenodd" d="M8.59788 0.838907C5.09316 1.54611 2.7493 3.09481 1.35979 5.62191C0.349416 7.45933 0.237369 12.0808 0.0751618 58.728C-0.113754 112.909 -0.170429 111.858 2.75777 108.635C3.74144 107.553 3.83589 103.074 3.83589 57.5959C3.83589 30.1766 4.00983 7.91609 4.22285 8.1276C4.43521 8.33976 11.4258 31.2342 19.7576 59.0051L34.9061 109.497H38.6661H42.4269L57.6274 59.6227C65.988 32.1918 72.9883 9.58872 73.1837 9.39407C73.3798 9.19943 73.5394 31.7163 73.5394 59.4307V109.822H75.4618C76.5191 109.822 78.9372 109.49 80.8361 109.085C85.0268 108.191 88.6761 104.901 89.7503 101.048C90.2454 99.27 90.4708 83.153 90.4728 49.2334L90.4767 0L84.0679 0.306886C79.5932 0.521641 76.8904 0.988133 75.1106 1.85364C70.1506 4.26526 69.5168 5.87235 56.9421 47.917C50.5483 69.2965 45.1447 86.9914 44.9336 87.2379C44.7232 87.4851 38.8192 68.0696 31.8144 44.0923L19.0788 0.497635L15.2028 0.393177C13.0713 0.335433 10.0994 0.535915 8.59788 0.838907ZM202.942 0.891461C197.708 2.11641 194.684 5.19564 193.454 10.5541C193.027 12.411 192.778 31.0117 192.768 61.6477L192.752 109.822H194.674C198.339 109.822 203.222 108.401 205.171 106.767C209.346 103.269 209.332 103.361 209.689 77.7056L210.015 54.3486L212.673 57.917C214.135 59.8797 222.304 71.1203 230.827 82.8961C239.35 94.6719 246.948 105.002 247.712 105.852C250.612 109.079 253.515 109.793 263.758 109.796L273.204 109.8L271.224 108.536C268.828 107.006 223.134 45.8265 223.571 44.7326C224.012 43.6297 257.536 6.08711 260.301 3.60153C261.577 2.45379 263.831 1.24376 265.307 0.91352L267.993 0.312076L264.084 0.256927C257.086 0.158309 257.17 0.0849934 232.489 27.9882L210.015 53.3968L209.845 26.7853L209.675 0.173232L207.565 0.238112C206.405 0.274446 204.324 0.568355 202.942 0.891461ZM101.996 2.23319C103.137 2.61729 104.812 3.70339 105.72 4.64611C106.627 5.58947 112.949 18.1231 119.769 32.4987L132.168 58.6359V84.3183V110L135.914 109.574C141.58 108.931 145.14 106.845 147.126 103.003C148.778 99.8092 148.781 99.7761 149.106 78.0502L149.432 56.295L162.786 31.0052C170.131 17.0954 176.727 5.06523 177.443 4.2711C178.16 3.47696 179.772 2.5297 181.026 2.16507C183.013 1.58828 182.702 1.5247 178.605 1.66938C174.499 1.81406 173.674 2.05737 172.091 3.58725C171.094 4.55138 165.001 15.5564 158.552 28.0434C152.102 40.5303 146.679 50.7464 146.5 50.7458C146.321 50.7458 142.07 41.9512 137.054 31.2031C125.627 6.71515 125.153 5.88792 121.261 3.60931C118.307 1.87959 117.739 1.78941 109.043 1.66484C101.81 1.56168 100.352 1.67911 101.996 2.23319ZM287.88 2.75029C286.574 4.0505 286.558 4.68827 286.558 56.9438V109.822H314.454C345.124 109.822 345.877 109.739 350.599 105.863C351.923 104.776 353.812 102.521 354.797 100.852L356.588 97.8187L356.793 82.7339L357 67.6491H355.095H353.191L352.734 74.2994C352.155 82.7391 351.458 85.806 348.971 90.8362C346.387 96.0636 341.526 100.865 336.144 103.505L331.866 105.604L318.006 105.822L304.147 106.04V81.3299V56.6194H307.981C313.144 56.6194 317.968 58.2791 321.302 61.2019C324.411 63.9276 327.267 68.7229 327.942 72.353C328.316 74.3597 328.668 74.786 329.951 74.786H331.507V54.0242V33.2624H329.879C328.582 33.2624 328.25 33.5887 328.25 34.8597C328.25 37.9708 325.473 43.8814 322.548 46.9963C318.916 50.8632 314.302 52.7266 308.357 52.7266H304.147V28.9984V5.27091L321.899 5.47917C339.328 5.6842 339.71 5.71729 342.908 7.31011C345.52 8.61096 346.485 9.57444 347.782 12.1762C349.214 15.0504 349.426 16.4369 349.647 24.3413L349.895 33.2624H351.775H353.656V18.7881C353.656 7.31465 353.465 4.0531 352.732 3.05458C351.843 1.84261 350.628 1.78876 320.504 1.61488C289.802 1.43776 289.175 1.45982 287.88 2.75029Z" fill="black"/>
</svg>
