<svg width="52" height="147" viewBox="0 0 52 147" fill="none" xmlns="http://www.w3.org/2000/svg">
<path fill-rule="evenodd" clip-rule="evenodd" d="M39.4875 146.256C40.9179 145.841 43.4426 144.826 45.0979 144C49.1662 141.97 49.5998 140.969 49.4821 133.872C49.4331 130.917 49.1903 127.864 48.9425 127.087C48.6951 126.31 47.9368 123.77 47.2577 121.441C46.5785 119.113 45.5038 116.003 44.8692 114.531L43.716 111.853L45.4151 109.748C49.3243 104.906 51.707 96.3111 50.9469 89.7937C50.4525 85.5522 48.5342 81.085 45.9846 78.2379L44.057 76.0857L44.9111 72.142C46.2031 66.1753 47.2177 54.9653 47.0812 48.1661C46.5894 23.6162 45.9814 16.4104 43.6192 7.12621C42.3818 2.26348 41.5084 0.527612 40.6899 1.30307C40.5577 1.42784 40.7245 2.80208 41.0601 4.35682C41.6495 7.08654 41.6415 7.15585 40.839 6.38887C39.7453 5.34427 39.7459 6.1008 40.8397 7.36567C41.309 7.90804 41.832 8.88075 42.0017 9.52703C42.3077 10.6899 42.2952 10.6872 40.7798 9.23641C37.836 6.41788 37.4404 6.44593 40.034 9.28954C42.3774 11.859 42.6887 12.4465 43.0286 14.9446C43.4873 18.3134 43.4882 19.3364 43.033 18.5989C42.8524 18.306 40.5306 16.2482 37.8736 14.0259C35.2166 11.8032 31.1516 7.83383 28.8398 5.20458C24.8024 0.612492 23.5065 -0.411898 23.6454 1.09739C23.6807 1.48337 24.3716 5.12214 25.1808 9.18366C26.9376 18.0021 27.2244 20.5164 27.8646 32.7129C28.6039 46.7909 28.5969 54.0095 27.8374 60.9468C26.8411 70.046 27.334 69.3336 22.1286 69.193C12.9793 68.9458 5.73767 72.1612 2.80083 77.7741C1.69753 79.8831 1.45197 80.9741 1.30628 84.4148C1.13621 88.4298 1.18276 88.6416 3.17589 92.9465L5.21974 97.3606L3.85124 99.146C0.54584 103.459 0.0367845 109.069 2.4479 114.606C4.19683 118.622 5.9955 120.607 9.885 122.814C13.0409 124.604 13.4371 124.71 17.1873 124.766C20.6095 124.817 23.4929 124.431 25.8182 123.611C26.2173 123.47 26.8339 124.432 27.5852 126.368C29.4544 131.185 30.4088 136.33 30.2848 140.922C30.1334 146.526 30.3578 146.892 33.9882 146.959C35.5826 146.988 38.0576 146.672 39.4875 146.256ZM32.9838 144.665C33.0071 143.801 35.8993 141.968 39.0183 140.84C42.2325 139.678 46.9799 139.498 46.7962 140.545C46.6843 141.18 42.1536 143.308 38.8276 144.288C35.8088 145.177 32.965 145.361 32.9838 144.665ZM31.5716 139.101C31.2716 134.642 31.3491 133.277 31.882 133.626C32.1342 133.792 32.3462 133.715 32.3532 133.457C32.3602 133.198 32.0972 132.811 31.7684 132.596C31.2171 132.237 29.1593 124.921 29.5151 124.584C29.8111 124.303 34.184 126.065 37.5476 127.819C41.6628 129.966 44.7659 132.864 46.4623 136.145L47.7432 138.622L46.4066 138.209C45.6716 137.982 44.3703 137.8 43.5156 137.806C40.638 137.824 34.4011 140.07 33.0962 141.559C32.0354 142.769 31.7916 142.377 31.5716 139.101ZM43.6819 129.818C42.4823 128.633 40.4899 127.118 39.2549 126.451C36.668 125.053 31.1441 123.106 29.6518 123.066C28.8753 123.045 27.9335 121.89 25.6622 118.173C24.0273 115.497 22.0632 112.675 21.2978 111.901C19.7196 110.305 19.595 109.285 20.7701 107.594C21.5742 106.436 21.6487 106.424 25.5738 106.849C33.5858 107.718 39.8777 109.929 41.3007 112.377C42.4486 114.352 42.4377 114.498 41.1561 114.24C40.2361 114.055 40.2514 114.095 41.2861 114.578C43.0402 115.396 45.0589 119.549 46.7232 125.764L47.3896 128.251L45.504 126.547C42.7055 124.017 42.4499 124.461 45.0051 127.414C47.2154 129.967 47.8073 131.5 47.7263 134.463L47.6865 135.92L46.7752 133.946C46.2734 132.86 44.882 131.003 43.6819 129.818ZM11.1625 120.855C8.33314 119.277 6.07119 116.993 4.89729 114.53L4.04004 112.731L6.1941 113.912C8.86783 115.378 11.4682 115.31 15.117 113.679C17.4435 112.639 17.7928 112.597 18.9231 113.221C20.4014 114.037 20.8528 115.037 20.0772 115.777C19.6465 116.188 19.7207 116.242 20.3949 116.005C21.1902 115.727 21.2161 115.803 20.6665 116.802C20.1634 117.715 20.1679 117.808 20.6911 117.34C21.0388 117.028 21.481 116.778 21.6741 116.783C22.3466 116.801 24.8584 121.15 24.4302 121.555C23.7214 122.227 19.0393 122.736 16.2064 122.449C14.5234 122.279 12.6586 121.689 11.1625 120.855ZM7.26599 112.309C5.31735 111.264 3.7961 108.96 3.45366 106.538C3.24996 105.095 3.50741 104.099 4.73929 101.566C5.99588 98.9827 7.11537 97.6391 10.8209 94.2689C13.3184 91.9968 16.4228 89.5975 17.7194 88.9362L20.0769 87.7347L19.6614 89.7424C19.0098 92.8912 19.083 99.9085 19.7956 102.568C20.3687 104.71 20.3606 105.099 19.7241 105.956C19.3289 106.49 18.73 107.79 18.393 108.846C17.8301 110.61 17.5325 110.865 14.723 111.988C11.1478 113.418 9.46534 113.49 7.26599 112.309ZM40.7285 99.1319C39.333 96.3342 37.0425 93.8638 35.8132 93.8306C35.2364 93.815 33.365 89.8578 33.3547 88.6306C33.3511 88.2454 33.1392 87.9191 32.8834 87.9057C32.627 87.8922 32.0049 87.6192 31.5002 87.2989C30.6408 86.7544 30.666 86.7187 31.8929 86.7383C32.7027 86.7518 33.0904 86.5658 32.908 86.2519C32.7247 85.9366 31.9006 85.8453 30.728 86.011C29.4013 86.1982 28.9417 86.127 29.1758 85.7698C29.3588 85.4905 30.3359 85.1529 31.3466 85.0192C32.3578 84.8855 33.0663 84.5719 32.9214 84.3225C32.6698 83.8901 31.4658 84.0083 29.6721 84.6417C29.1066 84.8411 28.9557 84.7637 29.1961 84.3973C29.6857 83.6513 28.9226 83.7077 27.8147 84.4991C27.2556 84.8989 25.8206 85.1364 24.1784 85.1009C22.6868 85.069 21.0541 85.2489 20.5507 85.5008C19.7242 85.9149 19.6402 85.7955 19.6816 84.2644C19.7478 81.8128 21.0502 79.5888 24.1255 76.6753C28.6865 72.3542 31.709 71.8464 37.1029 74.4941C39.1221 75.4857 39.5642 75.8776 39.0239 76.199C38.4917 76.5155 38.6601 76.6404 39.7198 76.7157C40.5135 76.7717 40.7621 76.8974 40.2953 77.0057C38.8897 77.3331 39.3708 78.0592 41.0231 78.1039C43.6178 78.174 47.3709 83.0491 48.7022 88.0801C49.4509 90.9102 49.4767 96.9998 48.7394 96.9799C48.483 96.973 48.2434 97.7538 48.2077 98.7156L48.1422 100.464L47.5465 98.9871C46.785 97.1003 45.7554 96.3071 46.3775 98.0866C47.4631 101.192 46.6009 104.569 43.8351 108.048L42.5636 109.647L42.3847 105.87C42.2403 102.819 41.9224 101.526 40.7285 99.1319ZM34.071 106.633C32.4595 106.169 29.2678 105.72 26.9772 105.637C22.9266 105.489 22.8354 105.462 23.6331 104.626C24.0846 104.154 26.0438 102.77 27.9874 101.55L31.5214 99.3317L32.8381 100.324C34.0534 101.24 34.7304 102.16 33.684 101.473C33.4318 101.308 33.2193 101.4 33.2118 101.678C33.2043 101.956 33.6855 102.384 34.2809 102.629C35.1976 103.006 38.6575 107.398 38.637 108.158C38.6333 108.295 38.2635 108.198 37.8154 107.942C37.3668 107.686 35.6821 107.097 34.071 106.633ZM35.4408 99.9472C35.0203 99.5835 34.6825 99.0615 34.6899 98.7873C34.6973 98.5135 35.0007 98.7046 35.3635 99.2129C36.2526 100.456 36.2655 99.4603 35.3777 98.117C34.9917 97.533 34.7568 96.5023 34.8563 95.8264L35.0365 94.5978L36.5093 95.9112C38.2811 97.4912 40.9702 103.193 41.3215 106.113L41.5745 108.22L38.8898 104.414C37.4128 102.321 35.8608 100.31 35.4408 99.9472ZM20.8818 99.6939C20.5992 94.6595 21.1079 88.4406 21.8603 87.7278C22.175 87.4297 23.2122 87.23 24.1651 87.2842C28.9031 87.5545 32.2636 89.842 32.7932 93.1586C33.0711 94.8961 32.4434 96.3982 31.5374 96.1652C31.2588 96.0937 31.0176 96.4022 31.0017 96.8507C30.9768 97.5482 30.9092 97.5632 30.5392 96.9549C30.1795 96.3637 30.0969 96.4007 30.0526 97.1751C30.0171 97.799 28.6324 99.0259 25.8618 100.888C23.5859 102.417 21.5853 103.676 21.4157 103.684C21.246 103.693 21.0057 101.897 20.8818 99.6939ZM4.70841 92.3966L4.06199 91.0859L5.7956 92.0759C6.74926 92.6207 7.9116 93.0768 8.37841 93.0894C9.07467 93.1082 8.98657 93.3116 7.88815 94.2209C6.40261 95.4502 6.13928 95.2988 4.70841 92.3966ZM6.3598 90.8848C5.68644 90.5194 4.68993 89.6263 4.14483 88.9008C3.27 87.7356 3.19516 87.2063 3.5046 84.3725C3.95539 80.2451 5.73365 76.7491 8.1474 75.2453C11.7369 73.0084 15.8306 71.578 15.0491 72.8333C14.8462 73.1587 15.1836 73.0189 15.7986 72.5222C16.4742 71.9767 16.7537 71.8918 16.5044 72.3079C16.2082 72.8025 16.3612 72.774 17.0471 72.2059C17.8424 71.5474 18.9327 71.4401 23.5617 71.5656L29.121 71.7163L26.9945 72.6935C24.2471 73.9563 20.5304 77.4788 19.3179 79.9685C18.7941 81.045 18.334 82.9078 18.296 84.1085C18.2368 85.9694 18.0271 86.4258 16.8754 87.1997C15.9533 87.8197 15.3761 87.9526 15.0589 87.6178C14.7422 87.2835 14.4959 87.365 14.2843 87.875C14.0811 88.3651 14.1606 88.5138 14.5162 88.3069C14.8609 88.1067 14.9243 88.1961 14.6902 88.5529C14.4882 88.861 14.0213 88.9884 13.653 88.8357C13.2635 88.6739 13.1025 88.7624 13.2679 89.0469C13.9525 90.2247 10.2516 92.4007 8.50957 91.845C8.0006 91.6824 7.03315 91.2507 6.3598 90.8848ZM27.823 85.2143C27.9884 84.9621 28.3336 84.7614 28.5901 84.7683C28.8466 84.7753 28.9211 84.9873 28.7557 85.2395C28.5902 85.4917 28.245 85.6924 27.9885 85.6854C27.732 85.6785 27.6575 85.4665 27.823 85.2143ZM37.1711 71.7789C35.2866 70.9313 33.9355 69.1214 31.7543 64.5225C30.1767 61.1963 30.1719 61.1644 30.5657 56.6257C30.8306 53.5733 31.0927 52.3194 31.3595 52.8273C31.5783 53.2444 31.9931 53.5921 32.2818 53.5999C32.5704 53.6077 32.363 53.1158 31.8213 52.5075C31.2329 51.8457 30.8528 50.799 30.877 49.904L30.9174 48.408L32.1784 49.2401C33.4255 50.0634 33.4239 50.055 32.0206 48.4299C30.6349 46.8262 30.6002 46.6596 30.5247 41.3177L30.448 35.8474L33.1465 39.5218C34.6306 41.5425 37.8085 45.3007 40.2087 47.8736L44.5728 52.551L44.2296 59.4161C44.0408 63.1916 43.7988 66.3646 43.6919 66.4672C43.5851 66.5693 43.0568 66.2401 42.5184 65.7355C41.5448 64.8229 41.542 64.8233 42.048 65.8549C42.328 66.4257 42.7621 67.0273 43.0129 67.1919C43.2637 67.3564 43.4514 68.1497 43.4296 68.9541L43.3901 70.4171L41.7314 68.764C39.9885 67.0275 40.0377 67.4704 41.8804 70.1065C42.7525 71.3542 42.9106 72.0133 42.6396 73.2702L42.2971 74.8579L40.5387 73.6806C39.5715 73.0328 38.0564 72.1771 37.1711 71.7789ZM28.7152 68.4619C28.8416 68.0667 29.1094 66.945 29.3099 65.9685C29.7247 63.9487 29.8187 64.0138 31.676 67.6103L33.0335 70.2399L30.7596 69.7099C29.0455 69.3104 28.5419 69.0027 28.7152 68.4619ZM39.8392 44.7783C39.2812 43.9792 37.2778 41.3825 35.3875 39.0078C30.6675 33.078 29.9628 31.9225 30.0095 30.1914C30.046 28.8404 30.1272 28.7568 30.8218 29.3524C31.4869 29.9224 31.5416 29.9155 31.2189 29.3033C31.0129 28.9128 30.5375 28.2162 30.1626 27.7553C29.2931 26.6859 29.8336 26.1312 30.9013 26.9973C31.4758 27.4641 31.4365 27.3127 30.7651 26.477C30.0621 25.6011 29.6436 23.8551 29.1361 19.68C28.7604 16.5897 28.4246 13.4216 28.3892 12.6394C28.3539 11.8572 28.1142 10.7969 27.8569 10.2831C27.5992 9.76889 27.2547 8.51118 27.0915 7.48799L26.794 5.62767L29.5223 8.96213C32.4159 12.4989 34.104 14.0496 38.5267 17.2329C43.5175 20.825 43.8029 21.333 44.0975 27.1508C44.2391 29.9417 44.4126 34.9016 44.4834 38.1727C44.6039 43.7655 44.5622 44.1009 43.7818 43.7914C43.008 43.4848 43.0013 43.5248 43.6867 44.3782C44.0907 44.882 44.541 46.3189 44.6868 47.5717L44.9524 49.8498L42.9031 48.0406C41.7758 47.0455 40.3972 45.5774 39.8392 44.7783Z" fill="black"/>
</svg>
