<svg width="921" height="171" viewBox="0 0 921 171" fill="none" xmlns="http://www.w3.org/2000/svg">
<path fill-rule="evenodd" clip-rule="evenodd" d="M856.8 1.434C850.392 3.156 847.105 5.694 844.383 11.02C841.249 17.153 841.405 21.145 846.602 68.114C852.582 122.161 851.681 117 855.133 117C858.697 117 857.967 121.991 863.618 59C866.061 31.775 868.316 7.363 868.63 4.75L869.202 0L865.417 0.0670004C863.336 0.105 859.458 0.719 856.8 1.434ZM907.8 1.434C901.392 3.156 898.105 5.694 895.383 11.02C892.249 17.153 892.405 21.145 897.602 68.114C903.582 122.161 902.681 117 906.133 117C909.697 117 908.967 121.991 914.618 59C917.061 31.775 919.316 7.363 919.63 4.75L920.202 0L916.417 0.0670004C914.336 0.105 910.458 0.719 907.8 1.434ZM23.062 3.367C15.799 5.326 9.287 9.688 6.082 14.741C1.335 22.227 0.641 25.446 0.637 40C0.633 54.869 1.778 59.588 7.392 67.832C12.935 75.972 29.384 86.211 52.633 95.994C66.246 101.721 72.159 105.22 76.874 110.335C82.51 116.45 83.639 120.44 83.602 134.132C83.573 145.03 83.383 146.13 80.599 151.574C78.155 156.352 76.745 157.839 72.657 159.942C67.996 162.34 66.78 162.5 53.16 162.5C38.898 162.5 38.51 162.442 31.892 159.307C15.588 151.584 6.201 134.241 6.15 111.75L6.133 104H3.067H0L0.317 127.332L0.633 150.664L3.654 155.547C7.18 161.247 13.623 166.486 18.908 167.954C24.037 169.379 75.55 169.315 82.334 167.876C102.509 163.595 111.184 148.018 109.893 118.392C109.492 109.184 108.961 106.304 106.787 101.556C100.821 88.524 92.212 82.054 66.133 71C35.007 57.807 26.299 49.7 26.177 33.799C26.032 14.964 33.129 8 52.472 8C73.78 8 89.891 21.401 95.152 43.5C96.749 50.209 96.95 50.513 99.976 50.813L103.133 51.127V37.741C103.133 21.383 101.855 16.901 95.258 10.128C87.778 2.449 85.43 1.988 54.205 2.067C36.493 2.112 26.109 2.546 23.062 3.367ZM156.596 3.591C151.104 5.541 145.685 10.205 142.382 15.824L139.633 20.5L139.354 83.405C139.046 152.717 138.968 151.705 145.214 159.283C146.901 161.328 150.385 164.239 152.957 165.751L157.633 168.5L196.491 168.794C241.499 169.135 242.194 169.034 250.249 160.979C258.3 152.928 258.133 154.53 258.133 85.5C258.133 16.498 258.297 18.068 250.273 10.044C242.335 2.107 241.559 1.988 198.205 2.079C168.283 2.142 159.811 2.45 156.596 3.591ZM313.127 2.909C306.171 5.095 300.085 10.252 296.495 17C294.734 20.31 294.633 24.026 294.633 85.5C294.633 150.227 294.642 150.517 296.795 154.5C299.344 159.215 304.247 164.039 309.133 166.638C312.308 168.327 315.725 168.528 345.973 168.8C383.301 169.137 385.447 168.847 392.904 162.464C395.133 160.556 398.121 156.658 399.545 153.801C402.096 148.681 402.133 148.293 402.133 126.304V104H399.133C396.222 104 396.133 104.141 396.125 108.75C396.085 131.898 389.081 148.098 375.33 156.848C367.528 161.813 360.512 163.299 347.223 162.8C332.191 162.236 327.325 159.987 322.777 151.5C320.651 147.534 320.633 146.974 320.633 85.5C320.633 24.026 320.651 23.466 322.777 19.5C325.228 14.925 327.187 13.014 332.133 10.371C335.09 8.79 337.881 8.5 350.133 8.5C363.942 8.5 364.901 8.632 370.258 11.262C377.171 14.657 384.441 22.247 387.792 29.567C389.738 33.818 391.989 42.805 393.098 50.75C393.117 50.888 394.483 51 396.133 51H399.133V37.366C399.133 29.808 398.609 21.983 397.957 19.807C396.468 14.837 390.121 7.575 384.761 4.708C380.77 2.573 379.554 2.494 348.133 2.31C330.258 2.206 314.505 2.475 313.127 2.909ZM451.127 2.909C444.171 5.095 438.085 10.252 434.495 17C432.734 20.31 432.633 24.026 432.633 85.5C432.633 150.227 432.642 150.517 434.795 154.5C437.344 159.215 442.247 164.039 447.133 166.638C450.308 168.327 453.725 168.528 483.973 168.8C521.301 169.137 523.447 168.847 530.904 162.464C533.133 160.556 536.121 156.658 537.545 153.801C540.096 148.681 540.133 148.293 540.133 126.304V104H537.133C534.222 104 534.133 104.141 534.125 108.75C534.085 131.898 527.081 148.098 513.33 156.848C505.528 161.813 498.512 163.299 485.223 162.8C470.191 162.236 465.325 159.987 460.777 151.5C458.651 147.534 458.633 146.974 458.633 85.5C458.633 24.026 458.651 23.466 460.777 19.5C463.228 14.925 465.187 13.014 470.133 10.371C473.09 8.79 475.881 8.5 488.133 8.5C501.942 8.5 502.901 8.632 508.258 11.262C515.171 14.657 522.441 22.247 525.792 29.567C527.738 33.818 529.989 42.805 531.098 50.75C531.117 50.888 532.483 51 534.133 51H537.133V37.366C537.133 29.808 536.609 21.983 535.957 19.807C534.468 14.837 528.121 7.575 522.761 4.708C518.77 2.573 517.554 2.494 486.133 2.31C468.258 2.206 452.505 2.475 451.127 2.909ZM572.161 3.972C570.157 5.976 570.133 6.959 570.133 87.5V169H612.955C660.035 169 661.192 168.873 668.44 162.898C670.472 161.223 673.372 157.748 674.884 155.176L677.633 150.5L677.949 127.25L678.266 104H675.342H672.419L671.718 114.25C670.829 127.258 669.758 131.985 665.941 139.738C661.975 147.795 654.512 155.195 646.25 159.265L639.683 162.5L618.408 162.836L597.133 163.172V125.086V87H603.018C610.944 87 618.349 89.558 623.467 94.063C628.239 98.264 632.623 105.655 633.66 111.25C634.234 114.343 634.774 115 636.744 115H639.133V83V51H636.633C634.643 51 634.133 51.503 634.133 53.462C634.133 58.257 629.87 67.367 625.379 72.168C619.804 78.128 612.721 81 603.595 81H597.133V44.428V7.857L624.383 8.178C651.138 8.494 651.724 8.545 656.633 11C660.643 13.005 662.125 14.49 664.115 18.5C666.314 22.93 666.64 25.067 666.978 37.25L667.36 51H670.246H673.133V28.691C673.133 11.007 672.839 5.98 671.714 4.441C670.349 2.573 668.485 2.49 622.242 2.222C575.112 1.949 574.15 1.983 572.161 3.972ZM710.628 3.38C708.667 4.814 708.629 6.219 708.366 86.919L708.099 169H711.067C712.699 169 716.419 168.489 719.334 167.865C725.767 166.487 731.369 161.416 733.018 155.477C733.718 152.956 734.124 139.694 734.127 119.25C734.13 101.512 734.47 87.025 734.883 87.056C735.296 87.086 746.883 102.889 760.633 122.173C786.423 158.341 792.714 165.659 799.861 167.8C802.146 168.485 809.612 168.983 817.249 168.961C829.255 168.926 830.324 168.784 827.633 167.588C825.983 166.855 823.696 165.185 822.55 163.877C819.938 160.897 766.133 87.205 766.133 86.609C766.133 86.369 773.446 86.021 782.383 85.836C798.162 85.51 798.785 85.416 803.887 82.589C809.455 79.504 813.162 75.394 815.917 69.25C817.321 66.117 817.601 61.961 817.615 44C817.632 24.283 817.46 22.126 815.545 17.989C813.029 12.554 808.361 7.703 802.767 4.711C798.712 2.542 797.812 2.494 755.628 2.211C719.198 1.966 712.318 2.144 710.628 3.38ZM220.24 10.191C222.223 11.064 224.995 13.017 226.4 14.532C231.501 20.033 231.633 21.836 231.633 86C231.633 141.083 231.498 145.849 229.818 150.203C225.732 160.792 218.53 163.423 195.189 162.854C181.891 162.529 180.13 162.268 175.643 159.959C171.814 157.989 170.144 156.319 168.172 152.488L165.633 147.553V85.527C165.633 24.109 165.654 23.454 167.789 18.834C171.91 9.92 178.158 7.919 200.633 8.319C212.567 8.531 217.55 9.007 220.24 10.191ZM776.163 9.1C782.619 10.484 787.429 14.604 789.818 20.797C791.336 24.731 791.633 28.523 791.633 44C791.633 65.009 790.584 69.641 784.647 74.854C779.892 79.028 773.838 80 752.584 80H734.133V44V8H752.584C762.732 8 773.342 8.495 776.163 9.1ZM847.841 143.09C837.371 148.615 837.575 163.614 848.194 169.031C853.269 171.62 858.068 171.523 862.143 168.75C867.506 165.1 869.633 161.479 869.633 156C869.633 150.521 867.506 146.9 862.143 143.25C858.05 140.465 852.924 140.407 847.841 143.09ZM898.841 143.09C888.371 148.615 888.575 163.614 899.194 169.031C904.269 171.62 909.068 171.523 913.143 168.75C918.506 165.1 920.633 161.479 920.633 156C920.633 150.521 918.506 146.9 913.143 143.25C909.05 140.465 903.924 140.407 898.841 143.09Z" fill="black"/>
</svg>
