<svg width="1560" height="338" viewBox="0 0 1560 338" fill="none" xmlns="http://www.w3.org/2000/svg">
<path fill-rule="evenodd" clip-rule="evenodd" d="M1119.57 3.5475C1110.92 9.43581 1107.49 15.2773 1107.49 24.1163C1107.49 36.535 1116.66 46.4225 1129.49 47.8276C1137.22 48.6762 1144.75 44.7996 1150.53 36.9851C1164.81 17.7053 1139.27 -9.86334 1119.57 3.5475ZM937.308 7.91937C932.438 9.60036 926.837 12.8559 924.861 15.1531C916.498 24.8745 916.318 27.5654 916.318 143.197C916.318 220.346 916.848 252.167 918.204 256.698C920.855 265.542 930.07 273.39 940.409 275.607C944.992 276.589 956.874 277.317 966.811 277.222C982.053 277.077 983.824 276.812 978.126 275.533C969.186 273.528 962.37 265.739 960.037 254.858C958.835 249.258 958.263 207.503 958.263 125.671V4.75743L952.213 4.81066C948.887 4.8397 942.179 6.23838 937.308 7.91937ZM1034.1 7.91937C1029.23 9.60036 1023.63 12.8559 1021.65 15.1531C1013.29 24.8745 1013.11 27.5654 1013.11 143.197C1013.11 220.346 1013.64 252.167 1015 256.698C1017.65 265.542 1026.86 273.39 1037.2 275.607C1041.79 276.589 1053.67 277.317 1063.61 277.222C1078.85 277.077 1080.62 276.812 1074.92 275.533C1065.98 273.528 1059.16 265.739 1056.83 254.858C1055.63 249.258 1055.06 207.503 1055.06 125.671V4.75743L1049.01 4.81066C1045.68 4.8397 1038.97 6.23838 1034.1 7.91937ZM6.96112 9.58585C0.643681 12.1719 0 16.0372 0 51.4348V85.4193H5.64633H11.2927V66.354C11.2927 42.3329 13.8738 32.6664 22.0933 25.8908C29.0689 20.1413 39.1984 17.6633 55.7357 17.6633H67.7559V147.529V277.394H72.5166C83.585 277.394 94.0695 273.818 100.263 267.928C111.349 257.385 111.313 257.823 111.313 130.04V17.2407L128.038 17.9844C150.163 18.9684 158.692 22.8547 164.515 34.6023C168.022 41.6812 168.588 45.2852 169.138 64.0439L169.764 85.4193H175.359H180.955L180.416 49.9829C179.937 18.5619 179.55 14.2207 176.996 11.6685C174.317 8.99056 168.414 8.76793 92.3013 8.46626C47.063 8.2888 8.90991 8.78891 6.96112 9.58585ZM1132.1 68.3561C1122.24 71.8761 1117.87 75.5818 1114.19 83.5382C1110.77 90.9333 1110.71 92.6998 1110.26 184.23L1109.81 277.394H1114.62C1124.54 277.394 1136 273.82 1141.47 269.015C1151.71 260.028 1151.85 258.516 1151.85 156.915V66.0604L1144.99 66.1314C1141.22 66.1701 1135.42 67.1719 1132.1 68.3561ZM221.031 72.4488C216.161 74.1298 210.56 77.3854 208.583 79.6826C200.391 89.2055 200.041 93.6871 200.041 188.96V277.394H204.802C214.681 277.394 226.148 273.81 231.609 269.015C241.564 260.275 241.986 256.543 241.986 176.988C241.986 129.864 242.592 103.796 243.802 98.993C248.587 79.9891 268.998 74.5412 284.143 88.2231C291.426 94.8035 296.114 103.028 300.018 116.071C302.569 124.592 302.893 124.944 308.225 124.944H313.775L313.303 109.618C313.044 101.189 312.06 91.8706 311.116 88.9103C308.627 81.1055 300.698 72.8425 293.88 70.9485C290.625 70.0451 274.896 69.324 258.925 69.3482C234.695 69.3853 228.42 69.8983 221.031 72.4488ZM366.713 70.9114C360.717 73.3281 359.752 77.687 359.752 102.355V125.955L364.995 125.449L370.238 124.944L371.143 112.844C371.64 106.19 373.248 98.472 374.715 95.694C381.213 83.3882 395.748 77.8129 417.125 79.4261C445.147 81.5394 454.933 93.1628 454.933 124.331V138.458L413.392 138.961C366.04 139.534 364.388 139.934 352.166 153.819C342.832 164.423 342.001 168.954 342.042 209.019C342.074 241.024 342.384 245.002 345.36 251.583C349.377 260.47 356.822 268.464 365.398 273.1C371.483 276.389 374.334 276.615 415.504 277.083C456.583 277.551 459.69 277.38 468.215 274.191C477.913 270.562 488.398 261.604 493.162 252.876C495.819 248.011 496.111 241.369 496.537 176.207C496.995 106.228 496.937 104.709 493.531 96.791C489.551 87.5407 478.828 76.9111 468.952 72.4263C462.802 69.6337 458.048 69.3643 416.215 69.424C390.928 69.4611 368.652 70.1306 366.713 70.9114ZM530.755 71.2744C534.556 72.6521 537.305 75.1655 539.163 78.9663C540.683 82.0718 554.252 123.314 569.316 170.614C584.381 217.916 598.603 259.857 600.924 263.816C605.567 271.74 614.329 278.38 622.224 279.959L627.331 280.981L635.48 255.393C639.961 241.319 654.724 194.958 668.285 152.369L692.943 74.9332L698.561 72.1133L704.178 69.2917L695.823 69.2901C690.611 69.2885 686.576 70.1806 685.092 71.6648C682.791 73.9653 678.939 85.4725 646.632 186.543C638.355 212.437 631.097 233.127 630.503 232.521C629.909 231.914 620.185 202.016 608.894 166.081C597.601 130.146 587.118 97.8364 585.595 94.2792C578.211 77.0272 566.925 70.6888 542.048 69.8193C526.878 69.2901 525.699 69.4418 530.755 71.2744ZM753.97 70.9969C745.075 73.6572 733.498 82.6929 728.423 90.9365L723.537 98.8737L723.085 171.155L722.635 243.436L726.576 251.139C731.537 260.835 740.771 269.806 750.155 274.044C756.74 277.019 760.725 277.327 793.053 277.359C831.766 277.398 839.422 276.218 849.277 268.701C858.768 261.462 861.735 252.665 862.699 228.899L863.545 208.025H857.871H852.196L851.499 226.229C850.624 249.071 847.201 256.718 835.179 262.679C825.535 267.462 804.024 269.083 789.699 266.107C778.159 263.709 769.272 255.977 766.473 245.899C765.368 241.919 764.689 222.181 764.684 193.909L764.674 148.336H821.138H877.601L877.565 125.347C877.535 105.732 877.049 101.294 874.247 95.0987C870.23 86.2114 862.785 78.2178 854.209 73.5813C848.085 70.271 845.491 70.0774 803.392 69.7886C778.992 69.6208 756.752 70.1645 753.97 70.9969ZM1200.25 173.27V277.394H1205.01C1207.63 277.394 1213.62 276.57 1218.32 275.563C1228.7 273.34 1237.73 265.16 1240.39 255.579C1241.59 251.273 1242.18 221.175 1242.18 164.065L1242.19 78.9663L1263.57 78.976C1288.46 78.9857 1295.78 80.6086 1302.86 87.6875C1312.88 97.7057 1313.17 100.76 1313.17 193.8V277.394H1317.94C1329.26 277.394 1339.74 273.789 1345.69 267.842C1355.68 257.855 1355.9 255.837 1355.92 174.954C1355.93 93.9904 1356.29 96.9265 1344.5 83.8673C1341.14 80.1553 1335.45 75.5382 1331.84 73.6072C1325.47 70.1984 1323.42 70.079 1262.76 69.6192L1200.25 69.1449V173.27ZM1426.91 73.1312C1417.21 77.7145 1411.29 83.7367 1406.87 93.4855C1403.72 100.443 1403.59 103.721 1403.62 172.534C1403.66 249.802 1403.77 250.908 1412.25 262.036C1414.61 265.119 1419.95 269.656 1424.14 272.116L1431.75 276.588L1474.27 277.09L1516.8 277.593L1516.18 294.366C1515.45 314.083 1513.51 317.888 1501.03 324.149C1493.97 327.694 1490.54 328.223 1471.16 328.76C1442.94 329.544 1432.66 327.532 1424.23 319.577C1419.59 315.199 1417.49 311.524 1416.02 305.223C1414.11 297.052 1413.85 296.753 1408.55 296.753H1403.06L1403.99 305.702C1405.24 317.848 1411.29 327.765 1420.9 333.411L1428.52 337.891H1480.95H1533.38L1541.45 333.858C1550.86 329.15 1555.85 322.409 1558.27 311.134C1559.41 305.787 1560 263.435 1560 186.168V69.2869L1497.49 69.303C1435.13 69.3192 1434.95 69.3288 1426.91 73.1312ZM813.518 80.6764C829.063 84.9934 835.657 97.7847 835.657 123.624V138.656H799.996H764.334L764.973 119.701C765.85 93.6645 770.351 85.2805 785.84 80.8264C793.253 78.6937 806.13 78.6243 813.518 80.6764ZM1516.12 160.838C1515.67 236.494 1515.41 243.231 1512.64 249.573C1506.86 262.785 1494.84 268.73 1476.79 267.297C1463.12 266.211 1455.94 262.393 1450.65 253.389L1446.27 245.936L1445.75 178.987C1445.2 108.65 1445.9 99.0785 1452.15 91.1317C1459.41 81.904 1468.68 79.4148 1496.76 79.1518L1516.61 78.9663L1516.12 160.838ZM454.933 194.11C454.933 250.424 453.789 255.224 438.516 263.019C423.686 270.588 401.549 267.841 392.276 257.277C389.568 254.194 386.591 248.929 385.66 245.577C383.094 236.334 383.584 176.378 386.288 168.798C388.913 161.438 392.726 156.958 399.273 153.546C407.094 149.47 412.622 148.676 434.364 148.5L454.933 148.336V194.11Z" fill="black"/>
</svg>
