<svg width="290" height="154" viewBox="0 0 290 154" fill="none" xmlns="http://www.w3.org/2000/svg">
<path fill-rule="evenodd" clip-rule="evenodd" d="M83.4504 0.253418C82.5537 0.482746 81.7804 1.10361 81.3696 1.92363C81.1198 2.42224 81.0883 3.66428 81.0463 14.5983L81 26.7201H81.4946C81.7667 26.7201 82.3851 26.6394 82.8689 26.5408C83.9367 26.3232 84.8665 25.5223 85.1402 24.5843C85.2663 24.1515 85.3238 20.2338 85.3243 11.9923L85.3253 0.0283542L84.7858 0.0389361C84.4891 0.0449378 83.8882 0.141281 83.4504 0.253418ZM94.1222 0.137648C92.7203 0.361448 91.8036 1.07454 91.4765 2.19576C91.2049 3.12633 91.2353 26.7209 91.508 26.7177C92.234 26.7092 92.2088 27.1096 92.2964 14.2209L92.3794 2.02597L98.7623 13.7018C102.533 20.5988 105.353 25.5791 105.653 25.8699C106.268 26.4653 107.341 26.7201 109.234 26.7201H110.554V13.3742C110.554 -0.816936 110.575 -0.442937 109.819 0.276477C109.676 0.413094 109.542 0.537393 109.521 0.552871C109.501 0.568507 109.445 6.0261 109.397 12.6812L109.309 24.7811L102.587 12.4083L95.865 0.0353036L95.201 0.0533086C94.8359 0.0632588 94.3504 0.101164 94.1222 0.137648ZM188.432 0.436785C187.483 0.886912 187.089 1.32867 186.685 2.39744C186.538 2.78834 184.727 8.18797 182.662 14.3964C180.597 20.605 178.801 25.8822 178.67 26.1234C178.354 26.7049 177.901 26.6817 177.213 26.0489C176.725 25.6001 167.651 13.8882 167.651 13.7073C167.651 13.6694 168.865 13.6145 170.348 13.5852C172.967 13.5337 173.071 13.5189 173.917 13.0724C174.842 12.5852 175.457 11.936 175.914 10.9657C176.147 10.4708 176.194 9.81443 176.196 6.97768C176.199 3.86359 176.17 3.52292 175.852 2.86952C175.435 2.01112 174.66 1.24496 173.732 0.772406C173.059 0.429836 172.909 0.422255 165.907 0.377558C159.861 0.338863 158.719 0.366976 158.438 0.562189C158.113 0.788674 158.107 1.01058 158.063 13.7563L158.019 26.7201H158.511C158.782 26.7201 159.4 26.6394 159.883 26.5408C160.951 26.3232 161.881 25.5223 162.155 24.5843C162.271 24.1861 162.338 22.0915 162.339 18.8626C162.339 16.0611 162.396 13.773 162.464 13.7779C162.533 13.7827 164.456 16.2786 166.738 19.3243C171.019 25.0366 172.063 26.1924 173.249 26.5306C174.068 26.7642 178.994 26.7869 179.441 26.5593C179.671 26.4421 180.18 25.1527 181.324 21.7816C182.186 19.2425 182.941 17.0037 183.001 16.8067L183.111 16.4485L187.188 16.4908L191.265 16.533L192.452 20.3297C193.105 22.4178 193.815 24.3968 194.03 24.7275C194.847 25.9858 196.532 26.7302 198.512 26.7076C199.111 26.7008 199.507 26.6587 199.39 26.6141C199.274 26.5694 199.043 26.2731 198.877 25.9554C198.712 25.6376 196.679 19.674 194.36 12.703C190.219 0.255787 190.135 0.0283542 189.718 0.0283542C189.485 0.0283542 188.906 0.212196 188.432 0.436785ZM244.616 0.253418C243.72 0.482746 242.946 1.10361 242.536 1.92363C242.286 2.42224 242.254 3.66428 242.212 14.5983L242.166 26.7201H242.661C242.933 26.7201 243.551 26.6394 244.035 26.5408C245.103 26.3232 246.033 25.5223 246.306 24.5843C246.432 24.1515 246.49 20.2338 246.49 11.9923L246.491 0.0283542L245.952 0.0389361C245.655 0.0449378 245.054 0.141281 244.616 0.253418ZM114.258 0.501067C113.608 0.754243 113.542 1.13267 113.542 4.59817V7.92532H114.123H114.704V6.05879C114.704 3.70708 114.969 2.7607 115.815 2.09736C116.533 1.53446 117.575 1.29187 119.276 1.29187H120.513V14.006V26.7201H121.003C122.141 26.7201 123.22 26.3699 123.857 25.7933C124.998 24.7612 124.994 24.804 124.994 12.2938V1.25049L126.715 1.3233C128.991 1.41964 129.869 1.80012 130.468 2.95023C130.829 3.64327 130.887 3.99611 130.944 5.83262L131.008 7.92532H131.584H132.16L132.104 4.45602C132.055 1.37984 132.015 0.954826 131.752 0.704966C131.477 0.442787 130.869 0.420991 123.038 0.391457C118.384 0.374083 114.458 0.423045 114.258 0.501067ZM135.456 0.655689C135.123 0.972199 135.119 1.12745 135.119 13.848V26.7201H142.227C150.041 26.7201 150.233 26.7 151.436 25.7563C151.773 25.4918 152.255 24.943 152.506 24.5367L152.962 23.7982L153.014 20.1261L153.067 16.454H152.582H152.096L151.98 18.0729C151.833 20.1274 151.655 20.874 151.021 22.0985C150.363 23.371 149.124 24.5397 147.753 25.1826L146.663 25.6935L143.132 25.7466L139.601 25.7996V19.7843V13.7691H140.577C141.893 13.7691 143.122 14.1731 143.971 14.8846C144.763 15.5481 145.491 16.7154 145.663 17.5991C145.759 18.0876 145.848 18.1914 146.175 18.1914H146.572V13.1373V8.08326H146.157C145.826 8.08326 145.742 8.1627 145.742 8.47211C145.742 9.22943 145.034 10.6683 144.289 11.4265C143.363 12.3678 142.188 12.8214 140.673 12.8214H139.601V7.04528V1.26928L144.123 1.31998C148.564 1.36989 148.662 1.37795 149.476 1.76569C150.142 2.08236 150.388 2.31689 150.718 2.95023C151.083 3.6499 151.137 3.98742 151.193 5.91159L151.257 8.08326H151.736H152.215V4.55979C152.215 1.76679 152.166 0.972831 151.979 0.729763C151.753 0.434732 151.444 0.421623 143.768 0.379295C135.946 0.336178 135.786 0.341548 135.456 0.655689ZM203.834 0.4878C202.679 0.833055 201.669 1.64755 201.073 2.71332C200.781 3.2361 200.764 3.823 200.764 13.5322C200.764 23.7551 200.765 23.8009 201.123 24.43C201.546 25.1747 202.36 25.9366 203.171 26.347C203.698 26.6138 204.265 26.6455 209.285 26.6885C215.481 26.7417 215.837 26.6959 217.075 25.6878C217.445 25.3865 217.941 24.7708 218.177 24.3196C218.601 23.5109 218.607 23.4496 218.607 19.9767V16.454H218.109C217.626 16.454 217.611 16.4763 217.61 17.2043C217.603 20.8602 216.44 23.4188 214.158 24.8008C212.863 25.585 211.699 25.8197 209.493 25.7409C206.998 25.6518 206.19 25.2966 205.435 23.9562C205.082 23.3298 205.079 23.2413 205.079 13.5322C205.079 3.823 205.082 3.73456 205.435 3.10817C205.842 2.3856 206.167 2.08378 206.988 1.66634C207.479 1.41664 207.942 1.37084 209.976 1.37084C212.268 1.37084 212.427 1.39169 213.316 1.80707C214.464 2.34327 215.67 3.54203 216.226 4.69815C216.549 5.36955 216.923 6.78895 217.107 8.04377C217.11 8.06557 217.337 8.08326 217.611 8.08326H218.109V5.92991C218.109 4.73621 218.022 3.50033 217.914 3.15666C217.666 2.3717 216.613 1.22474 215.723 0.771932C215.061 0.434732 214.859 0.422255 209.644 0.393194C206.677 0.376768 204.062 0.419254 203.834 0.4878ZM221.315 0.501067C220.665 0.754243 220.599 1.13267 220.599 4.59817V7.92532H221.179H221.76V6.05879C221.76 3.70708 222.026 2.7607 222.872 2.09736C223.589 1.53446 224.631 1.29187 226.333 1.29187H227.57V14.006V26.7201H228.059C229.198 26.7201 230.277 26.3699 230.914 25.7933C232.055 24.7612 232.051 24.804 232.051 12.2938V1.25049L233.772 1.3233C236.048 1.41964 236.926 1.80012 237.525 2.95023C237.886 3.64327 237.944 3.99611 238 5.83262L238.065 7.92532H238.64H239.216L239.161 4.45602C239.112 1.37984 239.072 0.954826 238.809 0.704966C238.533 0.442787 237.926 0.420991 230.095 0.391457C225.441 0.374083 221.515 0.423045 221.315 0.501067ZM249.243 0.502804C249.835 0.679222 250.178 1.01848 250.44 1.68672C250.543 1.94732 252.015 6.95794 253.711 12.8214C255.407 18.6849 256.946 23.9227 257.131 24.4609C257.539 25.6502 258.49 26.6353 259.473 26.887C259.838 26.9805 260.224 27.0249 260.332 26.9858C260.439 26.9464 262.235 21.2025 264.321 14.2216C266.408 7.24049 268.194 1.36342 268.29 1.16125C268.387 0.959091 268.694 0.698333 268.973 0.581931L269.479 0.369977L268.634 0.357184C268.026 0.347865 267.715 0.421939 267.527 0.620627C267.237 0.92845 266.628 2.90096 263.347 14.1639C262.107 18.4204 261.034 22.0369 260.962 22.2005C260.873 22.4047 259.981 19.4552 258.12 12.8031C256.628 7.47093 255.273 2.85262 255.109 2.54038C254.747 1.85334 253.836 1.06681 253 0.719023C252.593 0.54987 251.763 0.443577 250.558 0.406461C249.213 0.364923 248.867 0.390351 249.243 0.502804ZM272.389 0.655689C272.056 0.972199 272.052 1.12745 272.052 13.848V26.7201H279.16C286.974 26.7201 287.166 26.7 288.369 25.7563C288.706 25.4918 289.188 24.943 289.439 24.5367L289.895 23.7982L289.947 20.1261L290 16.454H289.515H289.03L288.913 18.0729C288.766 20.1274 288.588 20.874 287.954 22.0985C287.296 23.371 286.057 24.5397 284.686 25.1826L283.596 25.6935L280.065 25.7466L276.534 25.7996V19.7843V13.7691H277.51C278.826 13.7691 280.055 14.1731 280.904 14.8846C281.697 15.5481 282.424 16.7154 282.596 17.5991C282.692 18.0876 282.781 18.1914 283.108 18.1914H283.505V13.1373V8.08326H283.09C282.759 8.08326 282.675 8.1627 282.675 8.47211C282.675 9.22943 281.967 10.6683 281.222 11.4265C280.296 12.3678 279.121 12.8214 277.606 12.8214H276.534V7.04528V1.26928L281.057 1.31998C285.497 1.36989 285.595 1.37795 286.409 1.76569C287.075 2.08236 287.321 2.31689 287.651 2.95023C288.016 3.6499 288.07 3.98742 288.126 5.91159L288.19 8.08326H288.669H289.148V4.55979C289.148 1.76679 289.099 0.972831 288.912 0.729763C288.686 0.434732 288.377 0.421623 280.701 0.379295C272.879 0.336178 272.719 0.341548 272.389 0.655689ZM169.316 1.4656C170.387 1.68419 171.186 2.3349 171.582 3.31302C171.834 3.93435 171.884 4.53326 171.884 6.97768C171.884 10.2958 171.709 11.0274 170.724 11.8507C169.935 12.51 168.93 12.6635 165.402 12.6635H162.34V6.97768V1.29187H165.402C167.087 1.29187 168.848 1.37005 169.316 1.4656ZM189.213 9.71635C190.148 12.8297 190.882 15.4074 190.842 15.4447C190.803 15.4821 189.13 15.4935 187.124 15.4701L183.477 15.4274L185.398 9.63233C186.455 6.44495 187.363 3.88634 187.416 3.94651C187.469 4.00653 188.277 6.60305 189.213 9.71635Z" fill="black"/>
<path fill-rule="evenodd" clip-rule="evenodd" d="M9.57669 43.936C6.02092 44.8897 2.95422 47.4717 1.3251 50.882C0.341044 52.9425 0.208082 57.6271 0.0402326 96.0493C-0.0854896 124.801 0.0830176 139.771 0.551678 141.508C1.51994 145.097 4.93418 149.335 8.75587 151.693L11.9733 153.677H33.4165C53.0897 153.677 55.0506 153.576 57.1642 152.451C60.4007 150.728 62.3333 148.839 63.9749 145.795C65.3855 143.18 65.3927 142.924 65.5803 93.0837C65.7317 52.6154 65.6053 43.002 64.9221 43.0099C63.216 43.0302 62.2701 44.2197 61.727 47.0251C61.421 48.6048 61.1564 69.8482 61.1386 94.2332C61.1162 124.471 60.8753 139.401 60.3796 141.182C59.9794 142.619 58.5708 144.874 57.2484 146.193C53.9691 149.466 49.8868 150.245 37.5219 149.959C28.7391 149.756 27.6228 149.593 25.0846 148.142C22.0015 146.38 19.2988 142.932 18.3134 139.502C17.9217 138.139 17.6703 118.847 17.6703 90.1326V43L15.2019 43.044C13.8447 43.069 11.3131 43.4696 9.57669 43.936ZM84.6032 45.2385C85.7564 45.7594 87.4422 47.3161 88.3486 48.6981C90.2054 51.5284 112.013 96.8224 112.015 97.8524C112.017 98.5171 86.0382 144.952 83.0926 149.551C81.9255 151.372 80.7328 152.247 78.3968 152.996L75.2655 154L80.0167 153.818C83.5138 153.684 85.2226 153.295 86.491 152.343C87.5376 151.558 93.2405 141.896 101.004 127.753C108.039 114.941 114.027 104.226 114.311 103.942C114.596 103.658 119.256 112.761 124.667 124.17C138.368 153.056 138.801 153.49 154.253 153.78C161.9 153.924 163.087 153.825 161.227 153.198C156.792 151.704 155.364 149.327 141.266 119.982L127.628 91.5914L139.148 70.1102C145.485 58.2957 151.311 47.9473 152.096 47.1138C152.88 46.2802 154.428 45.3364 155.534 45.0152C157.342 44.491 157.19 44.426 154.024 44.3728C152.082 44.3399 149.537 44.7708 148.35 45.3331C145.985 46.453 144.556 48.882 132.2 72.7757C128.495 79.9398 125.241 85.5557 124.968 85.2556C124.695 84.9547 121.022 77.4753 116.806 68.6343C112.59 59.7933 108.401 51.4955 107.498 50.195C106.594 48.8938 104.6 47.1131 103.067 46.2382C100.552 44.803 99.4062 44.629 91.3922 44.4687C83.2012 44.3051 82.67 44.3656 84.6032 45.2385Z" fill="black"/>
</svg>
