<svg width="231" height="231" viewBox="0 0 231 231" fill="none" xmlns="http://www.w3.org/2000/svg">
<circle cx="115.5" cy="115.5" r="115.5" fill="#1C1C19"/>
<path d="M105.524 61.1731L112.501 48.0017L114.388 48.54L113.383 63.4149L111.531 62.8865L111.898 59.1727L109.042 58.358L107.359 61.6965L105.524 61.1731ZM109.701 57.03L112.038 57.6966L112.663 51.0428L109.701 57.03ZM117.622 64.7739C116.78 64.5336 116.238 64.0484 115.997 63.3183C115.759 62.5767 115.851 61.4673 116.273 59.9902L116.826 58.0516C117.043 57.29 117.307 56.6041 117.618 55.9941C117.933 55.3726 118.319 54.915 118.777 54.6214C119.247 54.3311 119.822 54.2831 120.503 54.4773C120.838 54.5728 121.122 54.735 121.356 54.964C121.591 55.1931 121.786 55.4485 121.943 55.7303L123.271 51.074L125.123 51.6024L121.123 65.623L119.271 65.0947L119.454 64.4542C119.169 64.6225 118.872 64.7438 118.564 64.8181C118.271 64.8841 117.957 64.8694 117.622 64.7739ZM118.504 63.4533C118.677 63.5026 118.87 63.5265 119.083 63.5247C119.299 63.5115 119.523 63.4693 119.755 63.3984L121.627 56.8381C121.498 56.6766 121.347 56.5275 121.174 56.3907C121.004 56.2425 120.804 56.1354 120.573 56.0696C120.146 55.9478 119.798 56.0732 119.53 56.4458C119.265 56.8069 119.05 57.2759 118.885 57.8529L118.08 60.6744C117.949 61.1359 117.852 61.5637 117.789 61.9577C117.741 62.3434 117.767 62.669 117.866 62.9343C117.968 63.1881 118.181 63.3611 118.504 63.4533ZM126.405 67.2793C125.666 67.0686 125.126 66.7524 124.785 66.3306C124.443 65.9087 124.259 65.3945 124.233 64.7879C124.218 64.1847 124.317 63.508 124.531 62.7579L125.361 59.8499C125.575 59.0998 125.847 58.4725 126.178 57.968C126.521 57.4668 126.948 57.127 127.461 56.9488C127.974 56.7706 128.599 56.7868 129.338 56.9975C130.076 57.2082 130.61 57.5228 130.94 57.9413C131.282 58.3632 131.46 58.8757 131.475 59.479C131.502 60.0856 131.408 60.7639 131.194 61.514L130.364 64.422C130.15 65.172 129.872 65.7977 129.529 66.2989C129.198 66.8034 128.776 67.1448 128.264 67.3231C127.763 67.5046 127.143 67.49 126.405 67.2793ZM126.795 65.9119C127.152 66.0139 127.43 65.9808 127.628 65.8126C127.837 65.6477 128.001 65.4012 128.12 65.0732C128.253 64.7368 128.372 64.384 128.478 64.0148L129.371 60.8818C129.48 60.501 129.565 60.1383 129.626 59.7938C129.698 59.4525 129.689 59.1567 129.598 58.9062C129.522 58.6474 129.305 58.467 128.948 58.3649C128.59 58.2629 128.305 58.3001 128.092 58.4766C127.883 58.6415 127.713 58.8863 127.583 59.2111C127.465 59.5392 127.351 59.8936 127.242 60.2744L126.349 63.4074C126.243 63.7767 126.153 64.1377 126.077 64.4905C126.016 64.835 126.031 65.1325 126.122 65.383C126.213 65.6335 126.437 65.8098 126.795 65.9119ZM135.281 69.8115C134.923 69.7094 134.625 69.5307 134.386 69.2753C134.161 69.0117 133.977 68.7406 133.832 68.4621L133.624 69.1891L131.772 68.6607L135.772 54.6401L137.624 55.1684L136.251 59.9804C136.543 59.7891 136.865 59.6439 137.218 59.5449C137.582 59.4491 137.977 59.4622 138.404 59.584C138.924 59.7321 139.294 59.9874 139.515 60.35C139.751 60.7043 139.884 61.1105 139.916 61.5687C139.951 62.0154 139.93 62.4588 139.855 62.899C139.782 63.3276 139.703 63.6919 139.618 63.9919L138.926 66.4152C138.726 67.1192 138.466 67.7687 138.146 68.3639C137.83 68.9475 137.437 69.3845 136.967 69.6748C136.501 69.9535 135.939 69.9991 135.281 69.8115ZM135.315 68.2488C135.638 68.341 135.902 68.2915 136.106 68.1002C136.314 67.8973 136.492 67.5989 136.642 67.2049C136.792 66.8109 136.936 66.3716 137.074 65.8869L137.766 63.4636C137.884 63.0481 137.97 62.6607 138.022 62.3014C138.078 61.9305 138.061 61.6198 137.97 61.3693C137.879 61.1188 137.672 60.9474 137.349 60.8553C137.107 60.7861 136.861 60.7722 136.612 60.8135C136.375 60.8581 136.158 60.9209 135.96 61.0017L134.128 67.4235C134.253 67.5965 134.412 67.7605 134.605 67.9153C134.813 68.062 135.05 68.1731 135.315 68.2488ZM142.902 71.9854C142.117 71.7616 141.554 71.4387 141.213 71.0169C140.875 70.5835 140.703 70.0479 140.698 69.41C140.707 68.7639 140.836 68.008 141.082 67.1426L141.734 64.8577C141.988 63.9692 142.285 63.2553 142.626 62.7162C142.967 62.177 143.394 61.8184 143.906 61.6401C144.43 61.4652 145.073 61.4863 145.835 61.7036C146.677 61.9439 147.245 62.2931 147.539 62.7512C147.844 63.2127 147.966 63.7903 147.905 64.4843C147.848 65.1667 147.689 65.9638 147.429 66.8754L147.197 67.6889L143.251 66.5631L142.678 68.571C142.563 68.9749 142.503 69.3137 142.5 69.5873C142.509 69.8642 142.575 70.0892 142.701 70.2622C142.841 70.427 143.044 70.5472 143.309 70.6229C143.586 70.7019 143.812 70.6977 143.987 70.6103C144.176 70.5146 144.329 70.3522 144.444 70.123C144.574 69.8856 144.687 69.5996 144.782 69.2649L144.955 68.6591L146.755 69.1726L146.647 69.5534C146.36 70.5574 145.921 71.2869 145.33 71.7421C144.738 72.1973 143.929 72.2784 142.902 71.9854ZM143.537 65.5592L145.666 66.1665L145.923 65.2664C146.041 64.851 146.117 64.4982 146.15 64.2081C146.186 63.9065 146.149 63.665 146.038 63.4837C145.943 63.2942 145.739 63.155 145.427 63.0661C145.127 62.9805 144.877 62.9839 144.676 63.0763C144.486 63.172 144.315 63.3789 144.162 63.6971C144.012 64.0038 143.855 64.4456 143.69 65.0226L143.537 65.5592ZM152.088 74.4562L157.107 67.9515L156.139 60.4503L157.957 60.9688L158.674 66.5267L162.025 62.1292L163.842 62.6477L158.949 68.6455L159.981 76.7078L158.163 76.1894L157.385 70.2582L153.905 74.9747L152.088 74.4562ZM161.996 77.2827L165.996 63.262L169.042 64.1311C170.081 64.4274 170.854 64.8227 171.362 65.3169C171.885 65.803 172.182 66.3996 172.255 67.1067C172.34 67.8171 172.247 68.6454 171.977 69.5916L170.505 74.7499C170.222 75.7423 169.851 76.541 169.391 77.1462C168.943 77.7546 168.374 78.1537 167.683 78.3435C167.008 78.5251 166.179 78.476 165.198 78.1962L161.996 77.2827ZM164.352 76.4386L165.46 76.7547C166.175 76.9587 166.723 76.9651 167.102 76.7738C167.481 76.5824 167.775 76.2295 167.984 75.7152C168.205 75.2041 168.422 74.5735 168.636 73.8234L169.934 69.2711C170.142 68.5441 170.264 67.9424 170.3 67.466C170.336 66.9896 170.228 66.6031 169.975 66.3065C169.723 66.0099 169.262 65.7662 168.593 65.5752L167.537 65.274L164.352 76.4386Z" fill="#C5BDB4"/>
<path fill-rule="evenodd" clip-rule="evenodd" d="M96.1115 77.8522C94.799 77.6324 93.838 77.5444 92.7464 77.5443C88.9127 77.5439 85.0638 78.8475 81.9973 81.1851C79.2195 83.3025 77.1974 86.0486 75.9459 89.4033C75.6432 90.2147 59.7218 153.188 59.6024 154.046C58.9401 158.808 60.0478 163.373 62.7989 167.219C64.8484 170.085 67.7442 172.279 71.1694 173.562C71.9764 173.864 137.078 190.323 137.931 190.441C143.21 191.169 148.212 189.698 152.266 186.226C154.508 184.306 156.282 181.721 157.384 178.768C157.687 177.956 173.608 114.983 173.727 114.125C174.463 108.838 173 103.756 169.59 99.7534C167.527 97.3327 164.797 95.5015 161.682 94.4495C161.261 94.3073 150.871 91.6666 128.685 86.063C110.874 81.5646 96.2162 77.8698 96.1115 77.8522ZM157.8 115.904L157.887 116.022L152.7 136.646C147.852 155.919 147.502 157.333 147.359 158.229C147.274 158.756 147.135 159.477 147.051 159.83C146.846 160.686 146.885 160.655 145.792 160.806C143.191 161.164 140.498 161.177 137.602 160.846C135.712 160.629 135.124 160.518 132.938 159.967C131.072 159.496 130.818 159.422 130.13 159.146C127.863 158.237 126.078 157.188 124.378 155.763C122.503 154.191 121.09 152.187 120.148 149.761C118.908 146.567 118.884 142.712 120.08 138.39C120.703 136.136 121.56 134.353 122.878 132.567C125.067 129.6 128.278 127.337 131.809 126.274C135.796 125.073 140.125 125.252 145.002 126.818L145.472 126.969L147.119 120.454C148.242 116.014 148.794 113.898 148.851 113.81C148.898 113.739 148.988 113.67 149.051 113.657C149.13 113.64 150.527 113.976 153.44 114.71C157.58 115.753 157.715 115.79 157.8 115.904ZM98.16 104.573C98.6287 104.775 98.6748 104.87 98.9123 106.111C99.4397 108.868 100.31 112.422 101.353 116.075C101.928 118.091 102.516 120.434 102.913 122.292C102.992 122.662 103.078 122.969 103.104 122.975C103.131 122.981 103.778 122.253 104.542 121.356C106.173 119.445 107.731 117.697 110.049 115.182C111.671 113.421 115.134 109.583 115.391 109.261C115.625 108.968 115.356 108.918 120.415 110.197C124.938 111.34 124.956 111.345 125.054 111.473C125.108 111.544 125.141 111.644 125.128 111.697C125.115 111.749 121.168 115.69 116.358 120.454C111.548 125.218 107.606 129.142 107.598 129.174C107.59 129.205 109.293 134.808 111.382 141.624C113.471 148.439 115.186 154.081 115.193 154.161C115.2 154.241 115.183 154.365 115.157 154.435L115.108 154.564L109.863 153.238C104.96 151.998 104.606 151.903 104.426 151.775C104.32 151.7 104.195 151.567 104.148 151.48C104.101 151.393 103.921 150.692 103.747 149.921C102.445 144.154 102.247 143.336 100.934 138.337C100.451 136.501 99.9751 134.68 99.8753 134.292C99.7754 133.903 99.6695 133.579 99.64 133.572C99.6105 133.565 99.1216 134.097 98.5537 134.756C97.9858 135.415 96.8512 136.693 96.0324 137.597C95.2135 138.501 93.844 140.017 92.9888 140.967C91.3948 142.737 89.7069 144.579 88.0225 146.387C87.1635 147.309 87.0503 147.414 86.8806 147.445C86.7102 147.476 86.2286 147.363 81.8573 146.27L77.0224 145.062L77.0228 144.936C77.023 144.867 77.0522 144.756 77.0879 144.689C77.1235 144.623 81.194 140.587 86.1336 135.721C91.0732 130.856 95.132 126.843 95.1532 126.804C95.1747 126.765 93.6181 121.337 91.6522 114.594C89.7054 107.917 88.1177 102.399 88.1239 102.331C88.1362 102.198 88.274 102.098 88.4434 102.1C88.6516 102.101 97.8692 104.448 98.16 104.573ZM140.284 133.657C138.298 133.332 136.378 133.533 134.652 134.249C134.1 134.478 133.121 135.036 132.627 135.403C131.375 136.335 130.598 137.373 129.879 139.072C129.706 139.481 129.589 139.872 129.324 140.927C129.014 142.16 128.984 142.318 128.939 142.974C128.796 145.025 129.097 146.745 129.847 148.163C130.551 149.495 131.572 150.478 133.117 151.312C134.204 151.899 135.17 152.222 136.857 152.561C137.989 152.789 138.356 152.842 138.747 152.832L138.934 152.828L141.22 143.787L143.506 134.746L143.296 134.642C142.414 134.208 141.178 133.804 140.284 133.657Z" fill="#C5BDB4"/>
</svg>
